<svg width="100" height="100" viewBox="0 0 100 100" fill="none" xmlns="http://www.w3.org/2000/svg">
<path d="M0 0.960907H100V100.961H0V0.960907Z" fill="#66D5DC"/>
<path d="M100 0.960907H0V100.961L50 50.9609L100 0.960907Z" fill="#66D5DC"/>
<path d="M0 100.961H100V0.960907L50 50.9609L0 100.961Z" fill="#083341"/>
<g filter="url(#filter0_d)">
<path d="M74.8375 64.5019V83.5214C74.8375 85.6777 74.7672 87.1953 74.6266 88.0742C74.486 88.9413 74.0699 89.8378 73.3785 90.7636C72.6871 91.6777 71.7731 92.3749 70.6364 92.8554C69.5114 93.3242 68.1813 93.5585 66.6461 93.5585C64.9469 93.5585 63.4469 93.2773 62.1461 92.7148C60.8453 92.1523 59.8727 91.4199 59.2281 90.5175C58.5836 89.6152 58.2028 88.666 58.0856 87.6699C57.9684 86.662 57.9098 84.5527 57.9098 81.3417V64.5019H65.3102V85.8417C65.3102 87.0839 65.3746 87.8808 65.5035 88.2324C65.6442 88.5722 65.9196 88.7421 66.3297 88.7421C66.7985 88.7421 67.0973 88.5546 67.2262 88.1796C67.3668 87.7929 67.4371 86.8906 67.4371 85.4726V64.5019H74.8375ZM92.6969 64.5019L90.1129 77.0878L94.0153 92.9609H87.1598C86.3395 90.1249 85.5895 86.6738 84.9098 82.6074C84.7223 84.4003 84.4645 86.3046 84.1364 88.3203L83.4332 92.9609H76.2262L78.8981 77.0878L76.2262 64.5019H83.3805C83.5094 65.287 83.7672 66.5937 84.1539 68.4218C84.4586 69.8163 84.7106 71.0937 84.9098 72.2538L86.4918 64.5019H92.6969Z" fill="white"/>
</g>
<g filter="url(#filter1_d)">
<path d="M24.3535 8.50192V27.5215C24.3535 29.6777 24.2832 31.1953 24.1426 32.0742C24.002 32.9414 23.5859 33.8379 22.8945 34.7636C22.2031 35.6777 21.2891 36.375 20.1523 36.8554C19.0273 37.3242 17.6973 37.5586 16.1621 37.5586C14.4629 37.5586 12.9629 37.2773 11.6621 36.7148C10.3613 36.1523 9.38867 35.4199 8.74414 34.5175C8.09961 33.6152 7.71875 32.666 7.60156 31.6699C7.48438 30.6621 7.42578 28.5527 7.42578 25.3418V8.50192H14.8262V29.8418C14.8262 31.084 14.8906 31.8808 15.0195 32.2324C15.1602 32.5722 15.4355 32.7422 15.8457 32.7422C16.3145 32.7422 16.6133 32.5547 16.7422 32.1797C16.8828 31.7929 16.9531 30.8906 16.9531 29.4726V8.50192H24.3535ZM34.6191 8.50192V36.9609H27.2188V8.50192H34.6191Z" fill="white"/>
</g>
<path d="M22.1106 60.2749L26.5575 64.7936C27.0617 65.3059 27.3998 65.6829 27.5719 65.9246C27.7412 66.1635 27.852 66.4737 27.9042 66.8553C27.9536 67.2342 27.8995 67.6135 27.7417 67.9935C27.5841 68.3679 27.3228 68.7345 26.9581 69.0935C26.5544 69.4907 26.1323 69.7746 25.6917 69.9451C25.2512 70.1156 24.8488 70.169 24.4847 70.1053C24.1206 70.0416 23.8082 69.9052 23.5475 69.6959C23.284 69.4839 22.7769 68.9964 22.0262 68.2336L18.0889 64.2327L19.8471 62.5024L24.8365 67.5724C25.1269 67.8676 25.3285 68.0418 25.4414 68.0952C25.5542 68.1431 25.6594 68.119 25.7568 68.0231C25.8682 67.9135 25.8954 67.7991 25.8383 67.6799C25.7813 67.5551 25.587 67.3243 25.2555 66.9874L20.3524 62.0052L22.1106 60.2749ZM29.1293 59.2539L27.6342 60.7252L27.3383 60.4245C27.0862 60.1684 26.912 60.0219 26.8156 59.9853C26.7193 59.9431 26.6127 59.9795 26.4957 60.0946C26.4011 60.1877 26.3616 60.2896 26.3773 60.4002C26.3902 60.5081 26.4583 60.6246 26.5816 60.7499C26.7488 60.9197 26.8832 61.0341 26.9849 61.0929C27.0867 61.1462 27.2426 61.1626 27.4527 61.1422C27.6656 61.1191 28.0448 61.0171 28.5905 60.8364C29.3161 60.5936 29.8596 60.5027 30.221 60.5636C30.5823 60.6245 30.9617 60.8568 31.3589 61.2605C31.8028 61.7116 32.08 62.1102 32.1905 62.4563C32.2982 62.7997 32.2759 63.1697 32.1236 63.5662C31.9713 63.9572 31.7016 64.3431 31.3146 64.724C30.8859 65.1459 30.4526 65.4408 30.0148 65.6085C29.5798 65.7736 29.1929 65.7981 28.8541 65.6821C28.5153 65.5661 28.1184 65.2771 27.6636 64.8149L27.4006 64.5476L28.8957 63.0763L29.2409 63.4271C29.5341 63.725 29.7426 63.9007 29.8665 63.9542C29.9931 64.0049 30.1122 63.9755 30.2235 63.8659C30.3432 63.7481 30.398 63.6366 30.3878 63.5316C30.3748 63.4237 30.2738 63.2738 30.0848 63.0817C29.8245 62.8172 29.6308 62.6816 29.5038 62.6751C29.374 62.6713 28.8524 62.7956 27.9388 63.0479C27.1692 63.2572 26.6192 63.3025 26.2887 63.1838C25.9554 63.0624 25.6353 62.8458 25.3285 62.5339C24.8928 62.0912 24.6307 61.708 24.5422 61.3841C24.4509 61.0574 24.4883 60.7 24.6543 60.3118C24.8232 59.921 25.0928 59.5433 25.4631 59.1789C25.8306 58.8172 26.189 58.5577 26.5383 58.4003C26.8876 58.2374 27.2059 58.1653 27.493 58.1842C27.7829 58.2003 28.0062 58.2601 28.1628 58.3636C28.3222 58.4643 28.5389 58.6539 28.8129 58.9323L29.1293 59.2539ZM34.612 56.0204L32.4278 58.1699L33.6074 59.3685C33.854 59.619 34.031 59.7627 34.1384 59.7995C34.2458 59.8362 34.3511 59.8039 34.4541 59.7026C34.5821 59.5765 34.6205 59.4456 34.5691 59.3099C34.5177 59.1686 34.3564 58.9601 34.0852 58.6845L33.366 57.9536L34.9655 56.3796L35.3682 56.7888C35.7052 57.1313 35.9419 57.4163 36.0782 57.6439C36.2173 57.8688 36.3102 58.1637 36.357 58.5287C36.4038 58.8937 36.3567 59.2496 36.2158 59.5965C36.075 59.9379 35.8208 60.2894 35.4533 60.6511C35.0969 61.0018 34.7316 61.2599 34.3574 61.4254C33.9832 61.5909 33.6318 61.6599 33.3033 61.6324C32.9749 61.5994 32.676 61.5045 32.4065 61.3476C32.1343 61.188 31.7955 60.9022 31.39 60.4901L29.7995 58.8739C29.3227 58.3894 29.0128 57.9436 28.8696 57.5364C28.7238 57.1265 28.7272 56.7011 28.8799 56.2604C29.0298 55.8169 29.2983 55.4047 29.6853 55.0238C30.1586 54.558 30.6374 54.2649 31.1218 54.1445C31.6062 54.0186 32.0562 54.0443 32.4719 54.2216C32.8876 54.3934 33.3599 54.748 33.8887 55.2854L34.612 56.0204ZM32.0329 56.7828L31.6342 56.3777C31.352 56.091 31.1545 55.9209 31.0417 55.8675C30.9289 55.8141 30.8251 55.834 30.7305 55.9272C30.6135 56.0422 30.5768 56.1497 30.6201 56.2494C30.6608 56.3465 30.8346 56.5509 31.1414 56.8627L31.5401 57.2678L32.0329 56.7828ZM34.0312 50.9443L34.6795 51.7367C34.4121 50.975 34.4959 50.35 34.9307 49.8618L36.85 51.8121C36.5409 52.1163 36.3551 52.3813 36.2926 52.6073C36.23 52.8333 36.256 53.0379 36.3705 53.2212C36.4823 53.4016 36.8026 53.7605 37.3314 54.2978L39.485 56.4862L37.7978 58.1466L32.344 52.6047L34.0312 50.9443ZM37.5294 45.1012L44.1833 51.8626L42.4251 53.5928L35.7712 46.8315L37.5294 45.1012ZM41.1016 43.9863L41.5738 44.5246C41.4963 44.2008 41.4959 43.9024 41.5727 43.6296C41.6495 43.3512 41.8034 43.0983 42.0345 42.8709C42.3241 42.586 42.6278 42.4213 42.9458 42.3769C43.2639 42.3325 43.5521 42.3886 43.8105 42.5454C44.0661 42.6994 44.4323 43.0186 44.9091 43.503L48.7312 47.3869L47.044 49.0473L43.2671 45.2093C42.8917 44.8279 42.6504 44.6078 42.5431 44.5489C42.4359 44.49 42.3252 44.5168 42.211 44.6291C42.0913 44.7469 42.0641 44.8696 42.1293 44.9972C42.1919 45.122 42.4286 45.3932 42.8396 45.8108L46.5262 49.5569L44.839 51.2173L39.3852 45.6754L41.1016 43.9863ZM44.9137 38.7796L45.7727 39.6525L46.2279 39.2045L47.091 40.0815L46.6358 40.5295L49.5538 43.4946C49.9127 43.8594 50.1308 44.0448 50.2081 44.051C50.2882 44.0544 50.4661 43.9204 50.7417 43.6492L51.6212 44.5429L50.9405 45.2128C50.5563 45.5909 50.267 45.8455 50.0726 45.9765C49.8754 46.1048 49.658 46.1735 49.4204 46.1826C49.18 46.189 48.9719 46.1334 48.7961 46.016C48.6175 45.8958 48.257 45.5601 47.7145 45.0088L44.9444 42.194L44.5811 42.5516L43.718 41.6745L44.0813 41.317L43.2224 40.4441L44.9137 38.7796ZM53.1129 37.8136L50.9287 39.9631L52.1082 41.1617C52.3548 41.4123 52.5318 41.5559 52.6393 41.5927C52.7467 41.6295 52.8519 41.5972 52.9549 41.4958C53.083 41.3698 53.1213 41.2389 53.0699 41.1031C53.0186 40.9618 52.8573 40.7534 52.586 40.4777L51.8668 39.7469L53.4663 38.1728L53.8691 38.5821C54.2061 38.9245 54.4427 39.2096 54.579 39.4371C54.7181 39.662 54.811 39.9569 54.8578 40.3219C54.9046 40.6869 54.8576 41.0428 54.7167 41.3898C54.5758 41.7311 54.3217 42.0827 53.9542 42.4443C53.5978 42.7951 53.2325 43.0532 52.8583 43.2187C52.484 43.3842 52.1327 43.4532 51.8042 43.4257C51.4757 43.3926 51.1768 43.2977 50.9074 43.1409C50.6352 42.9812 50.2963 42.6954 49.8908 42.2833L48.3003 40.6671C47.8236 40.1827 47.5136 39.7369 47.3705 39.3297C47.2246 38.9197 47.228 38.4943 47.3807 38.0536C47.5307 37.6101 47.7991 37.1979 48.1861 36.8171C48.6594 36.3513 49.1383 36.0582 49.6226 35.9378C50.107 35.8118 50.5571 35.8375 50.9727 36.0149C51.3885 36.1867 51.8607 36.5413 52.3895 37.0786L53.1129 37.8136ZM50.5337 38.5761L50.1351 38.171C49.8529 37.8842 49.6554 37.7141 49.5425 37.6607C49.4297 37.6074 49.326 37.6272 49.2313 37.7204C49.1144 37.8355 49.0776 37.9429 49.121 38.0427C49.1617 38.1397 49.3354 38.3441 49.6423 38.6559L50.0409 39.061L50.5337 38.5761ZM52.532 32.7375L53.1803 33.53C52.913 32.7682 52.9967 32.1432 53.4315 31.6551L55.3508 33.6054C55.0418 33.9095 54.856 34.1746 54.7934 34.4006C54.7308 34.6266 54.7568 34.8312 54.8713 35.0144C54.9832 35.1948 55.3035 35.5537 55.8323 36.0911L57.9858 38.2794L56.2986 39.9398L50.8448 34.3979L52.532 32.7375ZM55.0196 27.8891L55.8621 28.7452C55.5141 29.0877 55.3245 29.3071 55.2933 29.4036C55.2622 29.4945 55.3207 29.6151 55.4686 29.7654L55.6412 29.9408L56.3512 29.2422L57.2143 30.1192L56.8133 30.5137L61.2726 35.045L59.5853 36.7054L55.1261 32.1741L54.7795 32.5152L53.9164 31.6382L54.2631 31.2971C53.9041 30.9324 53.6769 30.6764 53.5814 30.5293C53.4859 30.3821 53.4403 30.2132 53.4446 30.0227C53.4489 29.8266 53.5155 29.6158 53.6444 29.3904C53.7733 29.1649 54.0256 28.8672 54.4015 28.4973L55.0196 27.8891ZM60.1614 29.455L58.5785 31.0126L58.2128 30.641C57.7908 30.2122 57.5149 29.8343 57.3849 29.5073C57.255 29.1748 57.2513 28.7729 57.3738 28.3015C57.4964 27.8302 57.7957 27.3602 58.2718 26.8917C58.8426 26.33 59.3727 26.0083 59.8623 25.9266C60.3491 25.8421 60.767 25.9187 61.1159 26.1563C61.462 26.3911 62.0858 26.9665 62.9873 27.8824L65.7245 30.6638L64.0832 32.279L63.5982 31.7862C63.6897 32.0853 63.7027 32.3657 63.6371 32.6276C63.5715 32.884 63.4259 33.1231 63.2004 33.3451C62.9053 33.6355 62.553 33.8205 62.1435 33.9001C61.7341 33.9742 61.2541 33.7314 60.7034 33.1718L60.2554 32.7166C59.8471 32.3017 59.6345 31.9547 59.6174 31.6756C59.6003 31.3965 59.752 30.9019 60.0726 30.1918C60.4129 29.4294 60.5656 28.9914 60.5306 28.8779C60.4956 28.7644 60.3644 28.592 60.137 28.361C59.852 28.0714 59.6448 27.9054 59.5153 27.8629C59.3859 27.8149 59.271 27.8402 59.1708 27.9389C59.0567 28.0512 59.0227 28.1587 59.0688 28.2612C59.1122 28.361 59.2859 28.5655 59.5901 28.8745L60.1614 29.455ZM61.4439 29.689C61.3684 30.1525 61.3741 30.4729 61.4611 30.6504C61.5508 30.8251 61.719 31.0378 61.9656 31.2884C62.2478 31.5751 62.4481 31.7425 62.5665 31.7904C62.6877 31.8356 62.8039 31.8033 62.9153 31.6937C63.0211 31.5896 63.0578 31.4905 63.0254 31.3963C62.9931 31.2966 62.8399 31.1075 62.5659 30.8291L61.4439 29.689ZM66.6396 22.9729L65.0484 24.5387L64.4196 23.8997C64.2004 23.677 64.0344 23.5445 63.9215 23.5021C63.8058 23.457 63.6993 23.4824 63.6018 23.5783C63.5044 23.6742 63.4732 23.7734 63.5083 23.8759C63.5434 23.9784 63.6801 24.1507 63.9185 24.3929L66.4913 27.0073C66.6858 27.205 66.8574 27.3292 67.0062 27.3802C67.1522 27.4283 67.2739 27.4044 67.3714 27.3085C67.4855 27.1962 67.5114 27.0693 67.449 26.9279C67.3894 26.7838 67.2185 26.5684 66.9363 26.2816L66.2869 25.6218L67.7904 24.1422C68.2232 24.5876 68.5339 24.9368 68.7225 25.1897C68.9111 25.437 69.0412 25.7557 69.1126 26.1457C69.1841 26.5303 69.1521 26.9071 69.0165 27.2761C68.8783 27.6424 68.6226 28.0091 68.2495 28.3762C67.7734 28.8448 67.3167 29.1353 66.8794 29.2478C66.4393 29.3575 66.0169 29.3237 65.6123 29.1465C65.2077 28.9637 64.7397 28.6022 64.2081 28.0621L62.6587 26.4877C62.1957 26.0171 61.8936 25.6156 61.7527 25.283C61.6117 24.9504 61.6039 24.5387 61.7294 24.0481C61.8521 23.5546 62.1349 23.0901 62.5775 22.6544C63.0174 22.2215 63.4851 21.9449 63.9805 21.8246C64.4759 21.7042 64.9148 21.7354 65.2973 21.918C65.6798 22.1006 66.1272 22.4522 66.6396 22.9729ZM71.7306 19.4918L69.5465 21.6413L70.726 22.8399C70.9726 23.0904 71.1496 23.2341 71.257 23.2709C71.3645 23.3076 71.4697 23.2753 71.5727 23.174C71.7008 23.0479 71.7391 22.917 71.6877 22.7813C71.6364 22.64 71.4751 22.4315 71.2038 22.1559L70.4846 21.425L72.0841 19.851L72.4869 20.2602C72.8239 20.6027 73.0605 20.8877 73.1968 21.1153C73.3359 21.3402 73.4288 21.6351 73.4756 22.0001C73.5224 22.3651 73.4754 22.721 73.3345 23.0679C73.1936 23.4093 72.9394 23.7608 72.5719 24.1225C72.2156 24.4732 71.8503 24.7313 71.476 24.8968C71.1018 25.0623 70.7505 25.1313 70.422 25.1038C70.0935 25.0708 69.7946 24.9759 69.5251 24.819C69.253 24.6594 68.9141 24.3736 68.5086 23.9615L66.9181 22.3453C66.4413 21.8609 66.1314 21.415 65.9883 21.0078C65.8424 20.5979 65.8458 20.1725 65.9985 19.7318C66.1484 19.2883 66.4169 18.8761 66.8039 18.4952C67.2772 18.0294 67.7561 17.7363 68.2404 17.6159C68.7248 17.49 69.1748 17.5157 69.5905 17.693C70.0062 17.8649 70.4785 18.2194 71.0073 18.7568L71.7306 19.4918ZM69.1515 20.2542L68.7529 19.8491C68.4707 19.5624 68.2731 19.3923 68.1603 19.3389C68.0475 19.2855 67.9437 19.3054 67.8491 19.3986C67.7322 19.5136 67.6954 19.6211 67.7388 19.7209C67.7794 19.8179 67.9532 20.0223 68.2601 20.3341L68.6587 20.7392L69.1515 20.2542Z" fill="#083341"/>
<path d="M30.1106 74.5877L34.5575 79.1064C35.0617 79.6187 35.3998 79.9957 35.5719 80.2374C35.7412 80.4763 35.852 80.7865 35.9042 81.1681C35.9536 81.5469 35.8995 81.9263 35.7417 82.3062C35.5841 82.6806 35.3228 83.0473 34.9581 83.4062C34.5544 83.8035 34.1323 84.0874 33.6917 84.2579C33.2512 84.4284 32.8488 84.4818 32.4847 84.4181C32.1206 84.3544 31.8082 84.2179 31.5475 84.0087C31.284 83.7967 30.7769 83.3092 30.0262 82.5463L26.0889 78.5455L27.8471 76.8152L32.8365 81.8852C33.1269 82.1803 33.3285 82.3546 33.4414 82.408C33.5542 82.4558 33.6594 82.4318 33.7568 82.3359C33.8682 82.2263 33.8954 82.1119 33.8383 81.9927C33.7813 81.8679 33.587 81.6371 33.2555 81.3002L28.3524 76.3179L30.1106 74.5877ZM37.1293 73.5666L35.6342 75.038L35.3383 74.7373C35.0862 74.4811 34.912 74.3347 34.8156 74.298C34.7193 74.2558 34.6127 74.2923 34.4957 74.4073C34.4011 74.5005 34.3616 74.6024 34.3773 74.713C34.3902 74.8208 34.4583 74.9374 34.5816 75.0627C34.7488 75.2325 34.8832 75.3468 34.9849 75.4057C35.0867 75.459 35.2426 75.4754 35.4527 75.455C35.6656 75.4318 36.0448 75.3299 36.5905 75.1492C37.3161 74.9064 37.8596 74.8155 38.221 74.8764C38.5823 74.9373 38.9617 75.1696 39.3589 75.5733C39.8028 76.0243 40.08 76.4229 40.1905 76.7691C40.2982 77.1125 40.2759 77.4824 40.1236 77.879C39.9713 78.27 39.7016 78.6559 39.3146 79.0368C38.8859 79.4587 38.4526 79.7536 38.0148 79.9213C37.5798 80.0863 37.1929 80.1108 36.8541 79.9949C36.5153 79.8789 36.1184 79.5898 35.6636 79.1277L35.4006 78.8604L36.8957 77.3891L37.2409 77.7399C37.5341 78.0378 37.7426 78.2135 37.8665 78.2669C37.9931 78.3177 38.1122 78.2882 38.2235 78.1786C38.3432 78.0608 38.398 77.9494 38.3878 77.8443C38.3748 77.7365 38.2738 77.5865 38.0848 77.3944C37.8245 77.1299 37.6308 76.9944 37.5038 76.9879C37.374 76.9841 36.8524 77.1083 35.9388 77.3607C35.1692 77.57 34.6192 77.6153 34.2887 77.4966C33.9554 77.3752 33.6353 77.1585 33.3285 76.8467C32.8928 76.404 32.6307 76.0207 32.5422 75.6968C32.4509 75.3702 32.4883 75.0128 32.6543 74.6246C32.8232 74.2337 33.0928 73.8561 33.4631 73.4917C33.8306 73.13 34.189 72.8705 34.5383 72.7131C34.8876 72.5501 35.2059 72.4781 35.493 72.497C35.7829 72.5131 36.0062 72.5729 36.1628 72.6764C36.3222 72.7771 36.5389 72.9666 36.8129 73.2451L37.1293 73.5666ZM42.612 70.3332L40.4278 72.4826L41.6074 73.6812C41.854 73.9318 42.031 74.0755 42.1384 74.1122C42.2458 74.149 42.3511 74.1167 42.4541 74.0153C42.5821 73.8893 42.6205 73.7584 42.5691 73.6226C42.5177 73.4814 42.3564 73.2729 42.0852 72.9973L41.366 72.2664L42.9655 70.6923L43.3682 71.1016C43.7052 71.4441 43.9419 71.7291 44.0782 71.9567C44.2173 72.1815 44.3102 72.4765 44.357 72.8414C44.4038 73.2064 44.3567 73.5624 44.2158 73.9093C44.075 74.2507 43.8208 74.6022 43.4533 74.9639C43.0969 75.3146 42.7316 75.5727 42.3574 75.7382C41.9832 75.9037 41.6318 75.9727 41.3033 75.9452C40.9749 75.9122 40.676 75.8173 40.4065 75.6604C40.1343 75.5008 39.7955 75.2149 39.39 74.8029L37.7995 73.1867C37.3227 72.7022 37.0128 72.2564 36.8696 71.8492C36.7238 71.4392 36.7272 71.0139 36.8799 70.5731C37.0298 70.1296 37.2983 69.7174 37.6853 69.3366C38.1586 68.8708 38.6374 68.5777 39.1218 68.4573C39.6062 68.3313 40.0562 68.357 40.4719 68.5344C40.8876 68.7062 41.3599 69.0608 41.8887 69.5982L42.612 70.3332ZM40.0329 71.0956L39.6342 70.6905C39.352 70.4037 39.1545 70.2337 39.0417 70.1803C38.9289 70.1269 38.8251 70.1468 38.7305 70.2399C38.6135 70.355 38.5768 70.4624 38.6201 70.5622C38.6608 70.6592 38.8346 70.8636 39.1414 71.1755L39.5401 71.5806L40.0329 71.0956ZM42.0312 65.2571L42.6795 66.0495C42.4121 65.2878 42.4959 64.6628 42.9307 64.1746L44.85 66.1249C44.5409 66.429 44.3551 66.6941 44.2926 66.9201C44.23 67.1461 44.256 67.3507 44.3705 67.5339C44.4823 67.7144 44.8026 68.0733 45.3314 68.6106L47.485 70.799L45.7978 72.4594L40.344 66.9175L42.0312 65.2571ZM43.7712 61.1443L46.7029 58.2591L48.0345 59.6122L46.861 60.7671L48.1227 62.0492L49.2211 60.9683L50.4869 62.2546L49.3886 63.3355L50.8517 64.8223L52.1422 63.5523L53.4738 64.9054L50.4251 67.9056L43.7712 61.1443ZM51.8203 55.6235L53.7536 58.933L57.4161 61.0257L55.7749 62.6409C54.8955 62.0703 54.1552 61.5631 53.5538 61.119C54.0891 61.8857 54.5858 62.6327 55.044 63.3601L53.6325 64.7492L51.511 61.14L48.1786 59.2073L49.5902 57.8182C50.9281 58.7266 51.6808 59.2492 51.8482 59.3859C51.0809 58.2831 50.5718 57.5208 50.3211 57.099L51.8203 55.6235ZM53.9043 53.5727L54.3559 54.0901C54.3117 53.7445 54.3322 53.4339 54.4173 53.1583C54.5023 52.8828 54.6521 52.6395 54.8664 52.4286C55.1281 52.171 55.4235 52.0201 55.7526 51.9757C56.0817 51.9259 56.3603 51.9696 56.5885 52.1067C56.8167 52.2439 57.1472 52.5325 57.5801 52.9724L59.8775 55.3069C60.3735 55.8108 60.6963 56.2001 60.846 56.4748C60.9958 56.7439 61.0404 57.0343 60.9799 57.346C60.9194 57.6521 60.7583 57.9339 60.4966 58.1915C60.2878 58.397 60.0464 58.5387 59.7723 58.6166C59.4982 58.6945 59.1929 58.71 58.8562 58.6631L60.1056 59.9327L58.4184 61.5931L52.1879 55.2619L53.9043 53.5727ZM55.971 54.7121C55.634 54.3696 55.4173 54.1746 55.321 54.1268C55.2247 54.0791 55.1195 54.1114 55.0054 54.2237C54.894 54.3333 54.8627 54.4463 54.9115 54.5627C54.9631 54.6764 55.1464 54.8933 55.4615 55.2135L57.7219 57.5104C58.0507 57.8445 58.2729 58.0369 58.3885 58.0876C58.5041 58.1382 58.6176 58.1087 58.729 57.9991C58.8376 57.8923 58.8674 57.7889 58.8185 57.6891C58.7696 57.5838 58.5999 57.3835 58.3095 57.0884L55.971 54.7121ZM63.2762 49.9975L61.092 52.147L62.2715 53.3456C62.5181 53.5961 62.6951 53.7398 62.8026 53.7766C62.91 53.8133 63.0152 53.781 63.1182 53.6797C63.2463 53.5536 63.2846 53.4227 63.2332 53.287C63.1819 53.1457 63.0206 52.9372 62.7493 52.6616L62.0301 51.9307L63.6296 50.3567L64.0324 50.7659C64.3694 51.1084 64.606 51.3934 64.7423 51.621C64.8814 51.8459 64.9743 52.1408 65.0211 52.5058C65.0679 52.8708 65.0209 53.2267 64.88 53.5736C64.7391 53.915 64.485 54.2665 64.1175 54.6282C63.7611 54.9789 63.3958 55.237 63.0216 55.4025C62.6473 55.568 62.296 55.637 61.9675 55.6095C61.639 55.5765 61.3401 55.4816 61.0707 55.3247C60.7985 55.1651 60.4596 54.8793 60.0541 54.4672L58.4636 52.851C57.9869 52.3665 57.6769 51.9207 57.5338 51.5135C57.3879 51.1036 57.3913 50.6782 57.544 50.2375C57.694 49.7939 57.9624 49.3818 58.3494 49.0009C58.8227 48.5351 59.3016 48.242 59.7859 48.1216C60.2703 47.9957 60.7204 48.0214 61.136 48.1987C61.5518 48.3705 62.024 48.7251 62.5528 49.2625L63.2762 49.9975ZM60.697 50.7599L60.2984 50.3548C60.0162 50.0681 59.8187 49.898 59.7058 49.8446C59.593 49.7912 59.4893 49.8111 59.3946 49.9043C59.2777 50.0193 59.2409 50.1268 59.2843 50.2265C59.325 50.3236 59.4987 50.528 59.8056 50.8398L60.2042 51.2449L60.697 50.7599ZM62.6953 44.9214L63.3436 45.7138C63.0763 44.9521 63.16 44.3271 63.5948 43.8389L65.5141 45.7892C65.2051 46.0934 65.0193 46.3584 64.9567 46.5844C64.8941 46.8104 64.9201 47.015 65.0347 47.1983C65.1465 47.3787 65.4668 47.7376 65.9956 48.2749L68.1491 50.4633L66.4619 52.1237L61.0081 46.5818L62.6953 44.9214ZM64.6107 40.636L65.4779 41.5172L63.7406 43.2269L62.8734 42.3457L64.6107 40.636ZM65.8108 41.8554L71.2646 47.3973L69.5273 49.107L64.0735 43.5651L65.8108 41.8554ZM73.0653 40.3639L70.8811 42.5134L72.0607 43.712C72.3073 43.9626 72.4843 44.1062 72.5917 44.143C72.6991 44.1798 72.8044 44.1475 72.9074 44.0461C73.0355 43.9201 73.0738 43.7892 73.0224 43.6534C72.9711 43.5121 72.8098 43.3037 72.5385 43.028L71.8193 42.2972L73.4188 40.7231L73.8215 41.1324C74.1586 41.4748 74.3952 41.7599 74.5315 41.9874C74.6706 42.2123 74.7635 42.5072 74.8103 42.8722C74.8571 43.2372 74.81 43.5932 74.6692 43.9401C74.5283 44.2815 74.2741 44.633 73.9066 44.9946C73.5502 45.3454 73.1849 45.6035 72.8107 45.769C72.4365 45.9345 72.0851 46.0035 71.7567 45.976C71.4282 45.943 71.1293 45.848 70.8598 45.6912C70.5876 45.5316 70.2488 45.2457 69.8433 44.8337L68.2528 43.2174C67.776 42.733 67.4661 42.2872 67.3229 41.88C67.1771 41.47 67.1805 41.0446 67.3332 40.6039C67.4831 40.1604 67.7516 39.7482 68.1386 39.3674C68.6119 38.9016 69.0907 38.6085 69.5751 38.4881C70.0595 38.3621 70.5095 38.3878 70.9252 38.5652C71.3409 38.737 71.8132 39.0916 72.342 39.6289L73.0653 40.3639ZM70.4862 41.1264L70.0876 40.7213C69.8053 40.4345 69.6078 40.2644 69.495 40.211C69.3822 40.1577 69.2784 40.1775 69.1838 40.2707C69.0668 40.3858 69.0301 40.4932 69.0735 40.593C69.1141 40.69 69.2879 40.8944 69.5948 41.2062L69.9934 41.6113L70.4862 41.1264ZM72.5137 35.2591L72.9859 35.7974C72.9084 35.4736 72.908 35.1752 72.9848 34.9024C73.0616 34.624 73.2155 34.3711 73.4466 34.1437C73.7362 33.8588 74.04 33.6941 74.358 33.6497C74.676 33.6053 74.9642 33.6614 75.2226 33.8182C75.4782 33.9722 75.8444 34.2914 76.3212 34.7758L80.1434 38.6597L78.4562 40.3201L74.6792 36.4821C74.3038 36.1007 74.0625 35.8806 73.9552 35.8217C73.848 35.7628 73.7373 35.7896 73.6231 35.9019C73.5034 36.0197 73.4762 36.1424 73.5415 36.27C73.604 36.3948 73.8408 36.666 74.2517 37.0836L77.9383 40.8297L76.2511 42.4901L70.7973 36.9482L72.5137 35.2591ZM81.0627 30.9646L79.4715 32.5305L78.8427 31.8915C78.6235 31.6688 78.4575 31.5363 78.3446 31.4939C78.2289 31.4488 78.1224 31.4742 78.0249 31.5701C77.9275 31.666 77.8963 31.7652 77.9314 31.8677C77.9665 31.9701 78.1032 32.1425 78.3416 32.3847L80.9144 34.9991C81.1089 35.1967 81.2805 35.321 81.4293 35.3719C81.5753 35.4201 81.697 35.3962 81.7945 35.3003C81.9086 35.1879 81.9345 35.0611 81.8721 34.9197C81.8125 34.7756 81.6416 34.5602 81.3594 34.2734L80.71 33.6135L82.2135 32.134C82.6463 32.5794 82.957 32.9286 83.1456 33.1814C83.3342 33.4288 83.4643 33.7475 83.5357 34.1375C83.6072 34.522 83.5752 34.8988 83.4396 35.2679C83.3014 35.6342 83.0457 36.0009 82.6726 36.368C82.1965 36.8365 81.7398 37.1271 81.3025 37.2396C80.8624 37.3493 80.44 37.3155 80.0354 37.1383C79.6308 36.9555 79.1628 36.594 78.6312 36.0539L77.0818 34.4794C76.6187 34.0089 76.3167 33.6074 76.1758 33.2748C76.0348 32.9422 76.027 32.5305 76.1525 32.0399C76.2752 31.5464 76.5579 31.0818 77.0006 30.6462C77.4405 30.2133 77.9082 29.9367 78.4036 29.8163C78.899 29.696 79.3379 29.7272 79.7204 29.9098C80.1029 30.0924 80.5503 30.444 81.0627 30.9646ZM86.1537 27.4836L83.9696 29.6331L85.1491 30.8316C85.3957 31.0822 85.5727 31.2259 85.6801 31.2627C85.7876 31.2994 85.8928 31.2671 85.9958 31.1657C86.1239 31.0397 86.1622 30.9088 86.1108 30.7731C86.0595 30.6318 85.8982 30.4233 85.6269 30.1477L84.9077 29.4168L86.5072 27.8427L86.91 28.252C87.247 28.5945 87.4836 28.8795 87.6199 29.1071C87.759 29.3319 87.8519 29.6269 87.8987 29.9919C87.9455 30.3568 87.8985 30.7128 87.7576 31.0597C87.6167 31.4011 87.3625 31.7526 86.995 32.1143C86.6387 32.465 86.2734 32.7231 85.8991 32.8886C85.5249 33.0541 85.1735 33.1231 84.8451 33.0956C84.5166 33.0626 84.2177 32.9677 83.9482 32.8108C83.6761 32.6512 83.3372 32.3654 82.9317 31.9533L81.3412 30.3371C80.8644 29.8526 80.5545 29.4068 80.4114 28.9996C80.2655 28.5896 80.2689 28.1643 80.4216 27.7236C80.5715 27.28 80.84 26.8679 81.227 26.487C81.7003 26.0212 82.1792 25.7281 82.6635 25.6077C83.1479 25.4818 83.5979 25.5075 84.0136 25.6848C84.4293 25.8566 84.9016 26.2112 85.4304 26.7486L86.1537 27.4836ZM83.5746 28.246L83.176 27.8409C82.8938 27.5541 82.6962 27.3841 82.5834 27.3307C82.4706 27.2773 82.3668 27.2972 82.2722 27.3903C82.1552 27.5054 82.1185 27.6128 82.1619 27.7126C82.2025 27.8096 82.3763 28.0141 82.6832 28.3259L83.0818 28.731L83.5746 28.246Z" fill="#66D5DC"/>
<defs>
<filter id="filter0_d" x="53.9098" y="64.5019" width="44.1055" height="37.0566" filterUnits="userSpaceOnUse" color-interpolation-filters="sRGB">
<feFlood flood-opacity="0" result="BackgroundImageFix"/>
<feColorMatrix in="SourceAlpha" type="matrix" values="0 0 0 0 0 0 0 0 0 0 0 0 0 0 0 0 0 0 127 0"/>
<feOffset dy="4"/>
<feGaussianBlur stdDeviation="2"/>
<feColorMatrix type="matrix" values="0 0 0 0 0 0 0 0 0 0 0 0 0 0 0 0 0 0 0.25 0"/>
<feBlend mode="normal" in2="BackgroundImageFix" result="effect1_dropShadow"/>
<feBlend mode="normal" in="SourceGraphic" in2="effect1_dropShadow" result="shape"/>
</filter>
<filter id="filter1_d" x="3.42578" y="8.50192" width="35.1934" height="37.0566" filterUnits="userSpaceOnUse" color-interpolation-filters="sRGB">
<feFlood flood-opacity="0" result="BackgroundImageFix"/>
<feColorMatrix in="SourceAlpha" type="matrix" values="0 0 0 0 0 0 0 0 0 0 0 0 0 0 0 0 0 0 127 0"/>
<feOffset dy="4"/>
<feGaussianBlur stdDeviation="2"/>
<feColorMatrix type="matrix" values="0 0 0 0 0 0 0 0 0 0 0 0 0 0 0 0 0 0 0.25 0"/>
<feBlend mode="normal" in2="BackgroundImageFix" result="effect1_dropShadow"/>
<feBlend mode="normal" in="SourceGraphic" in2="effect1_dropShadow" result="shape"/>
</filter>
</defs>
</svg>
