<svg width="350" height="101" viewBox="0 0 350 101" fill="none" xmlns="http://www.w3.org/2000/svg">
<path d="M0 3.05176e-05H350V100H0V3.05176e-05Z" fill="#66D5DC"/>
<path d="M350 3.05176e-05H0V100L175 50L350 3.05176e-05Z" fill="#66D5DC"/>
<path d="M0 100H350V0L175 50L0 100Z" fill="#083341"/>
<g filter="url(#filter0_d)">
<path d="M313.398 53.0547V78.4141C313.398 81.2891 313.305 83.3125 313.117 84.4844C312.93 85.6406 312.375 86.8359 311.453 88.0703C310.531 89.2891 309.312 90.2188 307.797 90.8594C306.297 91.4844 304.523 91.7969 302.477 91.7969C300.211 91.7969 298.211 91.4219 296.477 90.6719C294.742 89.9219 293.445 88.9453 292.586 87.7422C291.727 86.5391 291.219 85.2734 291.062 83.9453C290.906 82.6016 290.828 79.7891 290.828 75.5078V53.0547H300.695V81.5078C300.695 83.1641 300.781 84.2266 300.953 84.6953C301.141 85.1484 301.508 85.375 302.055 85.375C302.68 85.375 303.078 85.125 303.25 84.625C303.438 84.1094 303.531 82.9062 303.531 81.0156V53.0547H313.398ZM337.211 53.0547L333.766 69.8359L338.969 91H329.828C328.734 87.2188 327.734 82.6172 326.828 77.1953C326.578 79.5859 326.234 82.125 325.797 84.8125L324.859 91H315.25L318.812 69.8359L315.25 53.0547H324.789C324.961 54.1016 325.305 55.8438 325.82 58.2812C326.227 60.1406 326.562 61.8438 326.828 63.3906L328.938 53.0547H337.211Z" fill="white"/>
</g>
<g filter="url(#filter1_d)">
<path d="M33.3984 11.0547V36.4141C33.3984 39.2891 33.3047 41.3125 33.1172 42.4844C32.9297 43.6406 32.375 44.8359 31.4531 46.0703C30.5312 47.2891 29.3125 48.2188 27.7969 48.8594C26.2969 49.4844 24.5234 49.7969 22.4766 49.7969C20.2109 49.7969 18.2109 49.4219 16.4766 48.6719C14.7422 47.9219 13.4453 46.9453 12.5859 45.7422C11.7266 44.5391 11.2188 43.2734 11.0625 41.9453C10.9062 40.6016 10.8281 37.7891 10.8281 33.5078V11.0547H20.6953V39.5078C20.6953 41.1641 20.7812 42.2266 20.9531 42.6953C21.1406 43.1484 21.5078 43.375 22.0547 43.375C22.6797 43.375 23.0781 43.125 23.25 42.625C23.4375 42.1094 23.5312 40.9062 23.5312 39.0156V11.0547H33.3984ZM47.0859 11.0547V49H37.2188V11.0547H47.0859Z" fill="white"/>
</g>
<path d="M101.096 46.0264L104.461 58.2515C104.842 59.6374 105.065 60.6253 105.131 61.2151C105.194 61.7974 105.085 62.4472 104.804 63.1646C104.521 63.8744 104.057 64.4843 103.412 64.9942C102.771 65.4946 101.958 65.8805 100.971 66.1521C99.8791 66.4527 98.8652 66.5373 97.9296 66.4059C96.994 66.2744 96.2392 65.9757 95.6653 65.5098C95.0914 65.0438 94.6787 64.501 94.4271 63.8815C94.1735 63.2545 93.7627 61.909 93.1946 59.8451L90.2155 49.021L94.9722 47.7118L98.7474 61.4284C98.9672 62.2268 99.1496 62.7276 99.2946 62.9308C99.4451 63.1243 99.6522 63.1848 99.9159 63.1123C100.217 63.0293 100.376 62.8559 100.392 62.5921C100.414 62.3187 100.3 61.7262 100.049 60.8148L96.3393 47.3356L101.096 46.0264ZM114.35 51.081L110.305 52.1943L110.081 51.3808C109.89 50.6879 109.729 50.2624 109.596 50.1044C109.469 49.9368 109.247 49.8966 108.931 49.9836C108.675 50.0541 108.507 50.1936 108.426 50.4021C108.344 50.6031 108.349 50.873 108.442 51.212C108.569 51.6715 108.692 52.0021 108.813 52.204C108.939 52.3962 109.195 52.5769 109.582 52.7459C109.976 52.9129 110.738 53.1043 111.867 53.3203C113.371 53.6032 114.409 53.9738 114.981 54.4323C115.552 54.8907 115.989 55.666 116.289 56.7582C116.625 57.9785 116.721 58.9447 116.577 59.657C116.43 60.3617 116.031 60.9862 115.378 61.5304C114.732 62.065 113.885 62.4764 112.838 62.7645C111.678 63.0838 110.634 63.1767 109.705 63.0432C108.785 62.9076 108.085 62.5735 107.606 62.0408C107.128 61.5082 106.716 60.6167 106.372 59.3663L106.173 58.6432L110.218 57.5299L110.479 58.479C110.701 59.2849 110.894 59.795 111.058 60.009C111.23 60.221 111.466 60.2856 111.768 60.2027C112.092 60.1135 112.296 59.9722 112.38 59.7788C112.463 59.5779 112.433 59.2175 112.289 58.6978C112.093 57.9822 111.886 57.5568 111.671 57.4217C111.448 57.2886 110.416 56.9974 108.574 56.548C107.026 56.1638 106.021 55.7071 105.559 55.1778C105.096 54.641 104.748 53.9508 104.516 53.1072C104.186 51.9095 104.101 50.9847 104.262 50.3327C104.421 49.6731 104.835 49.0853 105.503 48.5692C106.179 48.0509 107.017 47.654 108.019 47.3782C109.014 47.1046 109.892 47.0004 110.656 47.0658C111.425 47.1216 112.051 47.3058 112.534 47.6185C113.025 47.9291 113.356 48.2511 113.529 48.5844C113.709 48.9156 113.903 49.4578 114.111 50.2111L114.35 51.081ZM127.077 50.7749L121.167 52.4013L122.06 55.644C122.246 56.3219 122.416 56.7453 122.567 56.9142C122.719 57.0831 122.935 57.1292 123.213 57.0525C123.56 56.9571 123.754 56.7658 123.797 56.4786C123.845 56.1818 123.766 55.6606 123.561 54.9149L123.017 52.9376L127.344 51.7466L127.649 52.8538C127.904 53.7803 128.039 54.5087 128.056 55.039C128.08 55.5673 127.955 56.1729 127.681 56.856C127.407 57.5391 126.978 58.115 126.394 58.5837C125.815 59.0428 125.029 59.4091 124.034 59.6828C123.07 59.9481 122.181 60.0431 121.366 59.9675C120.551 59.892 119.87 59.6702 119.323 59.3022C118.782 58.9245 118.352 58.4675 118.034 57.931C117.714 57.387 117.401 56.5576 117.094 55.4428L115.891 51.0703C115.53 49.7596 115.423 48.679 115.57 47.8283C115.714 46.9701 116.135 46.2304 116.831 45.6094C117.525 44.9808 118.395 44.5224 119.442 44.2343C120.723 43.8818 121.845 43.8364 122.808 44.0979C123.777 44.3499 124.538 44.8333 125.091 45.548C125.65 46.2531 126.129 47.3326 126.529 48.7863L127.077 50.7749ZM121.829 49.5938L121.527 48.4979C121.314 47.722 121.134 47.2325 120.989 47.0294C120.844 46.8262 120.644 46.7599 120.388 46.8304C120.071 46.9174 119.902 47.0693 119.881 47.2858C119.857 47.4949 119.962 48.0212 120.194 48.8648L120.496 49.9608L121.829 49.5938ZM131.008 41.3428L131.368 43.3585C131.643 41.7675 132.398 40.7575 133.633 40.3284L135.085 45.6049C134.249 45.835 133.667 46.1169 133.337 46.4507C133.008 46.7845 132.854 47.1672 132.875 47.5988C132.895 48.0229 133.105 48.9618 133.505 50.4156L135.134 56.3361L130.57 57.5924L126.443 42.5992L131.008 41.3428ZM142.81 34.5452L147.845 52.8376L143.088 54.1468L138.054 35.8544L142.81 34.5452ZM150.136 36.078L150.436 37.4782C150.616 36.8371 150.906 36.3157 151.306 35.9139C151.712 35.5025 152.227 35.2108 152.852 35.0387C153.636 34.8231 154.327 34.8315 154.925 35.0637C155.524 35.296 155.973 35.6749 156.271 36.2004C156.568 36.7184 156.896 37.6327 157.257 38.9434L160.149 49.4511L155.585 50.7074L152.727 40.324C152.443 39.2921 152.236 38.6724 152.106 38.4651C151.976 38.2578 151.756 38.1967 151.448 38.2817C151.124 38.3708 150.957 38.5586 150.946 38.845C150.934 39.1239 151.083 39.8283 151.394 40.9582L154.184 51.093L149.619 52.3494L145.492 37.3561L150.136 36.078ZM161.867 30.6979L162.517 33.0593L163.749 32.7203L164.402 35.093L163.17 35.432L165.378 43.454C165.65 44.4407 165.85 44.9771 165.979 45.0632C166.116 45.1471 166.557 45.0865 167.302 44.8812L167.968 47.2991L166.126 47.806C165.087 48.0921 164.333 48.2549 163.866 48.2944C163.397 48.3263 162.95 48.2345 162.526 48.019C162.1 47.7959 161.791 47.4961 161.598 47.1197C161.403 46.7358 161.101 45.7981 160.69 44.3067L158.594 36.6914L157.611 36.962L156.958 34.5893L157.941 34.3187L157.291 31.9573L161.867 30.6979ZM177.129 36.9987L171.22 38.6251L172.113 41.8678C172.299 42.5457 172.469 42.9691 172.62 43.138C172.772 43.3069 172.987 43.353 173.266 43.2763C173.613 43.1809 173.807 42.9896 173.85 42.7024C173.898 42.4056 173.819 41.8844 173.614 41.1387L173.069 39.1614L177.397 37.9704L177.702 39.0776C177.957 40.0041 178.092 40.7325 178.109 41.2628C178.132 41.7911 178.007 42.3967 177.734 43.0798C177.46 43.7629 177.031 44.3388 176.447 44.8075C175.868 45.2666 175.082 45.6329 174.087 45.9066C173.123 46.172 172.234 46.2669 171.419 46.1913C170.604 46.1158 169.923 45.894 169.376 45.526C168.834 45.1483 168.405 44.6913 168.087 44.1548C167.767 43.6108 167.454 42.7814 167.147 41.6666L165.943 37.2941C165.583 35.9834 165.476 34.9028 165.622 34.0521C165.767 33.1939 166.187 32.4542 166.883 31.8332C167.578 31.2046 168.448 30.7462 169.495 30.4581C170.776 30.1056 171.897 30.0602 172.861 30.3218C173.83 30.5737 174.591 31.0571 175.144 31.7718C175.703 32.4769 176.182 33.5564 176.582 35.0101L177.129 36.9987ZM171.882 35.8177L171.58 34.7217C171.367 33.9459 171.187 33.4563 171.042 33.2532C170.897 33.05 170.697 32.9837 170.44 33.0542C170.124 33.1412 169.955 33.2931 169.934 33.5096C169.91 33.7187 170.015 34.245 170.247 35.0886L170.549 36.1846L171.882 35.8177ZM181.06 27.5666L181.421 29.5823C181.696 27.9913 182.451 26.9813 183.686 26.5522L185.138 31.8287C184.302 32.0588 183.719 32.3407 183.39 32.6745C183.06 33.0083 182.906 33.391 182.928 33.8226C182.948 34.2467 183.157 35.1857 183.557 36.6394L185.187 42.5599L180.622 43.8162L176.496 28.823L181.06 27.5666ZM190.129 21.5215L190.766 23.8377C189.825 24.0969 189.28 24.2955 189.132 24.4336C188.989 24.562 188.973 24.8296 189.085 25.2364L189.216 25.7109L191.137 25.1823L191.79 27.555L190.705 27.8535L194.079 40.1125L189.514 41.3688L186.14 29.1099L185.202 29.368L184.549 26.9953L185.487 26.7371C185.216 25.7504 185.068 25.082 185.045 24.7319C185.021 24.3818 185.106 24.0424 185.299 23.7138C185.498 23.3755 185.82 23.0722 186.264 22.804C186.709 22.5357 187.44 22.2616 188.457 21.9818L190.129 21.5215ZM197.584 29.2661L193.302 30.4447L193.025 29.4391C192.706 28.2792 192.592 27.3503 192.684 26.6525C192.781 25.9452 193.166 25.2396 193.839 24.5356C194.512 23.8317 195.493 23.3025 196.781 22.948C198.325 22.523 199.565 22.4777 200.499 22.8119C201.432 23.1386 202.087 23.6794 202.465 24.4343C202.841 25.1817 203.37 26.7945 204.052 29.2726L206.123 36.7975L201.683 38.0196L201.316 36.6864C201.184 37.2979 200.934 37.8004 200.564 38.1939C200.2 38.5778 199.713 38.8537 199.102 39.0216C198.304 39.2414 197.508 39.2213 196.716 38.9614C195.928 38.6919 195.326 37.8001 194.91 36.2861L194.571 35.0546C194.262 33.9322 194.229 33.119 194.471 32.6148C194.713 32.1106 195.46 31.3945 196.711 30.4666C198.049 29.4665 198.742 28.8503 198.791 28.6179C198.841 28.3855 198.78 27.9567 198.608 27.3315C198.392 26.5481 198.192 26.0562 198.007 25.8559C197.828 25.646 197.602 25.5783 197.331 25.653C197.022 25.738 196.858 25.8925 196.839 26.1166C196.817 26.3332 196.922 26.8595 197.152 27.6956L197.584 29.2661ZM199.596 30.9244C199.013 31.6603 198.711 32.2256 198.69 32.6204C198.676 33.013 198.763 33.5483 198.949 34.2262C199.163 35.0021 199.35 35.4895 199.51 35.6885C199.678 35.8855 199.912 35.9425 200.213 35.8595C200.5 35.7808 200.66 35.6433 200.695 35.4473C200.736 35.2416 200.653 34.7622 200.445 34.0089L199.596 30.9244ZM215.215 24.2556L210.91 25.4404L210.434 23.7117C210.268 23.1091 210.107 22.7159 209.952 22.5319C209.793 22.3404 209.583 22.2809 209.319 22.3535C209.055 22.4261 208.904 22.5689 208.866 22.7821C208.827 22.9953 208.898 23.4296 209.078 24.0849L211.025 31.1578C211.172 31.6926 211.351 32.0769 211.561 32.3108C211.769 32.5371 212.005 32.614 212.269 32.5414C212.578 32.4564 212.747 32.2601 212.775 31.9523C212.812 31.6426 212.723 31.0997 212.509 30.3239L212.018 28.5387L216.086 27.4192C216.408 28.6189 216.61 29.5315 216.693 30.1569C216.782 30.7727 216.698 31.456 216.443 32.2069C216.193 32.9482 215.77 33.5751 215.174 34.0877C214.576 34.5927 213.772 34.9841 212.762 35.2619C211.474 35.6164 210.394 35.6789 209.52 35.4493C208.645 35.2122 207.94 34.7418 207.406 34.0379C206.877 33.3245 206.412 32.2372 206.01 30.7759L204.837 26.5163C204.487 25.2433 204.351 24.2477 204.428 23.5294C204.506 22.8111 204.894 22.0846 205.591 21.3498C206.286 20.6075 207.232 20.0715 208.43 19.7419C209.62 19.4143 210.706 19.3868 211.689 19.6592C212.672 19.9317 213.408 20.4138 213.898 21.1054C214.388 21.797 214.827 22.847 215.215 24.2556ZM227.499 23.1354L221.589 24.7618L222.482 28.0045C222.668 28.6825 222.838 29.1059 222.99 29.2747C223.141 29.4436 223.357 29.4897 223.635 29.413C223.982 29.3177 224.176 29.1264 224.219 28.8392C224.267 28.5424 224.188 28.0211 223.983 27.2754L223.439 25.2982L227.766 24.1071L228.071 25.2144C228.326 26.1409 228.461 26.8693 228.478 27.3996C228.502 27.9278 228.377 28.5335 228.103 29.2166C227.829 29.8997 227.4 30.4756 226.816 30.9442C226.237 31.4033 225.451 31.7697 224.456 32.0433C223.492 32.3087 222.603 32.4036 221.788 32.3281C220.973 32.2525 220.292 32.0308 219.745 31.6627C219.204 31.2851 218.774 30.828 218.456 30.2915C218.136 29.7475 217.823 28.9182 217.516 27.8034L216.313 23.4308C215.952 22.1202 215.845 21.0395 215.992 20.1888C216.136 19.3306 216.557 18.591 217.253 17.9699C217.947 17.3414 218.817 16.883 219.864 16.5948C221.145 16.2424 222.267 16.1969 223.23 16.4585C224.199 16.7104 224.96 17.1938 225.513 17.9085C226.072 18.6137 226.551 19.6931 226.951 21.1469L227.499 23.1354ZM222.251 21.9544L221.949 20.8584C221.736 20.0826 221.556 19.5931 221.411 19.3899C221.266 19.1867 221.066 19.1204 220.81 19.1909C220.493 19.278 220.324 19.4298 220.303 19.6464C220.28 19.8554 220.384 20.3817 220.616 21.2254L220.918 22.3213L222.251 21.9544Z" fill="#083341"/>
<path d="M135.113 66.3482L138.612 78.5354C139.009 79.9171 139.243 80.9025 139.315 81.4915C139.384 82.073 139.283 82.724 139.01 83.4445C138.735 84.1574 138.278 84.7724 137.638 85.2894C137.003 85.7967 136.194 86.1917 135.21 86.4741C134.122 86.7868 133.109 86.8825 132.172 86.7614C131.235 86.6404 130.477 86.35 129.898 85.8904C129.319 85.4308 128.9 84.8926 128.642 84.2759C128.381 83.6517 127.955 82.3109 127.365 80.2534L124.266 69.4629L129.008 68.1012L132.934 81.7752C133.163 82.5712 133.351 83.0699 133.498 83.2715C133.651 83.4634 133.859 83.5216 134.121 83.4461C134.422 83.3599 134.579 83.1847 134.592 82.9207C134.611 82.6471 134.49 82.0559 134.229 81.1473L130.371 67.7099L135.113 66.3482ZM148.422 71.2563L144.39 72.4142L144.157 71.6032C143.958 70.9123 143.792 70.4887 143.658 70.3322C143.529 70.166 143.306 70.1282 142.991 70.2188C142.736 70.2921 142.569 70.4334 142.491 70.6428C142.411 70.8446 142.419 71.1145 142.516 71.4524C142.648 71.9105 142.775 72.2398 142.897 72.4403C143.025 72.6311 143.284 72.8089 143.672 72.9737C144.069 73.1363 144.832 73.3193 145.964 73.5228C147.471 73.789 148.513 74.1482 149.09 74.6003C149.666 75.0524 150.111 75.8229 150.424 76.9117C150.773 78.1282 150.88 79.0933 150.743 79.8071C150.605 80.5134 150.212 81.1423 149.566 81.6936C148.925 82.2353 148.082 82.656 147.039 82.9558C145.882 83.2878 144.839 83.3922 143.91 83.269C142.988 83.1436 142.284 82.8172 141.8 82.2898C141.315 81.7625 140.894 80.8756 140.536 79.6291L140.329 78.9082L144.361 77.7503L144.633 78.6965C144.864 79.4999 145.062 80.0078 145.229 80.2201C145.403 80.4302 145.64 80.4921 145.941 80.4058C146.264 80.3131 146.466 80.1696 146.549 79.9753C146.629 79.7734 146.594 79.4134 146.446 78.8953C146.241 78.1819 146.03 77.7588 145.813 77.6261C145.589 77.4954 144.553 77.2157 142.707 76.7867C141.155 76.4196 140.145 75.974 139.677 75.4498C139.208 74.9182 138.852 74.2319 138.61 73.3908C138.268 72.1969 138.173 71.2731 138.327 70.6193C138.478 69.9581 138.885 69.3657 139.548 68.8422C140.218 68.3166 141.052 67.9103 142.051 67.6236C143.042 67.339 143.92 67.2251 144.684 67.2821C145.453 67.3293 146.081 67.5066 146.568 67.814C147.062 68.1192 147.397 68.4374 147.574 68.7688C147.757 69.098 147.957 69.6381 148.173 70.389L148.422 71.2563ZM161.144 70.8096L155.254 72.5012L156.182 75.7338C156.376 76.4096 156.55 76.8312 156.703 76.9984C156.857 77.1656 157.073 77.2093 157.351 77.1295C157.696 77.0303 157.888 76.8369 157.928 76.5492C157.972 76.2519 157.888 75.7316 157.675 74.9882L157.109 73.017L161.423 71.7783L161.739 72.8821C162.005 73.8057 162.148 74.5326 162.171 75.0627C162.2 75.5906 162.082 76.1977 161.816 76.8837C161.549 77.5698 161.127 78.1504 160.548 78.6255C159.974 79.0909 159.192 79.4659 158.201 79.7506C157.24 80.0266 156.351 80.1313 155.536 80.0648C154.72 79.9982 154.037 79.784 153.486 79.422C152.94 79.0503 152.505 78.598 152.182 78.0651C151.856 77.5247 151.533 76.6988 151.214 75.5875L149.962 71.2285C149.587 69.9219 149.468 68.8425 149.606 67.9902C149.741 67.1305 150.153 66.3863 150.842 65.7576C151.529 65.1214 152.395 64.6534 153.438 64.3537C154.715 63.9871 155.836 63.9293 156.802 64.1802C157.774 64.4215 158.54 64.8964 159.101 65.605C159.668 66.3039 160.159 67.378 160.575 68.8272L161.144 70.8096ZM155.884 69.6866L155.57 68.594C155.348 67.8206 155.164 67.3331 155.016 67.1315C154.869 66.93 154.668 66.8659 154.412 66.9392C154.097 67.0297 153.93 67.1834 153.911 67.4002C153.89 67.6095 154 68.1347 154.241 68.9757L154.555 70.0682L155.884 69.6866ZM164.971 61.3347L165.354 63.3463C165.611 61.7524 166.355 60.7341 167.585 60.2914L169.096 65.5515C168.262 65.7908 167.683 66.0792 167.357 66.4166C167.031 66.754 166.881 67.1384 166.908 67.5697C166.932 67.9936 167.152 68.9301 167.568 70.3794L169.263 76.2815L164.712 77.5882L160.42 62.6414L164.971 61.3347ZM171.956 55.7688L179.863 53.4983L180.911 57.1477L177.746 58.0566L178.739 61.5145L181.701 60.6639L182.697 64.1331L179.735 64.9837L180.886 68.9935L184.367 67.9941L185.415 71.6435L177.192 74.0046L171.956 55.7688ZM191.373 53.7535L191.61 61.4154L196.048 68.5903L191.621 69.8614C190.621 68.0191 189.804 66.4207 189.171 65.0662C189.38 66.9245 189.539 68.7116 189.65 70.4274L185.843 71.5206L185.561 63.1522L181.551 56.5738L185.358 55.4806C186.842 58.3547 187.665 59.9917 187.829 60.3918C187.534 57.7211 187.367 55.8954 187.329 54.9146L191.373 53.7535ZM196.993 52.1396L197.293 53.4801C197.545 52.8305 197.878 52.3042 198.29 51.9013C198.703 51.4983 199.198 51.2138 199.777 51.0478C200.483 50.8451 201.146 50.8619 201.766 51.0982C202.392 51.3249 202.84 51.6677 203.11 52.1267C203.38 52.5856 203.685 53.4083 204.026 54.5947L205.834 60.8911C206.224 62.2502 206.42 63.2426 206.421 63.8682C206.427 64.4842 206.228 65.0371 205.824 65.527C205.426 66.0072 204.873 66.3487 204.168 66.5514C203.604 66.7131 203.045 66.7315 202.489 66.6067C201.933 66.4819 201.381 66.2176 200.834 65.8137L201.818 69.2378L197.267 70.5445L192.364 53.4689L196.993 52.1396ZM199.537 56.1154C199.272 55.1918 199.077 54.6421 198.954 54.4662C198.83 54.2904 198.614 54.2467 198.307 54.3351C198.006 54.4213 197.843 54.59 197.818 54.8412C197.8 55.0902 197.915 55.6464 198.163 56.51L199.942 62.705C200.201 63.606 200.407 64.1563 200.562 64.3557C200.717 64.5551 200.944 64.6117 201.245 64.5254C201.538 64.4413 201.689 64.2882 201.698 64.066C201.713 63.8342 201.606 63.3203 201.377 62.5244L199.537 56.1154ZM216.877 54.8063L210.986 56.4978L211.914 59.7305C212.108 60.4063 212.282 60.8278 212.436 60.995C212.589 61.1622 212.805 61.2059 213.083 61.1261C213.428 61.027 213.621 60.8335 213.66 60.5459C213.705 60.2486 213.62 59.7282 213.407 58.9848L212.841 57.0137L217.155 55.775L217.472 56.8788C217.737 57.8024 217.881 58.5293 217.903 59.0594C217.932 59.5873 217.814 60.1943 217.548 60.8804C217.282 61.5665 216.859 62.1471 216.28 62.6222C215.707 63.0876 214.924 63.4626 213.933 63.7472C212.972 64.0232 212.083 64.1279 211.268 64.0614C210.452 63.9949 209.769 63.7806 209.218 63.4186C208.672 63.047 208.237 62.5947 207.914 62.0618C207.588 61.5214 207.265 60.6955 206.946 59.5841L205.695 55.2251C205.319 53.9186 205.2 52.8391 205.338 51.9869C205.473 51.1271 205.885 50.3829 206.574 49.7542C207.261 49.118 208.127 48.6501 209.17 48.3503C210.447 47.9838 211.568 47.926 212.535 48.1769C213.506 48.4181 214.272 48.893 214.833 49.6016C215.4 50.3006 215.891 51.3747 216.307 52.8239L216.877 54.8063ZM211.616 53.6832L211.303 52.5907C211.08 51.8172 210.896 51.3298 210.748 51.1282C210.601 50.9266 210.4 50.8625 210.145 50.9358C209.829 51.0264 209.662 51.1801 209.643 51.3969C209.622 51.6062 209.732 52.1313 209.973 52.9723L210.287 54.0649L211.616 53.6832ZM220.703 45.3314L221.086 47.343C221.343 45.7491 222.087 44.7307 223.318 44.2881L224.828 49.5482C223.994 49.7875 223.415 50.0759 223.089 50.4133C222.763 50.7506 222.614 51.135 222.64 51.5664C222.664 51.9902 222.884 52.9268 223.3 54.376L224.995 60.2782L220.445 61.5848L216.153 46.638L220.703 45.3314ZM228.161 39.6296L228.844 42.0062L224.158 43.3517L223.476 40.9751L228.161 39.6296ZM229.106 42.9186L233.398 57.8654L228.712 59.2108L224.42 44.2641L229.106 42.9186ZM243.278 47.2251L237.388 48.9166L238.316 52.1493C238.51 52.8251 238.684 53.2466 238.837 53.4138C238.991 53.581 239.207 53.6247 239.485 53.5449C239.83 53.4458 240.022 53.2523 240.062 52.9647C240.107 52.6674 240.022 52.147 239.809 51.4036L239.243 49.4325L243.557 48.1937L243.874 49.2976C244.139 50.2212 244.282 50.948 244.305 51.4781C244.334 52.0061 244.216 52.6131 243.95 53.2992C243.683 53.9853 243.261 54.5659 242.682 55.0409C242.108 55.5064 241.326 55.8814 240.335 56.166C239.374 56.442 238.485 56.5467 237.67 56.4802C236.854 56.4137 236.171 56.1994 235.62 55.8374C235.074 55.4658 234.639 55.0135 234.316 54.4806C233.99 53.9402 233.667 53.1143 233.348 52.0029L232.096 47.6439C231.721 46.3373 231.602 45.2579 231.74 44.4057C231.875 43.5459 232.287 42.8017 232.976 42.173C233.663 41.5368 234.529 41.0688 235.572 40.7691C236.849 40.4026 237.97 40.3448 238.936 40.5957C239.908 40.8369 240.674 41.3118 241.235 42.0204C241.802 42.7194 242.293 43.7934 242.709 45.2427L243.278 47.2251ZM238.018 46.102L237.704 45.0095C237.482 44.236 237.298 43.7485 237.15 43.547C237.003 43.3454 236.802 43.2813 236.546 43.3546C236.231 43.4452 236.064 43.5989 236.045 43.8157C236.024 44.025 236.134 44.5501 236.375 45.3911L236.689 46.4837L238.018 46.102ZM247.184 37.7275L247.5 39.1243C247.673 38.4813 247.957 37.9567 248.352 37.5505C248.753 37.1347 249.265 36.8373 249.888 36.6583C250.669 36.4341 251.36 36.4348 251.962 36.6604C252.563 36.8861 253.016 37.26 253.32 37.7822C253.622 38.2969 253.961 39.2075 254.336 40.5141L257.344 50.9892L252.794 52.2959L249.821 41.9447C249.526 40.9159 249.312 40.2986 249.18 40.0928C249.048 39.8869 248.827 39.8282 248.52 39.9166C248.197 40.0093 248.032 40.1989 248.025 40.4854C248.015 40.7645 248.172 41.4672 248.496 42.5935L251.397 52.697L246.846 54.0036L242.555 39.0568L247.184 37.7275ZM266.308 38.3445L262.016 39.5767L261.522 37.8534C261.349 37.2527 261.184 36.8612 261.026 36.679C260.866 36.4893 260.654 36.4321 260.391 36.5076C260.129 36.5831 259.979 36.7276 259.943 36.9412C259.907 37.1548 259.982 37.5882 260.17 38.2415L262.195 45.2925C262.348 45.8257 262.531 46.208 262.743 46.4395C262.954 46.6635 263.191 46.7378 263.454 46.6623C263.761 46.5739 263.928 46.3757 263.953 46.0677C263.986 45.7575 263.892 45.2157 263.67 44.4423L263.159 42.6626L267.213 41.4983C267.549 42.6944 267.761 43.6046 267.851 44.2291C267.947 44.8439 267.871 45.5281 267.624 46.2818C267.382 47.0258 266.966 47.6573 266.376 48.1764C265.783 48.688 264.983 49.0883 263.977 49.3772C262.693 49.7459 261.613 49.8203 260.737 49.6004C259.859 49.373 259.149 48.9103 258.607 48.2125C258.071 47.5049 257.593 46.4227 257.175 44.966L255.956 40.7196C255.591 39.4506 255.444 38.4565 255.514 37.7374C255.584 37.0183 255.963 36.2876 256.652 35.5451C257.339 34.7952 258.28 34.2488 259.474 33.9059C260.66 33.5653 261.746 33.5257 262.732 33.7873C263.717 34.0489 264.459 34.5228 264.956 35.209C265.454 35.8951 265.905 36.9403 266.308 38.3445ZM278.579 37.0888L272.688 38.7803L273.616 42.013C273.81 42.6888 273.984 43.1103 274.138 43.2775C274.291 43.4447 274.507 43.4884 274.785 43.4086C275.13 43.3094 275.323 43.116 275.362 42.8284C275.407 42.5311 275.322 42.0107 275.109 41.2673L274.543 39.2962L278.857 38.0574L279.174 39.1613C279.439 40.0849 279.583 40.8117 279.605 41.3418C279.634 41.8698 279.516 42.4768 279.25 43.1629C278.983 43.849 278.561 44.4295 277.982 44.9046C277.409 45.3701 276.626 45.7451 275.635 46.0297C274.674 46.3057 273.785 46.4104 272.97 46.3439C272.154 46.2774 271.471 46.0631 270.92 45.7011C270.374 45.3295 269.939 44.8772 269.616 44.3443C269.29 43.8038 268.967 42.978 268.648 41.8666L267.397 37.5076C267.021 36.201 266.902 35.1216 267.04 34.2694C267.175 33.4096 267.587 32.6654 268.276 32.0367C268.963 31.4005 269.829 30.9325 270.872 30.6328C272.149 30.2663 273.27 30.2084 274.236 30.4594C275.208 30.7006 275.974 31.1755 276.535 31.8841C277.102 32.583 277.593 33.6571 278.009 35.1064L278.579 37.0888ZM273.318 35.9657L273.004 34.8732C272.782 34.0997 272.598 33.6122 272.45 33.4107C272.303 33.2091 272.102 33.145 271.846 33.2183C271.531 33.3089 271.364 33.4626 271.345 33.6794C271.324 33.8886 271.434 34.4138 271.675 35.2548L271.989 36.3474L273.318 35.9657Z" fill="#66D5DC"/>
<defs>
<filter id="filter0_d" x="286.828" y="53.0547" width="56.141" height="46.7422" filterUnits="userSpaceOnUse" color-interpolation-filters="sRGB">
<feFlood flood-opacity="0" result="BackgroundImageFix"/>
<feColorMatrix in="SourceAlpha" type="matrix" values="0 0 0 0 0 0 0 0 0 0 0 0 0 0 0 0 0 0 127 0"/>
<feOffset dy="4"/>
<feGaussianBlur stdDeviation="2"/>
<feColorMatrix type="matrix" values="0 0 0 0 0 0 0 0 0 0 0 0 0 0 0 0 0 0 0.25 0"/>
<feBlend mode="normal" in2="BackgroundImageFix" result="effect1_dropShadow"/>
<feBlend mode="normal" in="SourceGraphic" in2="effect1_dropShadow" result="shape"/>
</filter>
<filter id="filter1_d" x="6.82812" y="11.0547" width="44.2578" height="46.7422" filterUnits="userSpaceOnUse" color-interpolation-filters="sRGB">
<feFlood flood-opacity="0" result="BackgroundImageFix"/>
<feColorMatrix in="SourceAlpha" type="matrix" values="0 0 0 0 0 0 0 0 0 0 0 0 0 0 0 0 0 0 127 0"/>
<feOffset dy="4"/>
<feGaussianBlur stdDeviation="2"/>
<feColorMatrix type="matrix" values="0 0 0 0 0 0 0 0 0 0 0 0 0 0 0 0 0 0 0.25 0"/>
<feBlend mode="normal" in2="BackgroundImageFix" result="effect1_dropShadow"/>
<feBlend mode="normal" in="SourceGraphic" in2="effect1_dropShadow" result="shape"/>
</filter>
</defs>
</svg>
