<svg width="800" height="400" viewBox="0 0 800 400" fill="none" xmlns="http://www.w3.org/2000/svg">
<rect width="800" height="400" fill="#262626"/>
<rect x="564" y="50" width="200" height="300" fill="#6F6F6F"/>
<path d="M120.357 39.6465H114.346V50H110.953V24.4062H119.426C122.309 24.4062 124.523 25.0625 126.07 26.375C127.629 27.6875 128.408 29.5977 128.408 32.1055C128.408 33.6992 127.975 35.0879 127.107 36.2715C126.252 37.4551 125.057 38.3398 123.521 38.9258L129.533 49.7891V50H125.912L120.357 39.6465ZM114.346 36.8867H119.531C121.207 36.8867 122.537 36.4531 123.521 35.5859C124.518 34.7188 125.016 33.5586 125.016 32.1055C125.016 30.5234 124.541 29.3105 123.592 28.4668C122.654 27.623 121.295 27.1953 119.514 27.1836H114.346V36.8867ZM140.537 50.3516C137.959 50.3516 135.861 49.5078 134.244 47.8203C132.627 46.1211 131.818 43.8535 131.818 41.0176V40.4199C131.818 38.5332 132.176 36.8516 132.891 35.375C133.617 33.8867 134.625 32.7266 135.914 31.8945C137.215 31.0508 138.621 30.6289 140.133 30.6289C142.605 30.6289 144.527 31.4434 145.898 33.0723C147.27 34.7012 147.955 37.0332 147.955 40.0684V41.4219H135.07C135.117 43.2969 135.662 44.8145 136.705 45.9746C137.76 47.123 139.096 47.6973 140.713 47.6973C141.861 47.6973 142.834 47.4629 143.631 46.9941C144.428 46.5254 145.125 45.9043 145.723 45.1309L147.709 46.6777C146.115 49.127 143.725 50.3516 140.537 50.3516ZM140.133 33.3008C138.82 33.3008 137.719 33.7812 136.828 34.7422C135.938 35.6914 135.387 37.0273 135.176 38.75H144.703V38.5039C144.609 36.8516 144.164 35.5742 143.367 34.6719C142.57 33.7578 141.492 33.3008 140.133 33.3008ZM163.477 50C163.289 49.625 163.137 48.957 163.02 47.9961C161.508 49.5664 159.703 50.3516 157.605 50.3516C155.73 50.3516 154.189 49.8242 152.982 48.7695C151.787 47.7031 151.189 46.3555 151.189 44.7266C151.189 42.7461 151.939 41.2109 153.439 40.1211C154.951 39.0195 157.072 38.4688 159.803 38.4688H162.967V36.9746C162.967 35.8379 162.627 34.9355 161.947 34.2676C161.268 33.5879 160.266 33.248 158.941 33.248C157.781 33.248 156.809 33.541 156.023 34.127C155.238 34.7129 154.846 35.4219 154.846 36.2539H151.576C151.576 35.3047 151.91 34.3906 152.578 33.5117C153.258 32.6211 154.172 31.918 155.32 31.4023C156.48 30.8867 157.752 30.6289 159.135 30.6289C161.326 30.6289 163.043 31.1797 164.285 32.2812C165.527 33.3711 166.172 34.877 166.219 36.7988V45.5527C166.219 47.2988 166.441 48.6875 166.887 49.7188V50H163.477ZM158.08 47.5215C159.1 47.5215 160.066 47.2578 160.98 46.7305C161.895 46.2031 162.557 45.5176 162.967 44.6738V40.7715H160.418C156.434 40.7715 154.441 41.9375 154.441 44.2695C154.441 45.2891 154.781 46.0859 155.461 46.6602C156.141 47.2344 157.014 47.5215 158.08 47.5215ZM178.945 47.6973C180.105 47.6973 181.119 47.3457 181.986 46.6426C182.854 45.9395 183.334 45.0605 183.428 44.0059H186.504C186.445 45.0957 186.07 46.1328 185.379 47.1172C184.688 48.1016 183.762 48.8867 182.602 49.4727C181.453 50.0586 180.234 50.3516 178.945 50.3516C176.355 50.3516 174.293 49.4902 172.758 47.7676C171.234 46.0332 170.473 43.666 170.473 40.666V40.1211C170.473 38.2695 170.812 36.623 171.492 35.1816C172.172 33.7402 173.145 32.6211 174.41 31.8242C175.688 31.0273 177.193 30.6289 178.928 30.6289C181.061 30.6289 182.83 31.2676 184.236 32.5449C185.654 33.8223 186.41 35.4805 186.504 37.5195H183.428C183.334 36.2891 182.865 35.2812 182.021 34.4961C181.189 33.6992 180.158 33.3008 178.928 33.3008C177.275 33.3008 175.992 33.8984 175.078 35.0938C174.176 36.2773 173.725 37.9941 173.725 40.2441V40.8594C173.725 43.0508 174.176 44.7383 175.078 45.9219C175.98 47.1055 177.27 47.6973 178.945 47.6973ZM194.572 26.375V30.9805H198.123V33.4941H194.572V45.2891C194.572 46.0508 194.73 46.625 195.047 47.0117C195.363 47.3867 195.902 47.5742 196.664 47.5742C197.039 47.5742 197.555 47.5039 198.211 47.3633V50C197.355 50.2344 196.523 50.3516 195.715 50.3516C194.262 50.3516 193.166 49.9121 192.428 49.0332C191.689 48.1543 191.32 46.9062 191.32 45.2891V33.4941H187.857V30.9805H191.32V26.375H194.572ZM230.203 41.8789C229.887 44.5859 228.885 46.6777 227.197 48.1543C225.521 49.6191 223.289 50.3516 220.5 50.3516C217.477 50.3516 215.051 49.2676 213.223 47.0996C211.406 44.9316 210.498 42.0312 210.498 38.3984V35.9375C210.498 33.5586 210.92 31.4668 211.764 29.6621C212.619 27.8574 213.826 26.4746 215.385 25.5137C216.943 24.541 218.748 24.0547 220.799 24.0547C223.518 24.0547 225.697 24.8164 227.338 26.3398C228.979 27.8516 229.934 29.9492 230.203 32.6328H226.811C226.518 30.5938 225.879 29.1172 224.895 28.2031C223.922 27.2891 222.557 26.832 220.799 26.832C218.643 26.832 216.949 27.6289 215.719 29.2227C214.5 30.8164 213.891 33.084 213.891 36.0254V38.5039C213.891 41.2812 214.471 43.4902 215.631 45.1309C216.791 46.7715 218.414 47.5918 220.5 47.5918C222.375 47.5918 223.811 47.1699 224.807 46.3262C225.814 45.4707 226.482 43.9883 226.811 41.8789H230.203ZM233.455 40.3145C233.455 38.4512 233.818 36.7754 234.545 35.2871C235.283 33.7988 236.303 32.6504 237.604 31.8418C238.916 31.0332 240.41 30.6289 242.086 30.6289C244.676 30.6289 246.768 31.5254 248.361 33.3184C249.967 35.1113 250.77 37.4961 250.77 40.4727V40.7012C250.77 42.5527 250.412 44.2168 249.697 45.6934C248.994 47.1582 247.98 48.3008 246.656 49.1211C245.344 49.9414 243.832 50.3516 242.121 50.3516C239.543 50.3516 237.451 49.4551 235.846 47.6621C234.252 45.8691 233.455 43.4961 233.455 40.543V40.3145ZM236.725 40.7012C236.725 42.8105 237.211 44.5039 238.184 45.7812C239.168 47.0586 240.48 47.6973 242.121 47.6973C243.773 47.6973 245.086 47.0527 246.059 45.7637C247.031 44.4629 247.518 42.6465 247.518 40.3145C247.518 38.2285 247.02 36.541 246.023 35.252C245.039 33.9512 243.727 33.3008 242.086 33.3008C240.48 33.3008 239.186 33.9395 238.201 35.2168C237.217 36.4941 236.725 38.3223 236.725 40.7012ZM257.906 30.9805L257.994 33.0898C259.389 31.4492 261.27 30.6289 263.637 30.6289C266.297 30.6289 268.107 31.6484 269.068 33.6875C269.701 32.7734 270.521 32.0352 271.529 31.4727C272.549 30.9102 273.75 30.6289 275.133 30.6289C279.305 30.6289 281.426 32.8379 281.496 37.2559V50H278.244V37.4492C278.244 36.0898 277.934 35.0762 277.312 34.4082C276.691 33.7285 275.648 33.3887 274.184 33.3887C272.977 33.3887 271.975 33.752 271.178 34.4785C270.381 35.1934 269.918 36.1602 269.789 37.3789V50H266.52V37.5371C266.52 34.7715 265.166 33.3887 262.459 33.3887C260.326 33.3887 258.867 34.2969 258.082 36.1133V50H254.83V30.9805H257.906ZM302.484 40.7012C302.484 43.5957 301.822 45.9277 300.498 47.6973C299.174 49.4668 297.381 50.3516 295.119 50.3516C292.811 50.3516 290.994 49.6191 289.67 48.1543V57.3125H286.418V30.9805H289.389L289.547 33.0898C290.871 31.4492 292.711 30.6289 295.066 30.6289C297.352 30.6289 299.156 31.4902 300.48 33.2129C301.816 34.9355 302.484 37.332 302.484 40.4023V40.7012ZM299.232 40.332C299.232 38.1875 298.775 36.4941 297.861 35.252C296.947 34.0098 295.693 33.3887 294.1 33.3887C292.131 33.3887 290.654 34.2617 289.67 36.0078V45.0957C290.643 46.8301 292.131 47.6973 294.135 47.6973C295.693 47.6973 296.93 47.082 297.844 45.8516C298.77 44.6094 299.232 42.7695 299.232 40.332ZM305.771 40.3145C305.771 38.4512 306.135 36.7754 306.861 35.2871C307.6 33.7988 308.619 32.6504 309.92 31.8418C311.232 31.0332 312.727 30.6289 314.402 30.6289C316.992 30.6289 319.084 31.5254 320.678 33.3184C322.283 35.1113 323.086 37.4961 323.086 40.4727V40.7012C323.086 42.5527 322.729 44.2168 322.014 45.6934C321.311 47.1582 320.297 48.3008 318.973 49.1211C317.66 49.9414 316.148 50.3516 314.438 50.3516C311.859 50.3516 309.768 49.4551 308.162 47.6621C306.568 45.8691 305.771 43.4961 305.771 40.543V40.3145ZM309.041 40.7012C309.041 42.8105 309.527 44.5039 310.5 45.7812C311.484 47.0586 312.797 47.6973 314.438 47.6973C316.09 47.6973 317.402 47.0527 318.375 45.7637C319.348 44.4629 319.834 42.6465 319.834 40.3145C319.834 38.2285 319.336 36.541 318.34 35.252C317.355 33.9512 316.043 33.3008 314.402 33.3008C312.797 33.3008 311.502 33.9395 310.518 35.2168C309.533 36.4941 309.041 38.3223 309.041 40.7012ZM330.24 30.9805L330.346 33.3711C331.799 31.543 333.697 30.6289 336.041 30.6289C340.061 30.6289 342.088 32.8965 342.123 37.4316V50H338.871V37.4141C338.859 36.043 338.543 35.0293 337.922 34.373C337.312 33.7168 336.357 33.3887 335.057 33.3887C334.002 33.3887 333.076 33.6699 332.279 34.2324C331.482 34.7949 330.861 35.5332 330.416 36.4473V50H327.164V30.9805H330.24ZM354.92 50.3516C352.342 50.3516 350.244 49.5078 348.627 47.8203C347.01 46.1211 346.201 43.8535 346.201 41.0176V40.4199C346.201 38.5332 346.559 36.8516 347.273 35.375C348 33.8867 349.008 32.7266 350.297 31.8945C351.598 31.0508 353.004 30.6289 354.516 30.6289C356.988 30.6289 358.91 31.4434 360.281 33.0723C361.652 34.7012 362.338 37.0332 362.338 40.0684V41.4219H349.453C349.5 43.2969 350.045 44.8145 351.088 45.9746C352.143 47.123 353.479 47.6973 355.096 47.6973C356.244 47.6973 357.217 47.4629 358.014 46.9941C358.811 46.5254 359.508 45.9043 360.105 45.1309L362.092 46.6777C360.498 49.127 358.107 50.3516 354.92 50.3516ZM354.516 33.3008C353.203 33.3008 352.102 33.7812 351.211 34.7422C350.32 35.6914 349.77 37.0273 349.559 38.75H359.086V38.5039C358.992 36.8516 358.547 35.5742 357.75 34.6719C356.953 33.7578 355.875 33.3008 354.516 33.3008ZM369.193 30.9805L369.299 33.3711C370.752 31.543 372.65 30.6289 374.994 30.6289C379.014 30.6289 381.041 32.8965 381.076 37.4316V50H377.824V37.4141C377.812 36.043 377.496 35.0293 376.875 34.373C376.266 33.7168 375.311 33.3887 374.01 33.3887C372.955 33.3887 372.029 33.6699 371.232 34.2324C370.436 34.7949 369.814 35.5332 369.369 36.4473V50H366.117V30.9805H369.193ZM390.393 26.375V30.9805H393.943V33.4941H390.393V45.2891C390.393 46.0508 390.551 46.625 390.867 47.0117C391.184 47.3867 391.723 47.5742 392.484 47.5742C392.859 47.5742 393.375 47.5039 394.031 47.3633V50C393.176 50.2344 392.344 50.3516 391.535 50.3516C390.082 50.3516 388.986 49.9121 388.248 49.0332C387.51 48.1543 387.141 46.9062 387.141 45.2891V33.4941H383.678V30.9805H387.141V26.375H390.393ZM408.832 44.9551C408.832 44.0762 408.498 43.3965 407.83 42.916C407.174 42.4238 406.02 42.002 404.367 41.6504C402.727 41.2988 401.42 40.877 400.447 40.3848C399.486 39.8926 398.771 39.3066 398.303 38.627C397.846 37.9473 397.617 37.1387 397.617 36.2012C397.617 34.6426 398.273 33.3242 399.586 32.2461C400.91 31.168 402.598 30.6289 404.648 30.6289C406.805 30.6289 408.551 31.1855 409.887 32.2988C411.234 33.4121 411.908 34.8359 411.908 36.5703H408.639C408.639 35.6797 408.258 34.9121 407.496 34.2676C406.746 33.623 405.797 33.3008 404.648 33.3008C403.465 33.3008 402.539 33.5586 401.871 34.0742C401.203 34.5898 400.869 35.2637 400.869 36.0957C400.869 36.8809 401.18 37.4727 401.801 37.8711C402.422 38.2695 403.541 38.6504 405.158 39.0137C406.787 39.377 408.105 39.8105 409.113 40.3145C410.121 40.8184 410.865 41.4277 411.346 42.1426C411.838 42.8457 412.084 43.707 412.084 44.7266C412.084 46.4258 411.404 47.791 410.045 48.8223C408.686 49.8418 406.922 50.3516 404.754 50.3516C403.23 50.3516 401.883 50.082 400.711 49.543C399.539 49.0039 398.619 48.2539 397.951 47.293C397.295 46.3203 396.967 45.2715 396.967 44.1465H400.219C400.277 45.2363 400.711 46.1035 401.52 46.748C402.34 47.3809 403.418 47.6973 404.754 47.6973C405.984 47.6973 406.969 47.4512 407.707 46.959C408.457 46.4551 408.832 45.7871 408.832 44.9551Z" fill="white"/>
<line x1="108.007" y1="66" x2="414.007" y2="68.0968" stroke="white" stroke-width="2"/>
<line y1="-2.5" x2="100.005" y2="-2.5" transform="matrix(0.999949 0.0101127 -0.00350338 0.999994 125 121)" stroke="#FFE600" stroke-width="5"/>
<line y1="-2.5" x2="100.005" y2="-2.5" transform="matrix(0.999949 0.0101127 -0.00350338 0.999994 125 172)" stroke="#FFE600" stroke-width="5"/>
<line y1="-2.5" x2="100.005" y2="-2.5" transform="matrix(0.999949 0.0101127 -0.00350338 0.999994 125 138)" stroke="#FFE600" stroke-width="5"/>
<line y1="-2.5" x2="100.005" y2="-2.5" transform="matrix(0.999949 0.0101127 -0.00350338 0.999994 125 155)" stroke="#FFE600" stroke-width="5"/>
<line y1="-2.5" x2="75.0068" y2="-2.5" transform="matrix(0.999909 0.0134832 -0.00262754 0.999997 581 197)" stroke="#FFE600" stroke-width="5"/>
<line y1="-2.5" x2="75.0068" y2="-2.5" transform="matrix(0.999909 0.0134832 -0.00262754 0.999997 581 248)" stroke="#FFE600" stroke-width="5"/>
<line y1="-2.5" x2="75.0068" y2="-2.5" transform="matrix(0.999909 0.0134832 -0.00262754 0.999997 581 214)" stroke="#FFE600" stroke-width="5"/>
<line y1="-2.5" x2="75.0068" y2="-2.5" transform="matrix(0.999909 0.0134832 -0.00262754 0.999997 581 231)" stroke="#FFE600" stroke-width="5"/>
<line y1="-2.5" x2="75.0068" y2="-2.5" transform="matrix(0.999909 0.0134832 -0.00262754 0.999997 671 198)" stroke="#FFE600" stroke-width="5"/>
<line y1="-2.5" x2="75.0068" y2="-2.5" transform="matrix(0.999909 0.0134832 -0.00262754 0.999997 671 249)" stroke="#FFE600" stroke-width="5"/>
<line y1="-2.5" x2="75.0068" y2="-2.5" transform="matrix(0.999909 0.0134832 -0.00262754 0.999997 671 215)" stroke="#FFE600" stroke-width="5"/>
<line y1="-2.5" x2="75.0068" y2="-2.5" transform="matrix(0.999909 0.0134832 -0.00262754 0.999997 671 232)" stroke="#FFE600" stroke-width="5"/>
<rect x="250" y="110" width="150" height="75" fill="#FF00B8"/>
<rect x="581" y="60" width="165" height="79" fill="#FF00B8"/>
<circle cx="174.5" cy="276.5" r="41.5" fill="#7000FF"/>
<circle cx="618.5" cy="162.5" r="18.5" fill="#7000FF"/>
<circle cx="708.5" cy="162.5" r="18.5" fill="#7000FF"/>
<g filter="url(#filter0_d)">
<rect x="575" y="271" width="50" height="63" fill="white"/>
</g>
<g filter="url(#filter1_d)">
<rect x="285" y="226" width="80" height="100" fill="white"/>
</g>
<path d="M178.6 130.416V158.64H183.88V162H168.904V158.64H174.472V135.312L168.232 137.712L167.032 134.64L177.784 130.416H178.6Z" fill="white"/>
<path d="M329.128 285.016V266.872L317.656 285.016H329.128ZM314.008 284.968L329.128 261.4H332.488V285.016H336.52V288.04H332.488V295H329.128V288.04H314.008V284.968Z" fill="black"/>
<path d="M165.832 263C168.392 261.944 171.192 261.416 174.232 261.416C177.272 261.416 179.48 262.168 180.856 263.672C182.264 265.176 182.968 267.128 182.968 269.528C182.968 273.048 181.576 275.448 178.792 276.728V276.968C180.616 277.544 181.928 278.408 182.728 279.56C183.56 280.712 183.976 282.296 183.976 284.312C183.976 290.424 180.616 293.48 173.896 293.48C170.792 293.48 168.088 292.984 165.784 291.992L166.936 289.016C169.72 289.656 171.912 289.976 173.512 289.976C175.144 289.976 176.376 289.864 177.208 289.64C178.072 289.384 178.664 289 178.984 288.488C179.336 287.944 179.544 287.48 179.608 287.096C179.672 286.68 179.704 286.088 179.704 285.32C179.704 284.52 179.672 283.88 179.608 283.4C179.544 282.888 179.4 282.28 179.176 281.576C178.728 280.2 177.56 279.448 175.672 279.32L169.768 278.888V275.912L175.048 275.48C176.808 275.352 177.88 274.584 178.264 273.176C178.584 272.152 178.744 271.112 178.744 270.056C178.744 268.968 178.696 268.2 178.6 267.752C178.504 267.272 178.296 266.792 177.976 266.312C177.4 265.32 176.072 264.824 173.992 264.824C171.912 264.824 169.496 265.24 166.744 266.072L165.832 263Z" fill="white"/>
<path d="M324.712 130.416C327.592 130.416 329.848 131.12 331.48 132.528C333.112 133.904 333.928 136.032 333.928 138.912C333.928 141.76 332.632 144.672 330.04 147.648L320.536 158.64H333.928V162H315.88V158.352L326.872 145.632C327.896 144.448 328.616 143.344 329.032 142.32C329.48 141.264 329.704 139.936 329.704 138.336C329.704 136.736 329.304 135.584 328.504 134.88C327.736 134.176 326.344 133.824 324.328 133.824C322.312 133.824 319.944 134.24 317.224 135.072L316.312 132C319.032 130.944 321.832 130.416 324.712 130.416Z" fill="white"/>
<circle cx="599.5" cy="285.5" r="12.5" fill="#7000FF"/>
<line y1="-2.5" x2="30.0033" y2="-2.5" transform="matrix(0.999869 0.0162015 -0.00218659 0.999998 585 305)" stroke="#FFE600" stroke-width="5"/>
<line y1="-2.5" x2="30.0033" y2="-2.5" transform="matrix(0.999869 0.0162015 -0.00218659 0.999998 585 329.514)" stroke="#FFE600" stroke-width="5"/>
<line y1="-2.5" x2="30.0033" y2="-2.5" transform="matrix(0.999869 0.0162015 -0.00218659 0.999998 585 313.171)" stroke="#FFE600" stroke-width="5"/>
<line y1="-2.5" x2="30.0033" y2="-2.5" transform="matrix(0.999869 0.0162015 -0.00218659 0.999998 585 321.343)" stroke="#FFE600" stroke-width="5"/>
<g filter="url(#filter2_d)">
<rect x="702" y="271" width="50" height="63" fill="white"/>
</g>
<circle cx="726.5" cy="285.5" r="12.5" fill="#7000FF"/>
<line y1="-2.5" x2="30.0033" y2="-2.5" transform="matrix(0.999869 0.0162015 -0.00218659 0.999998 712 305)" stroke="#FFE600" stroke-width="5"/>
<line y1="-2.5" x2="30.0033" y2="-2.5" transform="matrix(0.999869 0.0162015 -0.00218659 0.999998 712 329.514)" stroke="#FFE600" stroke-width="5"/>
<line y1="-2.5" x2="30.0033" y2="-2.5" transform="matrix(0.999869 0.0162015 -0.00218659 0.999998 712 313.171)" stroke="#FFE600" stroke-width="5"/>
<line y1="-2.5" x2="30.0033" y2="-2.5" transform="matrix(0.999869 0.0162015 -0.00218659 0.999998 712 321.343)" stroke="#FFE600" stroke-width="5"/>
<g filter="url(#filter3_d)">
<rect x="640" y="271" width="50" height="63" fill="white"/>
</g>
<circle cx="664.5" cy="285.5" r="12.5" fill="#7000FF"/>
<line y1="-2.5" x2="30.0033" y2="-2.5" transform="matrix(0.999869 0.0162015 -0.00218659 0.999998 650 305)" stroke="#FFE600" stroke-width="5"/>
<line y1="-2.5" x2="30.0033" y2="-2.5" transform="matrix(0.999869 0.0162015 -0.00218659 0.999998 650 329.514)" stroke="#FFE600" stroke-width="5"/>
<line y1="-2.5" x2="30.0033" y2="-2.5" transform="matrix(0.999869 0.0162015 -0.00218659 0.999998 650 313.171)" stroke="#FFE600" stroke-width="5"/>
<line y1="-2.5" x2="30.0033" y2="-2.5" transform="matrix(0.999869 0.0162015 -0.00218659 0.999998 650 321.343)" stroke="#FFE600" stroke-width="5"/>
<line x1="436" y1="213.5" x2="538" y2="213.5" stroke="white" stroke-width="5"/>
<path d="M511 242L542 213L511 184" stroke="white" stroke-width="5"/>
<defs>
<filter id="filter0_d" x="571" y="271" width="58" height="71" filterUnits="userSpaceOnUse" color-interpolation-filters="sRGB">
<feFlood flood-opacity="0" result="BackgroundImageFix"/>
<feColorMatrix in="SourceAlpha" type="matrix" values="0 0 0 0 0 0 0 0 0 0 0 0 0 0 0 0 0 0 127 0"/>
<feOffset dy="4"/>
<feGaussianBlur stdDeviation="2"/>
<feColorMatrix type="matrix" values="0 0 0 0 0 0 0 0 0 0 0 0 0 0 0 0 0 0 0.25 0"/>
<feBlend mode="normal" in2="BackgroundImageFix" result="effect1_dropShadow"/>
<feBlend mode="normal" in="SourceGraphic" in2="effect1_dropShadow" result="shape"/>
</filter>
<filter id="filter1_d" x="281" y="226" width="88" height="108" filterUnits="userSpaceOnUse" color-interpolation-filters="sRGB">
<feFlood flood-opacity="0" result="BackgroundImageFix"/>
<feColorMatrix in="SourceAlpha" type="matrix" values="0 0 0 0 0 0 0 0 0 0 0 0 0 0 0 0 0 0 127 0"/>
<feOffset dy="4"/>
<feGaussianBlur stdDeviation="2"/>
<feColorMatrix type="matrix" values="0 0 0 0 0 0 0 0 0 0 0 0 0 0 0 0 0 0 0.25 0"/>
<feBlend mode="normal" in2="BackgroundImageFix" result="effect1_dropShadow"/>
<feBlend mode="normal" in="SourceGraphic" in2="effect1_dropShadow" result="shape"/>
</filter>
<filter id="filter2_d" x="698" y="271" width="58" height="71" filterUnits="userSpaceOnUse" color-interpolation-filters="sRGB">
<feFlood flood-opacity="0" result="BackgroundImageFix"/>
<feColorMatrix in="SourceAlpha" type="matrix" values="0 0 0 0 0 0 0 0 0 0 0 0 0 0 0 0 0 0 127 0"/>
<feOffset dy="4"/>
<feGaussianBlur stdDeviation="2"/>
<feColorMatrix type="matrix" values="0 0 0 0 0 0 0 0 0 0 0 0 0 0 0 0 0 0 0.25 0"/>
<feBlend mode="normal" in2="BackgroundImageFix" result="effect1_dropShadow"/>
<feBlend mode="normal" in="SourceGraphic" in2="effect1_dropShadow" result="shape"/>
</filter>
<filter id="filter3_d" x="636" y="271" width="58" height="71" filterUnits="userSpaceOnUse" color-interpolation-filters="sRGB">
<feFlood flood-opacity="0" result="BackgroundImageFix"/>
<feColorMatrix in="SourceAlpha" type="matrix" values="0 0 0 0 0 0 0 0 0 0 0 0 0 0 0 0 0 0 127 0"/>
<feOffset dy="4"/>
<feGaussianBlur stdDeviation="2"/>
<feColorMatrix type="matrix" values="0 0 0 0 0 0 0 0 0 0 0 0 0 0 0 0 0 0 0.25 0"/>
<feBlend mode="normal" in2="BackgroundImageFix" result="effect1_dropShadow"/>
<feBlend mode="normal" in="SourceGraphic" in2="effect1_dropShadow" result="shape"/>
</filter>
</defs>
</svg>
