<svg width="1214" height="627" viewBox="0 0 1214 627" fill="none" xmlns="http://www.w3.org/2000/svg">
<path d="M41.5566 318.285C41.5566 317.289 41.2051 316.527 40.502 316C39.7988 315.461 38.5332 314.898 36.7051 314.312C34.877 313.715 33.4297 313.129 32.3633 312.555C29.457 310.984 28.0039 308.869 28.0039 306.209C28.0039 304.826 28.3906 303.596 29.1641 302.518C29.9492 301.428 31.0684 300.578 32.5215 299.969C33.9863 299.359 35.627 299.055 37.4434 299.055C39.2715 299.055 40.9004 299.389 42.3301 300.057C43.7598 300.713 44.8672 301.645 45.6523 302.852C46.4492 304.059 46.8477 305.43 46.8477 306.965H41.5742C41.5742 305.793 41.2051 304.885 40.4668 304.24C39.7285 303.584 38.6914 303.256 37.3555 303.256C36.0664 303.256 35.0645 303.531 34.3496 304.082C33.6348 304.621 33.2773 305.336 33.2773 306.227C33.2773 307.059 33.6934 307.756 34.5254 308.318C35.3691 308.881 36.6055 309.408 38.2344 309.9C41.2344 310.803 43.4199 311.922 44.791 313.258C46.1621 314.594 46.8477 316.258 46.8477 318.25C46.8477 320.465 46.0098 322.205 44.334 323.471C42.6582 324.725 40.4023 325.352 37.5664 325.352C35.5977 325.352 33.8047 324.994 32.1875 324.279C30.5703 323.553 29.334 322.562 28.4785 321.309C27.6348 320.055 27.2129 318.602 27.2129 316.949H32.5039C32.5039 319.773 34.1914 321.186 37.5664 321.186C38.8203 321.186 39.7988 320.934 40.502 320.43C41.2051 319.914 41.5566 319.199 41.5566 318.285ZM56.1816 301.305V305.98H59.4336V309.707H56.1816V319.199C56.1816 319.902 56.3164 320.406 56.5859 320.711C56.8555 321.016 57.3711 321.168 58.1328 321.168C58.6953 321.168 59.1934 321.127 59.627 321.045V324.895C58.6309 325.199 57.6055 325.352 56.5508 325.352C52.9883 325.352 51.1719 323.553 51.1016 319.955V309.707H48.3242V305.98H51.1016V301.305H56.1816ZM73.2852 325C73.0508 324.543 72.8809 323.975 72.7754 323.295C71.5449 324.666 69.9453 325.352 67.9766 325.352C66.1133 325.352 64.5664 324.812 63.3359 323.734C62.1172 322.656 61.5078 321.297 61.5078 319.656C61.5078 317.641 62.252 316.094 63.7402 315.016C65.2402 313.938 67.4023 313.393 70.2266 313.381H72.5645V312.291C72.5645 311.412 72.3359 310.709 71.8789 310.182C71.4336 309.654 70.7246 309.391 69.752 309.391C68.8965 309.391 68.2227 309.596 67.7305 310.006C67.25 310.416 67.0098 310.979 67.0098 311.693H61.9297C61.9297 310.592 62.2695 309.572 62.9492 308.635C63.6289 307.697 64.5898 306.965 65.832 306.438C67.0742 305.898 68.4688 305.629 70.0156 305.629C72.3594 305.629 74.2168 306.221 75.5879 307.404C76.9707 308.576 77.6621 310.229 77.6621 312.361V320.605C77.6738 322.41 77.9258 323.775 78.418 324.701V325H73.2852ZM69.084 321.467C69.834 321.467 70.5254 321.303 71.1582 320.975C71.791 320.635 72.2598 320.184 72.5645 319.621V316.352H70.666C68.123 316.352 66.7695 317.23 66.6055 318.988L66.5879 319.287C66.5879 319.92 66.8105 320.441 67.2559 320.852C67.7012 321.262 68.3105 321.467 69.084 321.467ZM87.6465 301.305V305.98H90.8984V309.707H87.6465V319.199C87.6465 319.902 87.7812 320.406 88.0508 320.711C88.3203 321.016 88.8359 321.168 89.5977 321.168C90.1602 321.168 90.6582 321.127 91.0918 321.045V324.895C90.0957 325.199 89.0703 325.352 88.0156 325.352C84.4531 325.352 82.6367 323.553 82.5664 319.955V309.707H79.7891V305.98H82.5664V301.305H87.6465ZM102.482 325.352C99.6934 325.352 97.4199 324.496 95.6621 322.785C93.916 321.074 93.043 318.795 93.043 315.947V315.455C93.043 313.545 93.4121 311.84 94.1504 310.34C94.8887 308.828 95.9316 307.668 97.2793 306.859C98.6387 306.039 100.186 305.629 101.92 305.629C104.521 305.629 106.566 306.449 108.055 308.09C109.555 309.73 110.305 312.057 110.305 315.068V317.143H98.1934C98.3574 318.385 98.8496 319.381 99.6699 320.131C100.502 320.881 101.551 321.256 102.816 321.256C104.773 321.256 106.303 320.547 107.404 319.129L109.9 321.924C109.139 323.002 108.107 323.846 106.807 324.455C105.506 325.053 104.064 325.352 102.482 325.352ZM101.902 309.742C100.895 309.742 100.074 310.082 99.4414 310.762C98.8203 311.441 98.4219 312.414 98.2461 313.68H105.312V313.275C105.289 312.15 104.984 311.283 104.398 310.674C103.812 310.053 102.98 309.742 101.902 309.742ZM142.596 316.475C142.396 319.229 141.377 321.396 139.537 322.979C137.709 324.561 135.295 325.352 132.295 325.352C129.014 325.352 126.43 324.25 124.543 322.047C122.668 319.832 121.73 316.797 121.73 312.941V311.377C121.73 308.916 122.164 306.748 123.031 304.873C123.898 302.998 125.135 301.562 126.74 300.566C128.357 299.559 130.232 299.055 132.365 299.055C135.318 299.055 137.697 299.846 139.502 301.428C141.307 303.01 142.35 305.23 142.631 308.09H137.357C137.229 306.438 136.766 305.242 135.969 304.504C135.184 303.754 133.982 303.379 132.365 303.379C130.607 303.379 129.289 304.012 128.41 305.277C127.543 306.531 127.098 308.482 127.074 311.131V313.064C127.074 315.83 127.49 317.852 128.322 319.129C129.166 320.406 130.49 321.045 132.295 321.045C133.924 321.045 135.137 320.676 135.934 319.938C136.742 319.188 137.205 318.033 137.322 316.475H142.596ZM150.682 308.055C152.029 306.438 153.723 305.629 155.762 305.629C159.887 305.629 161.979 308.025 162.037 312.818V325H156.957V312.959C156.957 311.869 156.723 311.066 156.254 310.551C155.785 310.023 155.006 309.76 153.916 309.76C152.428 309.76 151.35 310.334 150.682 311.482V325H145.602V298H150.682V308.055ZM176.891 325C176.656 324.543 176.486 323.975 176.381 323.295C175.15 324.666 173.551 325.352 171.582 325.352C169.719 325.352 168.172 324.812 166.941 323.734C165.723 322.656 165.113 321.297 165.113 319.656C165.113 317.641 165.857 316.094 167.346 315.016C168.846 313.938 171.008 313.393 173.832 313.381H176.17V312.291C176.17 311.412 175.941 310.709 175.484 310.182C175.039 309.654 174.33 309.391 173.357 309.391C172.502 309.391 171.828 309.596 171.336 310.006C170.855 310.416 170.615 310.979 170.615 311.693H165.535C165.535 310.592 165.875 309.572 166.555 308.635C167.234 307.697 168.195 306.965 169.438 306.438C170.68 305.898 172.074 305.629 173.621 305.629C175.965 305.629 177.822 306.221 179.193 307.404C180.576 308.576 181.268 310.229 181.268 312.361V320.605C181.279 322.41 181.531 323.775 182.023 324.701V325H176.891ZM172.689 321.467C173.439 321.467 174.131 321.303 174.764 320.975C175.396 320.635 175.865 320.184 176.17 319.621V316.352H174.271C171.729 316.352 170.375 317.23 170.211 318.988L170.193 319.287C170.193 319.92 170.416 320.441 170.861 320.852C171.307 321.262 171.916 321.467 172.689 321.467ZM189.846 305.98L190.004 308.178C191.363 306.479 193.186 305.629 195.471 305.629C197.486 305.629 198.986 306.221 199.971 307.404C200.955 308.588 201.459 310.357 201.482 312.713V325H196.402V312.836C196.402 311.758 196.168 310.979 195.699 310.498C195.23 310.006 194.451 309.76 193.361 309.76C191.932 309.76 190.859 310.369 190.145 311.588V325H185.064V305.98H189.846ZM204.611 315.35C204.611 312.432 205.303 310.082 206.686 308.301C208.08 306.52 209.955 305.629 212.311 305.629C214.396 305.629 216.02 306.344 217.18 307.773L217.391 305.98H221.996V324.367C221.996 326.031 221.615 327.479 220.854 328.709C220.104 329.939 219.043 330.877 217.672 331.521C216.301 332.166 214.695 332.488 212.855 332.488C211.461 332.488 210.102 332.207 208.777 331.645C207.453 331.094 206.451 330.379 205.771 329.5L208.021 326.406C209.287 327.824 210.822 328.533 212.627 328.533C213.975 328.533 215.023 328.17 215.773 327.443C216.523 326.729 216.898 325.709 216.898 324.385V323.365C215.727 324.689 214.186 325.352 212.275 325.352C209.99 325.352 208.139 324.461 206.721 322.68C205.314 320.887 204.611 318.514 204.611 315.561V315.35ZM209.691 315.719C209.691 317.441 210.037 318.795 210.729 319.779C211.42 320.752 212.369 321.238 213.576 321.238C215.123 321.238 216.23 320.658 216.898 319.498V311.5C216.219 310.34 215.123 309.76 213.611 309.76C212.393 309.76 211.432 310.258 210.729 311.254C210.037 312.25 209.691 313.738 209.691 315.719ZM234.67 325.352C231.881 325.352 229.607 324.496 227.85 322.785C226.104 321.074 225.23 318.795 225.23 315.947V315.455C225.23 313.545 225.6 311.84 226.338 310.34C227.076 308.828 228.119 307.668 229.467 306.859C230.826 306.039 232.373 305.629 234.107 305.629C236.709 305.629 238.754 306.449 240.242 308.09C241.742 309.73 242.492 312.057 242.492 315.068V317.143H230.381C230.545 318.385 231.037 319.381 231.857 320.131C232.689 320.881 233.738 321.256 235.004 321.256C236.961 321.256 238.49 320.547 239.592 319.129L242.088 321.924C241.326 323.002 240.295 323.846 238.994 324.455C237.693 325.053 236.252 325.352 234.67 325.352ZM234.09 309.742C233.082 309.742 232.262 310.082 231.629 310.762C231.008 311.441 230.609 312.414 230.434 313.68H237.5V313.275C237.477 312.15 237.172 311.283 236.586 310.674C236 310.053 235.168 309.742 234.09 309.742ZM291.131 316.088H281.234V311.992H291.131V316.088ZM305.58 314.084L295.367 310.516V305.629L310.678 312.045V316.176L295.367 322.609V317.705L305.58 314.084ZM376.895 325V299.406H384.77C387.02 299.406 389.029 299.916 390.799 300.936C392.58 301.943 393.969 303.385 394.965 305.26C395.961 307.123 396.459 309.244 396.459 311.623V312.801C396.459 315.18 395.967 317.295 394.982 319.146C394.01 320.998 392.633 322.434 390.852 323.453C389.07 324.473 387.061 324.988 384.822 325H376.895ZM382.168 303.678V320.764H384.717C386.779 320.764 388.355 320.09 389.445 318.742C390.535 317.395 391.092 315.467 391.115 312.959V311.605C391.115 309.004 390.576 307.035 389.498 305.699C388.42 304.352 386.844 303.678 384.77 303.678H382.168ZM405.336 325H400.238V305.98H405.336V325ZM399.939 301.059C399.939 300.297 400.191 299.67 400.695 299.178C401.211 298.686 401.908 298.439 402.787 298.439C403.654 298.439 404.346 298.686 404.861 299.178C405.377 299.67 405.635 300.297 405.635 301.059C405.635 301.832 405.371 302.465 404.844 302.957C404.328 303.449 403.643 303.695 402.787 303.695C401.932 303.695 401.24 303.449 400.713 302.957C400.197 302.465 399.939 301.832 399.939 301.059ZM410.926 325V309.707H408.096V305.98H410.926V304.363C410.926 302.23 411.535 300.578 412.754 299.406C413.984 298.223 415.701 297.631 417.904 297.631C418.607 297.631 419.469 297.748 420.488 297.982L420.436 301.92C420.014 301.814 419.498 301.762 418.889 301.762C416.979 301.762 416.023 302.658 416.023 304.451V305.98H419.803V309.707H416.023V325H410.926ZM423.828 325V309.707H420.998V305.98H423.828V304.363C423.828 302.23 424.438 300.578 425.656 299.406C426.887 298.223 428.604 297.631 430.807 297.631C431.51 297.631 432.371 297.748 433.391 297.982L433.338 301.92C432.916 301.814 432.4 301.762 431.791 301.762C429.881 301.762 428.926 302.658 428.926 304.451V305.98H432.705V309.707H428.926V325H423.828ZM443.674 325.352C440.885 325.352 438.611 324.496 436.854 322.785C435.107 321.074 434.234 318.795 434.234 315.947V315.455C434.234 313.545 434.604 311.84 435.342 310.34C436.08 308.828 437.123 307.668 438.471 306.859C439.83 306.039 441.377 305.629 443.111 305.629C445.713 305.629 447.758 306.449 449.246 308.09C450.746 309.73 451.496 312.057 451.496 315.068V317.143H439.385C439.549 318.385 440.041 319.381 440.861 320.131C441.693 320.881 442.742 321.256 444.008 321.256C445.965 321.256 447.494 320.547 448.596 319.129L451.092 321.924C450.33 323.002 449.299 323.846 447.998 324.455C446.697 325.053 445.256 325.352 443.674 325.352ZM443.094 309.742C442.086 309.742 441.266 310.082 440.633 310.762C440.012 311.441 439.613 312.414 439.438 313.68H446.504V313.275C446.48 312.15 446.176 311.283 445.59 310.674C445.004 310.053 444.172 309.742 443.094 309.742ZM465.084 310.744C464.393 310.65 463.783 310.604 463.256 310.604C461.334 310.604 460.074 311.254 459.477 312.555V325H454.396V305.98H459.195L459.336 308.248C460.355 306.502 461.768 305.629 463.572 305.629C464.135 305.629 464.662 305.705 465.154 305.857L465.084 310.744ZM475.947 325.352C473.158 325.352 470.885 324.496 469.127 322.785C467.381 321.074 466.508 318.795 466.508 315.947V315.455C466.508 313.545 466.877 311.84 467.615 310.34C468.354 308.828 469.396 307.668 470.744 306.859C472.104 306.039 473.65 305.629 475.385 305.629C477.986 305.629 480.031 306.449 481.52 308.09C483.02 309.73 483.77 312.057 483.77 315.068V317.143H471.658C471.822 318.385 472.314 319.381 473.135 320.131C473.967 320.881 475.016 321.256 476.281 321.256C478.238 321.256 479.768 320.547 480.869 319.129L483.365 321.924C482.604 323.002 481.572 323.846 480.271 324.455C478.971 325.053 477.529 325.352 475.947 325.352ZM475.367 309.742C474.359 309.742 473.539 310.082 472.906 310.762C472.285 311.441 471.887 312.414 471.711 313.68H478.777V313.275C478.754 312.15 478.449 311.283 477.863 310.674C477.277 310.053 476.445 309.742 475.367 309.742ZM491.346 305.98L491.504 308.178C492.863 306.479 494.686 305.629 496.971 305.629C498.986 305.629 500.486 306.221 501.471 307.404C502.455 308.588 502.959 310.357 502.982 312.713V325H497.902V312.836C497.902 311.758 497.668 310.979 497.199 310.498C496.73 310.006 495.951 309.76 494.861 309.76C493.432 309.76 492.359 310.369 491.645 311.588V325H486.564V305.98H491.346ZM514.76 321.256C515.697 321.256 516.459 320.998 517.045 320.482C517.631 319.967 517.936 319.281 517.959 318.426H522.723C522.711 319.715 522.359 320.898 521.668 321.977C520.977 323.043 520.027 323.875 518.82 324.473C517.625 325.059 516.301 325.352 514.848 325.352C512.129 325.352 509.984 324.49 508.414 322.768C506.844 321.033 506.059 318.643 506.059 315.596V315.262C506.059 312.332 506.838 309.994 508.396 308.248C509.955 306.502 512.094 305.629 514.812 305.629C517.191 305.629 519.096 306.309 520.525 307.668C521.967 309.016 522.699 310.814 522.723 313.064H517.959C517.936 312.08 517.631 311.283 517.045 310.674C516.459 310.053 515.686 309.742 514.725 309.742C513.541 309.742 512.645 310.176 512.035 311.043C511.438 311.898 511.139 313.293 511.139 315.227V315.754C511.139 317.711 511.438 319.117 512.035 319.973C512.633 320.828 513.541 321.256 514.76 321.256ZM534.377 325.352C531.588 325.352 529.314 324.496 527.557 322.785C525.811 321.074 524.938 318.795 524.938 315.947V315.455C524.938 313.545 525.307 311.84 526.045 310.34C526.783 308.828 527.826 307.668 529.174 306.859C530.533 306.039 532.08 305.629 533.814 305.629C536.416 305.629 538.461 306.449 539.949 308.09C541.449 309.73 542.199 312.057 542.199 315.068V317.143H530.088C530.252 318.385 530.744 319.381 531.564 320.131C532.396 320.881 533.445 321.256 534.711 321.256C536.668 321.256 538.197 320.547 539.299 319.129L541.795 321.924C541.033 323.002 540.002 323.846 538.701 324.455C537.4 325.053 535.959 325.352 534.377 325.352ZM533.797 309.742C532.789 309.742 531.969 310.082 531.336 310.762C530.715 311.441 530.316 312.414 530.141 313.68H537.207V313.275C537.184 312.15 536.879 311.283 536.293 310.674C535.707 310.053 534.875 309.742 533.797 309.742ZM626.697 316.088H616.801V311.992H626.697V316.088ZM641.146 314.084L630.934 310.516V305.629L646.244 312.045V316.176L630.934 322.609V317.705L641.146 314.084ZM757.795 315.631H753.594V325H748.32V299.406H757.83C760.854 299.406 763.186 300.08 764.826 301.428C766.467 302.775 767.287 304.68 767.287 307.141C767.287 308.887 766.906 310.346 766.145 311.518C765.395 312.678 764.252 313.604 762.717 314.295L768.254 324.754V325H762.594L757.795 315.631ZM753.594 311.359H757.848C759.172 311.359 760.197 311.025 760.924 310.357C761.65 309.678 762.014 308.746 762.014 307.562C762.014 306.355 761.668 305.406 760.977 304.715C760.297 304.023 759.248 303.678 757.83 303.678H753.594V311.359ZM779.732 325.352C776.943 325.352 774.67 324.496 772.912 322.785C771.166 321.074 770.293 318.795 770.293 315.947V315.455C770.293 313.545 770.662 311.84 771.4 310.34C772.139 308.828 773.182 307.668 774.529 306.859C775.889 306.039 777.436 305.629 779.17 305.629C781.771 305.629 783.816 306.449 785.305 308.09C786.805 309.73 787.555 312.057 787.555 315.068V317.143H775.443C775.607 318.385 776.1 319.381 776.92 320.131C777.752 320.881 778.801 321.256 780.066 321.256C782.023 321.256 783.553 320.547 784.654 319.129L787.15 321.924C786.389 323.002 785.357 323.846 784.057 324.455C782.756 325.053 781.314 325.352 779.732 325.352ZM779.152 309.742C778.145 309.742 777.324 310.082 776.691 310.762C776.07 311.441 775.672 312.414 775.496 313.68H782.562V313.275C782.539 312.15 782.234 311.283 781.648 310.674C781.062 310.053 780.23 309.742 779.152 309.742ZM800.334 316.088H790.438V311.992H800.334V316.088ZM815.1 310.744C814.408 310.65 813.799 310.604 813.271 310.604C811.35 310.604 810.09 311.254 809.492 312.555V325H804.412V305.98H809.211L809.352 308.248C810.371 306.502 811.783 305.629 813.588 305.629C814.15 305.629 814.678 305.705 815.17 305.857L815.1 310.744ZM825.963 325.352C823.174 325.352 820.9 324.496 819.143 322.785C817.396 321.074 816.523 318.795 816.523 315.947V315.455C816.523 313.545 816.893 311.84 817.631 310.34C818.369 308.828 819.412 307.668 820.76 306.859C822.119 306.039 823.666 305.629 825.4 305.629C828.002 305.629 830.047 306.449 831.535 308.09C833.035 309.73 833.785 312.057 833.785 315.068V317.143H821.674C821.838 318.385 822.33 319.381 823.15 320.131C823.982 320.881 825.031 321.256 826.297 321.256C828.254 321.256 829.783 320.547 830.885 319.129L833.381 321.924C832.619 323.002 831.588 323.846 830.287 324.455C828.986 325.053 827.545 325.352 825.963 325.352ZM825.383 309.742C824.375 309.742 823.555 310.082 822.922 310.762C822.301 311.441 821.902 312.414 821.727 313.68H828.793V313.275C828.77 312.15 828.465 311.283 827.879 310.674C827.293 310.053 826.461 309.742 825.383 309.742ZM841.361 305.98L841.52 308.178C842.879 306.479 844.701 305.629 846.986 305.629C849.002 305.629 850.502 306.221 851.486 307.404C852.471 308.588 852.975 310.357 852.998 312.713V325H847.918V312.836C847.918 311.758 847.684 310.979 847.215 310.498C846.746 310.006 845.967 309.76 844.877 309.76C843.447 309.76 842.375 310.369 841.66 311.588V325H836.58V305.98H841.361ZM856.074 315.35C856.074 312.385 856.736 310.023 858.061 308.266C859.396 306.508 861.219 305.629 863.527 305.629C865.379 305.629 866.908 306.32 868.115 307.703V298H873.213V325H868.625L868.379 322.979C867.113 324.561 865.484 325.352 863.492 325.352C861.254 325.352 859.455 324.473 858.096 322.715C856.748 320.945 856.074 318.49 856.074 315.35ZM861.154 315.719C861.154 317.5 861.465 318.865 862.086 319.814C862.707 320.764 863.609 321.238 864.793 321.238C866.363 321.238 867.471 320.576 868.115 319.252V311.746C867.482 310.422 866.387 309.76 864.828 309.76C862.379 309.76 861.154 311.746 861.154 315.719ZM885.904 325.352C883.115 325.352 880.842 324.496 879.084 322.785C877.338 321.074 876.465 318.795 876.465 315.947V315.455C876.465 313.545 876.834 311.84 877.572 310.34C878.311 308.828 879.354 307.668 880.701 306.859C882.061 306.039 883.607 305.629 885.342 305.629C887.943 305.629 889.988 306.449 891.477 308.09C892.977 309.73 893.727 312.057 893.727 315.068V317.143H881.615C881.779 318.385 882.271 319.381 883.092 320.131C883.924 320.881 884.973 321.256 886.238 321.256C888.195 321.256 889.725 320.547 890.826 319.129L893.322 321.924C892.561 323.002 891.529 323.846 890.229 324.455C888.928 325.053 887.486 325.352 885.904 325.352ZM885.324 309.742C884.316 309.742 883.496 310.082 882.863 310.762C882.242 311.441 881.844 312.414 881.668 313.68H888.734V313.275C888.711 312.15 888.406 311.283 887.82 310.674C887.234 310.053 886.402 309.742 885.324 309.742ZM907.314 310.744C906.623 310.65 906.014 310.604 905.486 310.604C903.564 310.604 902.305 311.254 901.707 312.555V325H896.627V305.98H901.426L901.566 308.248C902.586 306.502 903.998 305.629 905.803 305.629C906.365 305.629 906.893 305.705 907.385 305.857L907.314 310.744Z" fill="black"/>
<circle cx="475" cy="409" r="24" fill="white" stroke="black" stroke-width="4"/>
<circle cx="356" cy="601" r="24" fill="white" stroke="black" stroke-width="4"/>
<circle cx="452" cy="601" r="24" fill="white" stroke="black" stroke-width="4"/>
<circle cx="548" cy="601" r="24" fill="white" stroke="black" stroke-width="4"/>
<circle cx="548" cy="501" r="24" fill="white" stroke="black" stroke-width="4"/>
<circle cx="405" cy="504" r="24" fill="white" stroke="black" stroke-width="4"/>
<line x1="459.772" y1="425.294" x2="423.552" y2="485.195" stroke="black" stroke-width="5"/>
<line x1="550.5" y1="525" x2="550.5" y2="575.249" stroke="black" stroke-width="5"/>
<line x1="495.034" y1="425.547" x2="535.725" y2="482.505" stroke="black" stroke-width="5"/>
<line x1="395.139" y1="528.294" x2="364.094" y2="579.637" stroke="black" stroke-width="5"/>
<line x1="418.555" y1="526.064" x2="445.183" y2="579.832" stroke="black" stroke-width="5"/>
<circle cx="836" cy="409" r="24" fill="white" stroke="black" stroke-width="4"/>
<circle cx="717" cy="601" r="24" fill="white" stroke="black" stroke-width="4"/>
<circle cx="813" cy="601" r="24" fill="white" stroke="black" stroke-width="4"/>
<circle cx="909" cy="601" r="24" fill="#FF0000" stroke="black" stroke-width="4"/>
<circle cx="909" cy="501" r="24" fill="#FF0000" stroke="black" stroke-width="4"/>
<circle cx="766" cy="504" r="24" fill="white" stroke="black" stroke-width="4"/>
<line x1="820.772" y1="425.294" x2="784.552" y2="485.195" stroke="black" stroke-width="5"/>
<line x1="911.5" y1="525" x2="911.5" y2="575.249" stroke="black" stroke-width="5"/>
<line x1="856.034" y1="425.547" x2="896.725" y2="482.505" stroke="black" stroke-width="5"/>
<line x1="756.139" y1="528.294" x2="725.094" y2="579.637" stroke="black" stroke-width="5"/>
<line x1="779.555" y1="526.064" x2="806.183" y2="579.832" stroke="black" stroke-width="5"/>
<circle cx="816" cy="221" r="24" fill="white" stroke="black" stroke-width="4"/>
<circle cx="718" cy="221" r="24" fill="white" stroke="black" stroke-width="4"/>
<circle cx="766" cy="124" r="24" fill="white" stroke="black" stroke-width="4"/>
<circle cx="836" cy="29" r="24" fill="white" stroke="black" stroke-width="4"/>
<circle cx="717" cy="222" r="24" fill="white" stroke="black" stroke-width="4"/>
<circle cx="909" cy="222" r="24" fill="#FF0000" stroke="black" stroke-width="4"/>
<circle cx="909" cy="122" r="24" fill="#FF0000" stroke="black" stroke-width="4"/>
<circle cx="766" cy="125" r="24" fill="white" stroke="black" stroke-width="4"/>
<line x1="820.772" y1="46.2935" x2="784.552" y2="106.195" stroke="black" stroke-width="5"/>
<line x1="911.5" y1="146" x2="911.5" y2="196.249" stroke="black" stroke-width="5"/>
<line x1="856.034" y1="46.5468" x2="896.725" y2="103.505" stroke="black" stroke-width="5"/>
<line x1="756.139" y1="149.294" x2="725.094" y2="200.637" stroke="black" stroke-width="5"/>
<line x1="779.555" y1="147.064" x2="806.183" y2="200.832" stroke="black" stroke-width="5"/>
<circle cx="455" cy="222" r="24" fill="white" stroke="black" stroke-width="4"/>
<circle cx="405" cy="125" r="24" fill="white" stroke="black" stroke-width="4"/>
<circle cx="477" cy="30" r="24" fill="white" stroke="black" stroke-width="4"/>
<circle cx="356" cy="222" r="24" fill="white" stroke="black" stroke-width="4"/>
<circle cx="548" cy="222" r="24" fill="#FF0000" stroke="black" stroke-width="4"/>
<circle cx="548" cy="122" r="24" fill="#FF0000" stroke="black" stroke-width="4"/>
<circle cx="405" cy="125" r="24" fill="white" stroke="black" stroke-width="4"/>
<line x1="459.772" y1="46.2935" x2="423.552" y2="106.195" stroke="black" stroke-width="5"/>
<line x1="550.5" y1="146" x2="550.5" y2="196.249" stroke="black" stroke-width="5"/>
<line x1="495.034" y1="46.5468" x2="535.725" y2="103.505" stroke="black" stroke-width="5"/>
<line x1="395.139" y1="149.294" x2="364.094" y2="200.637" stroke="black" stroke-width="5"/>
<line x1="418.555" y1="147.064" x2="445.183" y2="200.832" stroke="black" stroke-width="5"/>
<circle cx="145" cy="26" r="24" fill="white" stroke="black" stroke-width="4"/>
<circle cx="26" cy="218" r="24" fill="white" stroke="black" stroke-width="4"/>
<circle cx="122" cy="218" r="24" fill="white" stroke="black" stroke-width="4"/>
<circle cx="218" cy="218" r="24" fill="white" stroke="black" stroke-width="4"/>
<circle cx="218" cy="118" r="24" fill="#FF0101" stroke="black" stroke-width="4"/>
<circle cx="75" cy="121" r="24" fill="white" stroke="black" stroke-width="4"/>
<line x1="129.772" y1="42.2935" x2="93.5522" y2="102.195" stroke="black" stroke-width="5"/>
<line x1="220.5" y1="142" x2="220.5" y2="192.249" stroke="black" stroke-width="5"/>
<line x1="165.034" y1="42.5468" x2="205.725" y2="99.505" stroke="black" stroke-width="5"/>
<line x1="65.1393" y1="145.294" x2="34.0942" y2="196.637" stroke="black" stroke-width="5"/>
<line x1="88.5546" y1="143.064" x2="115.183" y2="196.832" stroke="black" stroke-width="5"/>
<circle cx="145" cy="409" r="24" fill="white" stroke="black" stroke-width="4"/>
<circle cx="26" cy="601" r="24" fill="white" stroke="black" stroke-width="4"/>
<circle cx="122" cy="601" r="24" fill="white" stroke="black" stroke-width="4"/>
<circle cx="218" cy="601" r="24" fill="white" stroke="black" stroke-width="4"/>
<circle cx="218" cy="501" r="24" fill="white" stroke="black" stroke-width="4"/>
<circle cx="75" cy="504" r="24" fill="white" stroke="black" stroke-width="4"/>
<line x1="129.772" y1="425.294" x2="93.5522" y2="485.195" stroke="black" stroke-width="5"/>
<line x1="220.5" y1="525" x2="220.5" y2="575.249" stroke="black" stroke-width="5"/>
<line x1="165.034" y1="425.547" x2="205.725" y2="482.505" stroke="black" stroke-width="5"/>
<line x1="65.1393" y1="528.294" x2="34.0942" y2="579.637" stroke="black" stroke-width="5"/>
<line x1="88.5546" y1="526.064" x2="115.183" y2="579.832" stroke="black" stroke-width="5"/>
<path d="M1067.95 109.539L1075.68 83.875H1083.51L1071.62 118H1064.29L1052.45 83.875H1060.26L1067.95 109.539ZM1093.45 118H1086.65V92.6406H1093.45V118ZM1086.25 86.0781C1086.25 85.0625 1086.59 84.2266 1087.26 83.5703C1087.95 82.9141 1088.88 82.5859 1090.05 82.5859C1091.2 82.5859 1092.12 82.9141 1092.81 83.5703C1093.5 84.2266 1093.84 85.0625 1093.84 86.0781C1093.84 87.1094 1093.49 87.9531 1092.79 88.6094C1092.1 89.2656 1091.19 89.5938 1090.05 89.5938C1088.91 89.5938 1087.98 89.2656 1087.28 88.6094C1086.59 87.9531 1086.25 87.1094 1086.25 86.0781ZM1113.3 98.9922C1112.38 98.8672 1111.56 98.8047 1110.86 98.8047C1108.3 98.8047 1106.62 99.6719 1105.82 101.406V118H1099.05V92.6406H1105.45L1105.63 95.6641C1106.99 93.3359 1108.88 92.1719 1111.28 92.1719C1112.03 92.1719 1112.73 92.2734 1113.39 92.4766L1113.3 98.9922ZM1125.86 86.4062V92.6406H1130.2V97.6094H1125.86V110.266C1125.86 111.203 1126.04 111.875 1126.4 112.281C1126.76 112.688 1127.45 112.891 1128.46 112.891C1129.21 112.891 1129.88 112.836 1130.45 112.727V117.859C1129.12 118.266 1127.76 118.469 1126.35 118.469C1121.6 118.469 1119.18 116.07 1119.09 111.273V97.6094H1115.38V92.6406H1119.09V86.4062H1125.86ZM1149.16 115.422C1147.48 117.453 1145.17 118.469 1142.22 118.469C1139.5 118.469 1137.42 117.688 1135.98 116.125C1134.56 114.562 1133.84 112.273 1133.8 109.258V92.6406H1140.58V109.023C1140.58 111.664 1141.78 112.984 1144.19 112.984C1146.48 112.984 1148.06 112.188 1148.92 110.594V92.6406H1155.72V118H1149.34L1149.16 115.422ZM1175.52 118C1175.21 117.391 1174.98 116.633 1174.84 115.727C1173.2 117.555 1171.07 118.469 1168.45 118.469C1165.96 118.469 1163.9 117.75 1162.26 116.312C1160.63 114.875 1159.82 113.062 1159.82 110.875C1159.82 108.188 1160.81 106.125 1162.8 104.688C1164.8 103.25 1167.68 102.523 1171.45 102.508H1174.56V101.055C1174.56 99.8828 1174.26 98.9453 1173.65 98.2422C1173.05 97.5391 1172.11 97.1875 1170.81 97.1875C1169.67 97.1875 1168.77 97.4609 1168.12 98.0078C1167.48 98.5547 1167.16 99.3047 1167.16 100.258H1160.38C1160.38 98.7891 1160.84 97.4297 1161.74 96.1797C1162.65 94.9297 1163.93 93.9531 1165.59 93.25C1167.24 92.5312 1169.1 92.1719 1171.16 92.1719C1174.29 92.1719 1176.77 92.9609 1178.59 94.5391C1180.44 96.1016 1181.36 98.3047 1181.36 101.148V112.141C1181.38 114.547 1181.71 116.367 1182.37 117.602V118H1175.52ZM1169.92 113.289C1170.92 113.289 1171.84 113.07 1172.69 112.633C1173.53 112.18 1174.16 111.578 1174.56 110.828V106.469H1172.03C1168.64 106.469 1166.84 107.641 1166.62 109.984L1166.59 110.383C1166.59 111.227 1166.89 111.922 1167.48 112.469C1168.08 113.016 1168.89 113.289 1169.92 113.289ZM1193.71 118H1186.91V82H1193.71V118ZM1074.34 174V139.875H1084.84C1087.84 139.875 1090.52 140.555 1092.88 141.914C1095.26 143.258 1097.11 145.18 1098.44 147.68C1099.77 150.164 1100.43 152.992 1100.43 156.164V157.734C1100.43 160.906 1099.77 163.727 1098.46 166.195C1097.16 168.664 1095.33 170.578 1092.95 171.938C1090.58 173.297 1087.9 173.984 1084.91 174H1074.34ZM1081.38 145.57V168.352H1084.77C1087.52 168.352 1089.62 167.453 1091.08 165.656C1092.53 163.859 1093.27 161.289 1093.3 157.945V156.141C1093.3 152.672 1092.59 150.047 1091.15 148.266C1089.71 146.469 1087.61 145.57 1084.84 145.57H1081.38ZM1133.59 157.711C1133.59 161.07 1133 164.016 1131.81 166.547C1130.62 169.078 1128.92 171.031 1126.7 172.406C1124.5 173.781 1121.97 174.469 1119.11 174.469C1116.28 174.469 1113.76 173.789 1111.54 172.43C1109.32 171.07 1107.6 169.133 1106.38 166.617C1105.16 164.086 1104.55 161.18 1104.53 157.898V156.211C1104.53 152.852 1105.13 149.898 1106.34 147.352C1107.55 144.789 1109.27 142.828 1111.47 141.469C1113.69 140.094 1116.22 139.406 1119.06 139.406C1121.91 139.406 1124.43 140.094 1126.63 141.469C1128.85 142.828 1130.56 144.789 1131.77 147.352C1132.98 149.898 1133.59 152.844 1133.59 156.188V157.711ZM1126.47 156.164C1126.47 152.586 1125.83 149.867 1124.55 148.008C1123.27 146.148 1121.44 145.219 1119.06 145.219C1116.7 145.219 1114.88 146.141 1113.6 147.984C1112.32 149.812 1111.67 152.5 1111.66 156.047V157.711C1111.66 161.195 1112.3 163.898 1113.58 165.82C1114.86 167.742 1116.7 168.703 1119.11 168.703C1121.47 168.703 1123.28 167.781 1124.55 165.938C1125.81 164.078 1126.45 161.375 1126.47 157.828V156.164ZM1147.89 139.875L1156.66 164.625L1165.38 139.875H1174.61V174H1167.55V164.672L1168.26 148.57L1159.05 174H1154.22L1145.03 148.594L1145.73 164.672V174H1138.7V139.875H1147.89Z" fill="black"/>
<path d="M1039.05 515V480.875H1051.01C1055.15 480.875 1058.29 481.672 1060.43 483.266C1062.57 484.844 1063.64 487.164 1063.64 490.227C1063.64 491.898 1063.21 493.375 1062.35 494.656C1061.49 495.922 1060.3 496.852 1058.77 497.445C1060.52 497.883 1061.89 498.766 1062.89 500.094C1063.91 501.422 1064.41 503.047 1064.41 504.969C1064.41 508.25 1063.37 510.734 1061.27 512.422C1059.18 514.109 1056.2 514.969 1052.32 515H1039.05ZM1046.09 500.141V509.352H1052.11C1053.77 509.352 1055.05 508.961 1055.98 508.18C1056.91 507.383 1057.38 506.289 1057.38 504.898C1057.38 501.773 1055.77 500.188 1052.53 500.141H1046.09ZM1046.09 495.172H1051.29C1054.84 495.109 1056.61 493.695 1056.61 490.93C1056.61 489.383 1056.16 488.273 1055.25 487.602C1054.36 486.914 1052.95 486.57 1051.01 486.57H1046.09V495.172ZM1083.52 495.992C1082.59 495.867 1081.78 495.805 1081.08 495.805C1078.52 495.805 1076.84 496.672 1076.04 498.406V515H1069.27V489.641H1075.66L1075.85 492.664C1077.21 490.336 1079.09 489.172 1081.5 489.172C1082.25 489.172 1082.95 489.273 1083.61 489.477L1083.52 495.992ZM1084.9 502.086C1084.9 499.57 1085.38 497.328 1086.35 495.359C1087.32 493.391 1088.71 491.867 1090.52 490.789C1092.35 489.711 1094.47 489.172 1096.88 489.172C1100.3 489.172 1103.09 490.219 1105.24 492.312C1107.41 494.406 1108.62 497.25 1108.88 500.844L1108.92 502.578C1108.92 506.469 1107.84 509.594 1105.66 511.953C1103.49 514.297 1100.58 515.469 1096.92 515.469C1093.27 515.469 1090.34 514.297 1088.16 511.953C1085.98 509.609 1084.9 506.422 1084.9 502.391V502.086ZM1091.67 502.578C1091.67 504.984 1092.12 506.828 1093.03 508.109C1093.94 509.375 1095.23 510.008 1096.92 510.008C1098.56 510.008 1099.84 509.383 1100.77 508.133C1101.69 506.867 1102.15 504.852 1102.15 502.086C1102.15 499.727 1101.69 497.898 1100.77 496.602C1099.84 495.305 1098.55 494.656 1096.88 494.656C1095.22 494.656 1093.94 495.305 1093.03 496.602C1092.12 497.883 1091.67 499.875 1091.67 502.578ZM1135.15 505.789L1138.48 489.641H1145.02L1138.55 515H1132.88L1128.07 499.039L1123.27 515H1117.62L1111.15 489.641H1117.69L1120.99 505.766L1125.63 489.641H1130.53L1135.15 505.789ZM1162.12 507.992C1162.12 507.164 1161.71 506.516 1160.88 506.047C1160.07 505.562 1158.76 505.133 1156.95 504.758C1150.91 503.492 1147.9 500.93 1147.9 497.07C1147.9 494.82 1148.83 492.945 1150.69 491.445C1152.56 489.93 1155.01 489.172 1158.02 489.172C1161.24 489.172 1163.81 489.93 1165.73 491.445C1167.67 492.961 1168.64 494.93 1168.64 497.352H1161.87C1161.87 496.383 1161.55 495.586 1160.93 494.961C1160.3 494.32 1159.33 494 1158 494C1156.86 494 1155.98 494.258 1155.35 494.773C1154.73 495.289 1154.41 495.945 1154.41 496.742C1154.41 497.492 1154.77 498.102 1155.47 498.57C1156.19 499.023 1157.39 499.422 1159.08 499.766C1160.77 500.094 1162.19 500.469 1163.34 500.891C1166.92 502.203 1168.71 504.477 1168.71 507.711C1168.71 510.023 1167.72 511.898 1165.73 513.336C1163.75 514.758 1161.19 515.469 1158.05 515.469C1155.92 515.469 1154.03 515.094 1152.38 514.344C1150.73 513.578 1149.45 512.539 1148.51 511.227C1147.57 509.898 1147.1 508.469 1147.1 506.938H1153.52C1153.59 508.141 1154.03 509.062 1154.86 509.703C1155.69 510.344 1156.8 510.664 1158.19 510.664C1159.48 510.664 1160.46 510.422 1161.12 509.938C1161.79 509.438 1162.12 508.789 1162.12 507.992ZM1184.77 515.469C1181.05 515.469 1178.02 514.328 1175.67 512.047C1173.34 509.766 1172.18 506.727 1172.18 502.93V502.273C1172.18 499.727 1172.67 497.453 1173.66 495.453C1174.64 493.438 1176.03 491.891 1177.83 490.812C1179.64 489.719 1181.7 489.172 1184.02 489.172C1187.48 489.172 1190.21 490.266 1192.2 492.453C1194.2 494.641 1195.2 497.742 1195.2 501.758V504.523H1179.05C1179.27 506.18 1179.92 507.508 1181.02 508.508C1182.12 509.508 1183.52 510.008 1185.21 510.008C1187.82 510.008 1189.86 509.062 1191.33 507.172L1194.66 510.898C1193.64 512.336 1192.27 513.461 1190.53 514.273C1188.8 515.07 1186.88 515.469 1184.77 515.469ZM1183.99 494.656C1182.65 494.656 1181.55 495.109 1180.71 496.016C1179.88 496.922 1179.35 498.219 1179.12 499.906H1188.54V499.367C1188.51 497.867 1188.1 496.711 1187.32 495.898C1186.54 495.07 1185.43 494.656 1183.99 494.656ZM1213.31 495.992C1212.39 495.867 1211.58 495.805 1210.88 495.805C1208.31 495.805 1206.63 496.672 1205.84 498.406V515H1199.06V489.641H1205.46L1205.65 492.664C1207.01 490.336 1208.89 489.172 1211.3 489.172C1212.05 489.172 1212.75 489.273 1213.41 489.477L1213.31 495.992ZM1074.84 571V536.875H1085.34C1088.34 536.875 1091.02 537.555 1093.38 538.914C1095.76 540.258 1097.61 542.18 1098.94 544.68C1100.27 547.164 1100.93 549.992 1100.93 553.164V554.734C1100.93 557.906 1100.27 560.727 1098.96 563.195C1097.66 565.664 1095.83 567.578 1093.45 568.938C1091.08 570.297 1088.4 570.984 1085.41 571H1074.84ZM1081.88 542.57V565.352H1085.27C1088.02 565.352 1090.12 564.453 1091.58 562.656C1093.03 560.859 1093.77 558.289 1093.8 554.945V553.141C1093.8 549.672 1093.09 547.047 1091.65 545.266C1090.21 543.469 1088.11 542.57 1085.34 542.57H1081.88ZM1134.09 554.711C1134.09 558.07 1133.5 561.016 1132.31 563.547C1131.12 566.078 1129.42 568.031 1127.2 569.406C1125 570.781 1122.47 571.469 1119.61 571.469C1116.78 571.469 1114.26 570.789 1112.04 569.43C1109.82 568.07 1108.1 566.133 1106.88 563.617C1105.66 561.086 1105.05 558.18 1105.03 554.898V553.211C1105.03 549.852 1105.63 546.898 1106.84 544.352C1108.05 541.789 1109.77 539.828 1111.97 538.469C1114.19 537.094 1116.72 536.406 1119.56 536.406C1122.41 536.406 1124.93 537.094 1127.13 538.469C1129.35 539.828 1131.06 541.789 1132.27 544.352C1133.48 546.898 1134.09 549.844 1134.09 553.188V554.711ZM1126.97 553.164C1126.97 549.586 1126.33 546.867 1125.05 545.008C1123.77 543.148 1121.94 542.219 1119.56 542.219C1117.2 542.219 1115.38 543.141 1114.1 544.984C1112.82 546.812 1112.17 549.5 1112.16 553.047V554.711C1112.16 558.195 1112.8 560.898 1114.08 562.82C1115.36 564.742 1117.2 565.703 1119.61 565.703C1121.97 565.703 1123.78 564.781 1125.05 562.938C1126.31 561.078 1126.95 558.375 1126.97 554.828V553.164ZM1148.39 536.875L1157.16 561.625L1165.88 536.875H1175.11V571H1168.05V561.672L1168.76 545.57L1159.55 571H1154.72L1145.53 545.594L1146.23 561.672V571H1139.2V536.875H1148.39Z" fill="black"/>
</svg>
