<svg width="1016" height="899" viewBox="0 0 1016 899" fill="none" xmlns="http://www.w3.org/2000/svg">
<path d="M504.59 538.05C554.058 538.05 594.16 497.948 594.16 448.48C594.16 399.012 554.058 358.91 504.59 358.91C455.122 358.91 415.02 399.012 415.02 448.48C415.02 497.948 455.122 538.05 504.59 538.05Z" fill="#00D8FF"/>
<path d="M504.59 266.37C624.84 266.37 736.59 283.63 820.79 312.63C922.28 347.57 991.5 400.58 991.5 448.53C991.5 498.53 918.54 554.72 809.56 590.83C727.16 618.13 618.74 632.38 504.56 632.38C387.56 632.38 276.69 619 193.38 590.53C87.96 554.53 24.47 497.53 24.47 448.53C24.47 400.96 84.04 348.42 184.11 313.53C268.68 284 383.16 266.37 504.59 266.37Z" stroke="#00D8FF" stroke-width="48" stroke-miterlimit="10"/>
<path d="M346.06 358C406.13 253.83 476.89 165.68 544.06 107.19C625.06 36.73 702.06 9.18999 743.62 33.09C786.91 58.09 802.62 143.45 779.45 255.9C761.93 340.9 720.11 441.9 663.08 540.85C604.64 642.18 537.69 731.51 471.4 789.45C387.53 862.77 306.4 889.3 263.97 864.82C222.77 841.05 206.97 763.19 226.77 659.08C243.48 571.11 285.39 463.15 346.06 358Z" stroke="#00D8FF" stroke-width="48" stroke-miterlimit="10"/>
<path d="M346.21 541.06C286 437 244.92 331.66 227.82 244.23C207.21 138.9 221.82 58.36 263.28 34.33C306.53 9.33 388.36 38.33 474.21 114.57C539.12 172.2 605.77 258.89 663 357.69C721.6 459 765.55 561.59 782.65 648C804.28 757.29 786.77 840.79 744.34 865.35C703.18 889.18 627.85 863.95 547.53 794.83C479.66 736.39 407.05 646.15 346.21 541.06Z" stroke="#00D8FF" stroke-width="48" stroke-miterlimit="10"/>
</svg>
