<svg width="258" height="133" viewBox="0 0 258 133" fill="none" xmlns="http://www.w3.org/2000/svg">
<g filter="url(#filter0_d)">
<rect x="4.5824" y="20.4726" width="69.2532" height="92.5315" fill="white"/>
<rect x="5.5824" y="21.4726" width="67.2532" height="90.5315" stroke="black" stroke-width="2"/>
</g>
<rect x="17.3855" y="35.6035" width="43.647" height="62.2697" fill="#C4C4C4"/>
<g filter="url(#filter1_d)">
<rect x="4.5824" y="20.4726" width="69.2532" height="92.5315" fill="white"/>
<rect x="5.5824" y="21.4726" width="67.2532" height="90.5315" stroke="black" stroke-width="2"/>
</g>
<rect x="17.3855" y="35.6035" width="43.647" height="62.2697" fill="#C4C4C4"/>
<g filter="url(#filter2_d)">
<rect x="94.2041" y="20.4726" width="69.2532" height="92.5315" fill="white"/>
<rect x="95.2041" y="21.4726" width="67.2532" height="90.5315" stroke="black" stroke-width="2"/>
</g>
<rect x="107.007" y="35.6035" width="43.647" height="62.2697" fill="#C4C4C4"/>
<g filter="url(#filter3_d)">
<rect x="183.826" y="20.4726" width="69.2532" height="92.5315" fill="white"/>
<rect x="184.826" y="21.4726" width="67.2532" height="90.5315" stroke="black" stroke-width="2"/>
</g>
<rect x="196.629" y="35.6035" width="43.647" height="62.2697" fill="#C4C4C4"/>
<path d="M10.1875 128.9C10.1875 129.869 9.96484 130.648 9.51953 131.238C9.07422 131.824 8.47656 132.117 7.72656 132.117C6.92578 132.117 6.30664 131.834 5.86914 131.268L5.81641 132H4.82031V123H5.9043V126.357C6.3418 125.814 6.94531 125.543 7.71484 125.543C8.48438 125.543 9.08789 125.834 9.52539 126.416C9.9668 126.998 10.1875 127.795 10.1875 128.807V128.9ZM9.10352 128.777C9.10352 128.039 8.96094 127.469 8.67578 127.066C8.39062 126.664 7.98047 126.463 7.44531 126.463C6.73047 126.463 6.2168 126.795 5.9043 127.459V130.201C6.23633 130.865 6.75391 131.197 7.45703 131.197C7.97656 131.197 8.38086 130.996 8.66992 130.594C8.95898 130.191 9.10352 129.586 9.10352 128.777ZM11.2715 128.771C11.2715 128.15 11.3926 127.592 11.6348 127.096C11.8809 126.6 12.2207 126.217 12.6543 125.947C13.0918 125.678 13.5898 125.543 14.1484 125.543C15.0117 125.543 15.709 125.842 16.2402 126.439C16.7754 127.037 17.043 127.832 17.043 128.824V128.9C17.043 129.518 16.9238 130.072 16.6855 130.564C16.4512 131.053 16.1133 131.434 15.6719 131.707C15.2344 131.98 14.7305 132.117 14.1602 132.117C13.3008 132.117 12.6035 131.818 12.0684 131.221C11.5371 130.623 11.2715 129.832 11.2715 128.848V128.771ZM12.3613 128.9C12.3613 129.604 12.5234 130.168 12.8477 130.594C13.1758 131.02 13.6133 131.232 14.1602 131.232C14.7109 131.232 15.1484 131.018 15.4727 130.588C15.7969 130.154 15.959 129.549 15.959 128.771C15.959 128.076 15.793 127.514 15.4609 127.084C15.1328 126.65 14.6953 126.434 14.1484 126.434C13.6133 126.434 13.1816 126.646 12.8535 127.072C12.5254 127.498 12.3613 128.107 12.3613 128.9ZM20.4004 127.975L21.8066 125.66H23.0723L20.998 128.795L23.1367 132H21.8828L20.418 129.627L18.9531 132H17.6934L19.832 128.795L17.7578 125.66H19.0117L20.4004 127.975ZM26.4824 128.818H23.623V127.934H26.4824V128.818ZM31.2344 130.318C31.2344 130.025 31.123 129.799 30.9004 129.639C30.6816 129.475 30.2969 129.334 29.7461 129.217C29.1992 129.1 28.7637 128.959 28.4395 128.795C28.1191 128.631 27.8809 128.436 27.7246 128.209C27.5723 127.982 27.4961 127.713 27.4961 127.4C27.4961 126.881 27.7148 126.441 28.1523 126.082C28.5938 125.723 29.1562 125.543 29.8398 125.543C30.5586 125.543 31.1406 125.729 31.5859 126.1C32.0352 126.471 32.2598 126.945 32.2598 127.523H31.1699C31.1699 127.227 31.043 126.971 30.7891 126.756C30.5391 126.541 30.2227 126.434 29.8398 126.434C29.4453 126.434 29.1367 126.52 28.9141 126.691C28.6914 126.863 28.5801 127.088 28.5801 127.365C28.5801 127.627 28.6836 127.824 28.8906 127.957C29.0977 128.09 29.4707 128.217 30.0098 128.338C30.5527 128.459 30.9922 128.604 31.3281 128.771C31.6641 128.939 31.9121 129.143 32.0723 129.381C32.2363 129.615 32.3184 129.902 32.3184 130.242C32.3184 130.809 32.0918 131.264 31.6387 131.607C31.1855 131.947 30.5977 132.117 29.875 132.117C29.3672 132.117 28.918 132.027 28.5273 131.848C28.1367 131.668 27.8301 131.418 27.6074 131.098C27.3887 130.773 27.2793 130.424 27.2793 130.049H28.3633C28.3828 130.412 28.5273 130.701 28.7969 130.916C29.0703 131.127 29.4297 131.232 29.875 131.232C30.2852 131.232 30.6133 131.15 30.8594 130.986C31.1094 130.818 31.2344 130.596 31.2344 130.318ZM34.8145 126.428C35.2949 125.838 35.9199 125.543 36.6895 125.543C38.0293 125.543 38.7051 126.299 38.7168 127.811V132H37.6328V127.805C37.6289 127.348 37.5234 127.01 37.3164 126.791C37.1133 126.572 36.7949 126.463 36.3613 126.463C36.0098 126.463 35.7012 126.557 35.4355 126.744C35.1699 126.932 34.9629 127.178 34.8145 127.482V132H33.7305V123H34.8145V126.428ZM44.2539 132C44.1914 131.875 44.1406 131.652 44.1016 131.332C43.5977 131.855 42.9961 132.117 42.2969 132.117C41.6719 132.117 41.1582 131.941 40.7559 131.59C40.3574 131.234 40.1582 130.785 40.1582 130.242C40.1582 129.582 40.4082 129.07 40.9082 128.707C41.4121 128.34 42.1191 128.156 43.0293 128.156H44.084V127.658C44.084 127.279 43.9707 126.979 43.7441 126.756C43.5176 126.529 43.1836 126.416 42.7422 126.416C42.3555 126.416 42.0312 126.514 41.7695 126.709C41.5078 126.904 41.377 127.141 41.377 127.418H40.2871C40.2871 127.102 40.3984 126.797 40.6211 126.504C40.8477 126.207 41.1523 125.973 41.5352 125.801C41.9219 125.629 42.3457 125.543 42.8066 125.543C43.5371 125.543 44.1094 125.727 44.5234 126.094C44.9375 126.457 45.1523 126.959 45.168 127.6V130.518C45.168 131.1 45.2422 131.562 45.3906 131.906V132H44.2539ZM42.4551 131.174C42.7949 131.174 43.1172 131.086 43.4219 130.91C43.7266 130.734 43.9473 130.506 44.084 130.225V128.924H43.2344C41.9062 128.924 41.2422 129.312 41.2422 130.09C41.2422 130.43 41.3555 130.695 41.582 130.887C41.8086 131.078 42.0996 131.174 42.4551 131.174ZM46.6035 128.777C46.6035 127.805 46.834 127.023 47.2949 126.434C47.7559 125.84 48.3594 125.543 49.1055 125.543C49.8477 125.543 50.4355 125.797 50.8691 126.305V123H51.9531V132H50.957L50.9043 131.32C50.4707 131.852 49.8672 132.117 49.0938 132.117C48.3594 132.117 47.7598 131.816 47.2949 131.215C46.834 130.613 46.6035 129.828 46.6035 128.859V128.777ZM47.6875 128.9C47.6875 129.619 47.8359 130.182 48.1328 130.588C48.4297 130.994 48.8398 131.197 49.3633 131.197C50.0508 131.197 50.5527 130.889 50.8691 130.271V127.359C50.5449 126.762 50.0469 126.463 49.375 126.463C48.8438 126.463 48.4297 126.668 48.1328 127.078C47.8359 127.488 47.6875 128.096 47.6875 128.9ZM53.3535 128.771C53.3535 128.15 53.4746 127.592 53.7168 127.096C53.9629 126.6 54.3027 126.217 54.7363 125.947C55.1738 125.678 55.6719 125.543 56.2305 125.543C57.0938 125.543 57.791 125.842 58.3223 126.439C58.8574 127.037 59.125 127.832 59.125 128.824V128.9C59.125 129.518 59.0059 130.072 58.7676 130.564C58.5332 131.053 58.1953 131.434 57.7539 131.707C57.3164 131.98 56.8125 132.117 56.2422 132.117C55.3828 132.117 54.6855 131.818 54.1504 131.221C53.6191 130.623 53.3535 129.832 53.3535 128.848V128.771ZM54.4434 128.9C54.4434 129.604 54.6055 130.168 54.9297 130.594C55.2578 131.02 55.6953 131.232 56.2422 131.232C56.793 131.232 57.2305 131.018 57.5547 130.588C57.8789 130.154 58.041 129.549 58.041 128.771C58.041 128.076 57.875 127.514 57.543 127.084C57.2148 126.65 56.7773 126.434 56.2305 126.434C55.6953 126.434 55.2637 126.646 54.9355 127.072C54.6074 127.498 54.4434 128.107 54.4434 128.9ZM66.0977 130.506L67.3164 125.66H68.4004L66.5547 132H65.6758L64.1348 127.195L62.6348 132H61.7559L59.916 125.66H60.9941L62.2422 130.406L63.7188 125.66H64.5918L66.0977 130.506Z" fill="black"/>
<path d="M67.8563 3.13678L67.8856 3.8399C68.3505 3.29303 68.9774 3.01959 69.7665 3.01959C70.6532 3.01959 71.2567 3.35944 71.577 4.03912C71.788 3.73444 72.0614 3.48834 72.3973 3.30084C72.7372 3.11334 73.1376 3.01959 73.5985 3.01959C74.9891 3.01959 75.6962 3.75592 75.7196 5.22858V9.47662H74.6356V5.29303C74.6356 4.8399 74.5321 4.50201 74.3251 4.27936C74.118 4.0528 73.7704 3.93951 73.2821 3.93951C72.8798 3.93951 72.5458 4.06061 72.2802 4.3028C72.0145 4.54108 71.8602 4.86334 71.8173 5.26959V9.47662H70.7274V5.32233C70.7274 4.40045 70.2762 3.93951 69.3739 3.93951C68.663 3.93951 68.1766 4.24225 67.9149 4.84772V9.47662H66.8309V3.13678H67.8563ZM81.2743 9.47662C81.2118 9.35162 81.161 9.12897 81.1219 8.80865C80.618 9.33209 80.0165 9.59381 79.3173 9.59381C78.6923 9.59381 78.1786 9.41803 77.7762 9.06647C77.3778 8.711 77.1786 8.26178 77.1786 7.71881C77.1786 7.05865 77.4286 6.54694 77.9286 6.18365C78.4325 5.81647 79.1395 5.63287 80.0497 5.63287H81.1044V5.13483C81.1044 4.75592 80.9911 4.45514 80.7645 4.23248C80.538 4.00592 80.204 3.89264 79.7626 3.89264C79.3759 3.89264 79.0516 3.9903 78.7899 4.18561C78.5282 4.38092 78.3973 4.61725 78.3973 4.89459H77.3075C77.3075 4.57819 77.4188 4.2735 77.6415 3.98053C77.868 3.68365 78.1727 3.44928 78.5555 3.2774C78.9423 3.10553 79.3661 3.01959 79.827 3.01959C80.5575 3.01959 81.1298 3.20319 81.5438 3.57037C81.9579 3.93365 82.1727 4.43561 82.1884 5.07623V7.9942C82.1884 8.57623 82.2626 9.03912 82.411 9.38287V9.47662H81.2743ZM79.4755 8.65045C79.8153 8.65045 80.1376 8.56256 80.4423 8.38678C80.7469 8.211 80.9677 7.98248 81.1044 7.70123V6.40045H80.2548C78.9266 6.40045 78.2626 6.78912 78.2626 7.56647C78.2626 7.90631 78.3759 8.17194 78.6024 8.36334C78.829 8.55475 79.12 8.65045 79.4755 8.65045ZM86.952 4.10944C86.788 4.08209 86.6102 4.06842 86.4188 4.06842C85.7079 4.06842 85.2255 4.37115 84.9716 4.97662V9.47662H83.8876V3.13678H84.9423L84.9598 3.8692C85.3153 3.3028 85.8192 3.01959 86.4716 3.01959C86.6825 3.01959 86.8427 3.04694 86.952 3.10162V4.10944ZM87.579 6.25397C87.579 5.26569 87.8075 4.48053 88.2645 3.8985C88.7216 3.31256 89.327 3.01959 90.0809 3.01959C90.8544 3.01959 91.4579 3.29303 91.8915 3.8399L91.9442 3.13678H92.9344V9.32428C92.9344 10.1446 92.6903 10.7911 92.202 11.2637C91.7177 11.7364 91.0653 11.9727 90.245 11.9727C89.788 11.9727 89.3407 11.8751 88.9032 11.6797C88.4657 11.4844 88.1317 11.2169 87.9012 10.877L88.4637 10.2266C88.9286 10.8008 89.4969 11.088 90.1688 11.088C90.6962 11.088 91.1063 10.9395 91.3993 10.6426C91.6962 10.3458 91.8446 9.9278 91.8446 9.38873V8.84381C91.411 9.34381 90.8192 9.59381 90.0692 9.59381C89.327 9.59381 88.7255 9.29498 88.2645 8.69733C87.8075 8.09967 87.579 7.28522 87.579 6.25397ZM88.6688 6.37701C88.6688 7.09186 88.8153 7.65436 89.1083 8.06451C89.4012 8.47076 89.8114 8.67389 90.3387 8.67389C91.0223 8.67389 91.5243 8.36334 91.8446 7.74225V4.84772C91.5126 4.24225 91.0145 3.93951 90.3505 3.93951C89.8231 3.93951 89.411 4.14459 89.1141 4.55475C88.8173 4.9649 88.6688 5.57233 88.6688 6.37701ZM95.7528 9.47662H94.6688V3.13678H95.7528V9.47662ZM94.5809 1.45514C94.5809 1.27936 94.6337 1.13092 94.7391 1.00983C94.8485 0.888733 95.0087 0.828186 95.2196 0.828186C95.4305 0.828186 95.5907 0.888733 95.7001 1.00983C95.8094 1.13092 95.8641 1.27936 95.8641 1.45514C95.8641 1.63092 95.8094 1.7774 95.7001 1.89459C95.5907 2.01178 95.4305 2.07037 95.2196 2.07037C95.0087 2.07037 94.8485 2.01178 94.7391 1.89459C94.6337 1.7774 94.5809 1.63092 94.5809 1.45514ZM98.5184 3.13678L98.5536 3.93365C99.038 3.32428 99.6708 3.01959 100.452 3.01959C101.792 3.01959 102.468 3.77545 102.479 5.28717V9.47662H101.395V5.28131C101.391 4.82428 101.286 4.48639 101.079 4.26764C100.876 4.04889 100.557 3.93951 100.124 3.93951C99.7723 3.93951 99.4637 4.03326 99.1981 4.22076C98.9325 4.40826 98.7255 4.65436 98.577 4.95905V9.47662H97.493V3.13678H98.5184Z" fill="black"/>
<path d="M24.1184 105.774C24.1184 106.738 23.8977 107.516 23.4563 108.106C23.0149 108.695 22.4172 108.99 21.6633 108.99C20.8938 108.99 20.2883 108.746 19.8469 108.258V111.311H18.7629V102.533H19.7532L19.8059 103.237C20.2473 102.69 20.8606 102.416 21.6458 102.416C22.4075 102.416 23.009 102.703 23.4504 103.278C23.8958 103.852 24.1184 104.651 24.1184 105.674V105.774ZM23.0344 105.651C23.0344 104.936 22.8821 104.371 22.5774 103.957C22.2727 103.543 21.8547 103.336 21.3235 103.336C20.6672 103.336 20.175 103.627 19.8469 104.209V107.238C20.1711 107.817 20.6672 108.106 21.3352 108.106C21.8547 108.106 22.2668 107.901 22.5715 107.49C22.8801 107.076 23.0344 106.463 23.0344 105.651ZM29.4153 108.873C29.3528 108.748 29.302 108.526 29.2629 108.205C28.759 108.729 28.1575 108.99 27.4583 108.99C26.8333 108.99 26.3196 108.815 25.9172 108.463C25.5188 108.108 25.3196 107.658 25.3196 107.115C25.3196 106.455 25.5696 105.944 26.0696 105.58C26.5735 105.213 27.2805 105.029 28.1907 105.029H29.2454V104.531C29.2454 104.153 29.1321 103.852 28.9055 103.629C28.679 103.403 28.345 103.289 27.9036 103.289C27.5168 103.289 27.1926 103.387 26.9309 103.582C26.6692 103.778 26.5383 104.014 26.5383 104.291H25.4485C25.4485 103.975 25.5598 103.67 25.7825 103.377C26.009 103.08 26.3137 102.846 26.6965 102.674C27.0833 102.502 27.5071 102.416 27.968 102.416C28.6985 102.416 29.2708 102.6 29.6848 102.967C30.0989 103.33 30.3137 103.832 30.3293 104.473V107.391C30.3293 107.973 30.4036 108.436 30.552 108.779V108.873H29.4153ZM27.6165 108.047C27.9563 108.047 28.2786 107.959 28.5833 107.783C28.8879 107.608 29.1086 107.379 29.2454 107.098V105.797H28.3958C27.0676 105.797 26.4036 106.186 26.4036 106.963C26.4036 107.303 26.5168 107.569 26.7434 107.76C26.97 107.951 27.261 108.047 27.6165 108.047ZM31.7649 105.651C31.7649 104.678 31.9954 103.897 32.4563 103.307C32.9172 102.713 33.5208 102.416 34.2668 102.416C35.009 102.416 35.5969 102.67 36.0305 103.178V99.8732H37.1145V108.873H36.1184L36.0657 108.194C35.6321 108.725 35.0286 108.99 34.2551 108.99C33.5208 108.99 32.9211 108.69 32.4563 108.088C31.9954 107.487 31.7649 106.701 31.7649 105.733V105.651ZM32.8489 105.774C32.8489 106.492 32.9973 107.055 33.2942 107.461C33.5911 107.867 34.0012 108.07 34.5247 108.07C35.2122 108.07 35.7141 107.762 36.0305 107.145V104.233C35.7063 103.635 35.2083 103.336 34.5364 103.336C34.0051 103.336 33.5911 103.541 33.2942 103.951C32.9973 104.362 32.8489 104.969 32.8489 105.774ZM38.5383 105.651C38.5383 104.678 38.7688 103.897 39.2297 103.307C39.6907 102.713 40.2942 102.416 41.0403 102.416C41.7825 102.416 42.3704 102.67 42.804 103.178V99.8732H43.8879V108.873H42.8918L42.8391 108.194C42.4055 108.725 41.802 108.99 41.0286 108.99C40.2942 108.99 39.6946 108.69 39.2297 108.088C38.7688 107.487 38.5383 106.701 38.5383 105.733V105.651ZM39.6223 105.774C39.6223 106.492 39.7708 107.055 40.0676 107.461C40.3645 107.867 40.7747 108.07 41.2981 108.07C41.9856 108.07 42.4875 107.762 42.804 107.145V104.233C42.4797 103.635 41.9817 103.336 41.3098 103.336C40.7786 103.336 40.3645 103.541 40.0676 103.951C39.7708 104.362 39.6223 104.969 39.6223 105.774ZM46.7532 108.873H45.6692V102.533H46.7532V108.873ZM45.5813 100.852C45.5813 100.676 45.634 100.528 45.7395 100.406C45.8489 100.285 46.009 100.225 46.22 100.225C46.4309 100.225 46.5911 100.285 46.7004 100.406C46.8098 100.528 46.8645 100.676 46.8645 100.852C46.8645 101.028 46.8098 101.174 46.7004 101.291C46.5911 101.408 46.4309 101.467 46.22 101.467C46.009 101.467 45.8489 101.408 45.7395 101.291C45.634 101.174 45.5813 101.028 45.5813 100.852ZM49.5188 102.533L49.554 103.33C50.0383 102.721 50.6711 102.416 51.4524 102.416C52.7922 102.416 53.468 103.172 53.4797 104.684V108.873H52.3958V104.678C52.3918 104.221 52.2864 103.883 52.0793 103.664C51.8762 103.445 51.5579 103.336 51.1243 103.336C50.7727 103.336 50.4641 103.43 50.1985 103.617C49.9329 103.805 49.7258 104.051 49.5774 104.356V108.873H48.4934V102.533H49.5188ZM54.8567 105.651C54.8567 104.662 55.0852 103.877 55.5422 103.295C55.9993 102.709 56.6047 102.416 57.3586 102.416C58.1321 102.416 58.7356 102.69 59.1692 103.237L59.2219 102.533H60.2122V108.721C60.2122 109.541 59.968 110.188 59.4797 110.66C58.9954 111.133 58.343 111.369 57.5227 111.369C57.0657 111.369 56.6184 111.272 56.1809 111.076C55.7434 110.881 55.4094 110.613 55.179 110.274L55.7415 109.623C56.2063 110.197 56.7747 110.485 57.4465 110.485C57.9739 110.485 58.384 110.336 58.677 110.039C58.9739 109.742 59.1223 109.324 59.1223 108.785V108.24C58.6887 108.74 58.0969 108.99 57.3469 108.99C56.6047 108.99 56.0032 108.692 55.5422 108.094C55.0852 107.496 54.8567 106.682 54.8567 105.651ZM55.9465 105.774C55.9465 106.488 56.093 107.051 56.386 107.461C56.679 107.867 57.0891 108.07 57.6165 108.07C58.3 108.07 58.802 107.76 59.1223 107.139V104.244C58.7903 103.639 58.2922 103.336 57.6282 103.336C57.1008 103.336 56.6887 103.541 56.3918 103.951C56.095 104.362 55.9465 104.969 55.9465 105.774Z" fill="black"/>
<path d="M22.0723 45.8359C22.459 45.8359 22.7969 45.7188 23.0859 45.4844C23.375 45.25 23.5352 44.957 23.5664 44.6055H24.5918C24.5723 44.9688 24.4473 45.3145 24.2168 45.6426C23.9863 45.9707 23.6777 46.2324 23.291 46.4277C22.9082 46.623 22.502 46.7207 22.0723 46.7207C21.209 46.7207 20.5215 46.4336 20.0098 45.8594C19.502 45.2812 19.248 44.4922 19.248 43.4922V43.3105C19.248 42.6934 19.3613 42.1445 19.5879 41.6641C19.8145 41.1836 20.1387 40.8105 20.5605 40.5449C20.9863 40.2793 21.4883 40.1465 22.0664 40.1465C22.7773 40.1465 23.3672 40.3594 23.8359 40.7852C24.3086 41.2109 24.5605 41.7637 24.5918 42.4434H23.5664C23.5352 42.0332 23.3789 41.6973 23.0977 41.4355C22.8203 41.1699 22.4766 41.0371 22.0664 41.0371C21.5156 41.0371 21.0879 41.2363 20.7832 41.6348C20.4824 42.0293 20.332 42.6016 20.332 43.3516V43.5566C20.332 44.2871 20.4824 44.8496 20.7832 45.2441C21.084 45.6387 21.5137 45.8359 22.0723 45.8359ZM25.5234 43.375C25.5234 42.7539 25.6445 42.1953 25.8867 41.6992C26.1328 41.2031 26.4727 40.8203 26.9062 40.5508C27.3438 40.2812 27.8418 40.1465 28.4004 40.1465C29.2637 40.1465 29.9609 40.4453 30.4922 41.043C31.0273 41.6406 31.2949 42.4355 31.2949 43.4277V43.5039C31.2949 44.1211 31.1758 44.6758 30.9375 45.168C30.7031 45.6562 30.3652 46.0371 29.9238 46.3105C29.4863 46.584 28.9824 46.7207 28.4121 46.7207C27.5527 46.7207 26.8555 46.4219 26.3203 45.8242C25.7891 45.2266 25.5234 44.4355 25.5234 43.4512V43.375ZM26.6133 43.5039C26.6133 44.207 26.7754 44.7715 27.0996 45.1973C27.4277 45.623 27.8652 45.8359 28.4121 45.8359C28.9629 45.8359 29.4004 45.6211 29.7246 45.1914C30.0488 44.7578 30.2109 44.1523 30.2109 43.375C30.2109 42.6797 30.0449 42.1172 29.7129 41.6875C29.3848 41.2539 28.9473 41.0371 28.4004 41.0371C27.8652 41.0371 27.4336 41.25 27.1055 41.6758C26.7773 42.1016 26.6133 42.7109 26.6133 43.5039ZM33.6797 40.2637L33.7148 41.0605C34.1992 40.4512 34.832 40.1465 35.6133 40.1465C36.9531 40.1465 37.6289 40.9023 37.6406 42.4141V46.6035H36.5566V42.4082C36.5527 41.9512 36.4473 41.6133 36.2402 41.3945C36.0371 41.1758 35.7188 41.0664 35.2852 41.0664C34.9336 41.0664 34.625 41.1602 34.3594 41.3477C34.0938 41.5352 33.8867 41.7812 33.7383 42.0859V46.6035H32.6543V40.2637H33.6797ZM40.7461 38.7285V40.2637H41.9297V41.1016H40.7461V45.0332C40.7461 45.2871 40.7988 45.4785 40.9043 45.6074C41.0098 45.7324 41.1895 45.7949 41.4434 45.7949C41.5684 45.7949 41.7402 45.7715 41.959 45.7246V46.6035C41.6738 46.6816 41.3965 46.7207 41.127 46.7207C40.6426 46.7207 40.2773 46.5742 40.0312 46.2812C39.7852 45.9883 39.6621 45.5723 39.6621 45.0332V41.1016H38.5078V40.2637H39.6621V38.7285H40.7461ZM45.832 46.7207C44.9727 46.7207 44.2734 46.4395 43.7344 45.877C43.1953 45.3105 42.9258 44.5547 42.9258 43.6094V43.4102C42.9258 42.7812 43.0449 42.2207 43.2832 41.7285C43.5254 41.2324 43.8613 40.8457 44.291 40.5684C44.7246 40.2871 45.1934 40.1465 45.6973 40.1465C46.5215 40.1465 47.1621 40.418 47.6191 40.9609C48.0762 41.5039 48.3047 42.2812 48.3047 43.293V43.7441H44.0098C44.0254 44.3691 44.207 44.875 44.5547 45.2617C44.9062 45.6445 45.3516 45.8359 45.8906 45.8359C46.2734 45.8359 46.5977 45.7578 46.8633 45.6016C47.1289 45.4453 47.3613 45.2383 47.5605 44.9805L48.2227 45.4961C47.6914 46.3125 46.8945 46.7207 45.832 46.7207ZM45.6973 41.0371C45.2598 41.0371 44.8926 41.1973 44.5957 41.5176C44.2988 41.834 44.1152 42.2793 44.0449 42.8535H47.2207V42.7715C47.1895 42.2207 47.041 41.7949 46.7754 41.4941C46.5098 41.1895 46.1504 41.0371 45.6973 41.0371ZM50.5898 40.2637L50.625 41.0605C51.1094 40.4512 51.7422 40.1465 52.5234 40.1465C53.8633 40.1465 54.5391 40.9023 54.5508 42.4141V46.6035H53.4668V42.4082C53.4629 41.9512 53.3574 41.6133 53.1504 41.3945C52.9473 41.1758 52.6289 41.0664 52.1953 41.0664C51.8438 41.0664 51.5352 41.1602 51.2695 41.3477C51.0039 41.5352 50.7969 41.7812 50.6484 42.0859V46.6035H49.5645V40.2637H50.5898ZM57.6562 38.7285V40.2637H58.8398V41.1016H57.6562V45.0332C57.6562 45.2871 57.709 45.4785 57.8145 45.6074C57.9199 45.7324 58.0996 45.7949 58.3535 45.7949C58.4785 45.7949 58.6504 45.7715 58.8691 45.7246V46.6035C58.584 46.6816 58.3066 46.7207 58.0371 46.7207C57.5527 46.7207 57.1875 46.5742 56.9414 46.2812C56.6953 45.9883 56.5723 45.5723 56.5723 45.0332V41.1016H55.418V40.2637H56.5723V38.7285H57.6562Z" fill="black"/>
<path d="M11.3958 17.373C11.3958 18.3417 11.1731 19.121 10.7278 19.7109C10.2825 20.2968 9.68481 20.5898 8.93481 20.5898C8.13403 20.5898 7.51489 20.3066 7.07739 19.7402L7.02466 20.4726H6.02856V11.4726H7.11255V14.83C7.55005 14.287 8.15356 14.0156 8.9231 14.0156C9.69263 14.0156 10.2961 14.3066 10.7336 14.8886C11.175 15.4706 11.3958 16.2675 11.3958 17.2792V17.373ZM10.3118 17.2499C10.3118 16.5117 10.1692 15.9413 9.88403 15.539C9.59888 15.1367 9.18872 14.9355 8.65356 14.9355C7.93872 14.9355 7.42505 15.2675 7.11255 15.9316V18.6738C7.44458 19.3378 7.96216 19.6699 8.66528 19.6699C9.18481 19.6699 9.58911 19.4687 9.87817 19.0663C10.1672 18.664 10.3118 18.0585 10.3118 17.2499ZM12.4797 17.2441C12.4797 16.623 12.6008 16.0644 12.843 15.5683C13.0891 15.0722 13.429 14.6894 13.8625 14.4199C14.3 14.1503 14.7981 14.0156 15.3567 14.0156C16.22 14.0156 16.9172 14.3144 17.4485 14.912C17.9836 15.5097 18.2512 16.3046 18.2512 17.2968V17.373C18.2512 17.9902 18.1321 18.5449 17.8938 19.037C17.6594 19.5253 17.3215 19.9062 16.8801 20.1796C16.4426 20.4531 15.9387 20.5898 15.3684 20.5898C14.509 20.5898 13.8118 20.291 13.2766 19.6933C12.7454 19.0956 12.4797 18.3046 12.4797 17.3203V17.2441ZM13.5696 17.373C13.5696 18.0761 13.7317 18.6406 14.0559 19.0663C14.384 19.4921 14.8215 19.705 15.3684 19.705C15.9192 19.705 16.3567 19.4902 16.6809 19.0605C17.0051 18.6269 17.1672 18.0214 17.1672 17.2441C17.1672 16.5488 17.0012 15.9863 16.6692 15.5566C16.3411 15.123 15.9036 14.9062 15.3567 14.9062C14.8215 14.9062 14.3899 15.1191 14.0618 15.5449C13.7336 15.9706 13.5696 16.58 13.5696 17.373ZM22.675 15.1054C22.511 15.0781 22.3333 15.0644 22.1418 15.0644C21.4309 15.0644 20.9485 15.3671 20.6946 15.9726V20.4726H19.6106V14.1328H20.6653L20.6829 14.8652C21.0383 14.2988 21.5422 14.0156 22.1946 14.0156C22.4055 14.0156 22.5657 14.0429 22.675 14.0976V15.1054ZM23.2961 17.2499C23.2961 16.2773 23.5266 15.496 23.9875 14.9062C24.4485 14.3124 25.052 14.0156 25.7981 14.0156C26.5403 14.0156 27.1282 14.2695 27.5618 14.7773V11.4726H28.6458V20.4726H27.6497L27.5969 19.7929C27.1633 20.3242 26.5598 20.5898 25.7864 20.5898C25.052 20.5898 24.4524 20.289 23.9875 19.6874C23.5266 19.0859 23.2961 18.3007 23.2961 17.332V17.2499ZM24.3801 17.373C24.3801 18.0917 24.5286 18.6542 24.8254 19.0605C25.1223 19.4667 25.5325 19.6699 26.0559 19.6699C26.7434 19.6699 27.2454 19.3613 27.5618 18.7441V15.832C27.2375 15.2343 26.7395 14.9355 26.0676 14.9355C25.5364 14.9355 25.1223 15.1406 24.8254 15.5507C24.5286 15.9609 24.3801 16.5683 24.3801 17.373ZM32.9641 20.5898C32.1047 20.5898 31.4055 20.3085 30.8665 19.746C30.3274 19.1796 30.0579 18.4238 30.0579 17.4785V17.2792C30.0579 16.6503 30.177 16.0898 30.4153 15.5976C30.6575 15.1015 30.9934 14.7148 31.4231 14.4374C31.8567 14.1562 32.3254 14.0156 32.8293 14.0156C33.6536 14.0156 34.2942 14.287 34.7512 14.83C35.2083 15.373 35.4368 16.1503 35.4368 17.162V17.6132H31.1418C31.1575 18.2382 31.3391 18.7441 31.6868 19.1308C32.0383 19.5136 32.4836 19.705 33.0227 19.705C33.4055 19.705 33.7297 19.6269 33.9954 19.4706C34.261 19.3144 34.4934 19.1074 34.6926 18.8495L35.3547 19.3652C34.8235 20.1816 34.0266 20.5898 32.9641 20.5898ZM32.8293 14.9062C32.3918 14.9062 32.0247 15.0663 31.7278 15.3867C31.4309 15.7031 31.2473 16.1484 31.177 16.7226H34.3528V16.6406C34.3215 16.0898 34.1731 15.664 33.9075 15.3632C33.6418 15.0585 33.2825 14.9062 32.8293 14.9062ZM39.761 15.1054C39.5969 15.0781 39.4192 15.0644 39.2278 15.0644C38.5168 15.0644 38.0344 15.3671 37.7805 15.9726V20.4726H36.6965V14.1328H37.7512L37.7688 14.8652C38.1243 14.2988 38.6282 14.0156 39.2805 14.0156C39.4915 14.0156 39.6516 14.0429 39.761 14.0976V15.1054Z" fill="black"/>
<path d="M85.1629 35.9571C85.3582 36.1523 85.6748 36.1523 85.87 35.9571L89.052 32.7751C89.2473 32.5798 89.2473 32.2632 89.052 32.068C88.8568 31.8727 88.5402 31.8727 88.3449 32.068L85.5165 34.8964L82.6881 32.068C82.4928 31.8727 82.1762 31.8727 81.9809 32.068C81.7857 32.2632 81.7857 32.5798 81.9809 32.7751L85.1629 35.9571ZM85.0165 16.4726V35.6035H86.0165V16.4726H85.0165Z" fill="black"/>
<path d="M171.978 20.3876C172.203 20.2278 172.256 19.9158 172.097 19.6905L169.494 16.0195C169.334 15.7942 169.022 15.7411 168.797 15.9008C168.572 16.0605 168.518 16.3726 168.678 16.5979L170.992 19.861L167.729 22.1745C167.503 22.3342 167.45 22.6463 167.61 22.8715C167.77 23.0968 168.082 23.1499 168.307 22.9902L171.978 20.3876ZM107.007 9.47258L171.605 20.4726L171.773 19.4868L107.175 8.48677L107.007 9.47258Z" fill="black"/>
<line x1="94.2041" y1="104.373" x2="155.032" y2="104.373" stroke="black"/>
<line x1="154.532" y1="104.873" x2="154.532" y2="21.7866" stroke="black"/>
<path d="M154.575 104.133L162.046 111.529" stroke="black"/>
<path d="M99.656 105.943L97.5808 107.914L99.656 110.093M151.329 105.943L153.715 107.914L151.329 110.093M156.309 99.7173L158.073 102.519L159.941 99.7173M159.941 27.2924L158.073 24.0758L156.309 27.2924" stroke="black"/>
<path d="M113.769 109.791C113.769 109.596 113.694 109.444 113.546 109.338C113.4 109.228 113.144 109.135 112.776 109.056C112.412 108.978 112.122 108.885 111.905 108.775C111.692 108.666 111.533 108.536 111.429 108.385C111.327 108.234 111.276 108.054 111.276 107.846C111.276 107.499 111.422 107.206 111.714 106.967C112.008 106.727 112.383 106.607 112.839 106.607C113.318 106.607 113.706 106.731 114.003 106.978C114.303 107.226 114.452 107.542 114.452 107.928H113.726C113.726 107.73 113.641 107.559 113.472 107.416C113.305 107.273 113.094 107.201 112.839 107.201C112.576 107.201 112.37 107.258 112.222 107.373C112.073 107.487 111.999 107.637 111.999 107.822C111.999 107.997 112.068 108.128 112.206 108.217C112.344 108.305 112.593 108.39 112.952 108.471C113.314 108.551 113.607 108.648 113.831 108.76C114.055 108.872 114.22 109.007 114.327 109.166C114.437 109.322 114.491 109.513 114.491 109.74C114.491 110.118 114.34 110.421 114.038 110.65C113.736 110.877 113.344 110.99 112.862 110.99C112.524 110.99 112.224 110.93 111.964 110.81C111.704 110.691 111.499 110.524 111.351 110.31C111.205 110.094 111.132 109.861 111.132 109.611H111.855C111.868 109.853 111.964 110.046 112.144 110.189C112.326 110.33 112.566 110.4 112.862 110.4C113.136 110.4 113.355 110.346 113.519 110.236C113.685 110.124 113.769 109.976 113.769 109.791ZM117.128 110.4C117.386 110.4 117.611 110.322 117.804 110.166C117.997 110.01 118.103 109.814 118.124 109.58H118.808C118.795 109.822 118.711 110.053 118.558 110.271C118.404 110.49 118.198 110.665 117.941 110.795C117.685 110.925 117.415 110.99 117.128 110.99C116.553 110.99 116.094 110.799 115.753 110.416C115.415 110.03 115.245 109.504 115.245 108.838V108.717C115.245 108.305 115.321 107.939 115.472 107.619C115.623 107.299 115.839 107.05 116.12 106.873C116.404 106.696 116.739 106.607 117.124 106.607C117.598 106.607 117.991 106.749 118.304 107.033C118.619 107.317 118.787 107.685 118.808 108.138H118.124C118.103 107.865 117.999 107.641 117.812 107.467C117.627 107.29 117.398 107.201 117.124 107.201C116.757 107.201 116.472 107.334 116.269 107.599C116.068 107.862 115.968 108.244 115.968 108.744V108.881C115.968 109.368 116.068 109.743 116.269 110.006C116.469 110.269 116.756 110.4 117.128 110.4ZM121.663 107.334C121.554 107.316 121.435 107.306 121.308 107.306C120.834 107.306 120.512 107.508 120.343 107.912V110.912H119.62V106.685H120.323L120.335 107.174C120.572 106.796 120.908 106.607 121.343 106.607C121.484 106.607 121.59 106.625 121.663 106.662V107.334ZM122.062 108.76C122.062 108.346 122.142 107.973 122.304 107.642C122.468 107.312 122.694 107.056 122.984 106.877C123.275 106.697 123.607 106.607 123.98 106.607C124.555 106.607 125.02 106.806 125.374 107.205C125.731 107.603 125.909 108.133 125.909 108.795V108.846C125.909 109.257 125.83 109.627 125.671 109.955C125.515 110.28 125.29 110.534 124.995 110.717C124.704 110.899 124.368 110.99 123.987 110.99C123.415 110.99 122.95 110.791 122.593 110.392C122.239 109.994 122.062 109.467 122.062 108.81V108.76ZM122.788 108.846C122.788 109.314 122.896 109.691 123.112 109.974C123.331 110.258 123.623 110.4 123.987 110.4C124.355 110.4 124.646 110.257 124.862 109.971C125.079 109.681 125.187 109.278 125.187 108.76C125.187 108.296 125.076 107.921 124.855 107.635C124.636 107.346 124.344 107.201 123.98 107.201C123.623 107.201 123.335 107.343 123.116 107.627C122.898 107.911 122.788 108.317 122.788 108.846ZM127.601 110.912H126.878V104.912H127.601V110.912ZM129.546 110.912H128.823V104.912H129.546V110.912ZM134.284 108.846C134.284 109.491 134.136 110.011 133.839 110.404C133.542 110.795 133.144 110.99 132.644 110.99C132.11 110.99 131.697 110.801 131.405 110.424L131.37 110.912H130.706V104.912H131.429V107.15C131.72 106.788 132.123 106.607 132.636 106.607C133.149 106.607 133.551 106.801 133.843 107.189C134.137 107.577 134.284 108.109 134.284 108.783V108.846ZM133.562 108.763C133.562 108.271 133.467 107.891 133.276 107.623C133.086 107.355 132.813 107.221 132.456 107.221C131.98 107.221 131.637 107.442 131.429 107.885V109.713C131.65 110.155 131.995 110.377 132.464 110.377C132.81 110.377 133.08 110.243 133.273 109.974C133.465 109.706 133.562 109.303 133.562 108.763ZM137.808 110.912C137.766 110.829 137.732 110.68 137.706 110.467C137.37 110.816 136.969 110.99 136.503 110.99C136.086 110.99 135.744 110.873 135.476 110.638C135.21 110.402 135.077 110.102 135.077 109.74C135.077 109.3 135.244 108.959 135.577 108.717C135.913 108.472 136.385 108.349 136.991 108.349H137.694V108.017C137.694 107.765 137.619 107.564 137.468 107.416C137.317 107.265 137.094 107.189 136.8 107.189C136.542 107.189 136.326 107.254 136.151 107.385C135.977 107.515 135.89 107.672 135.89 107.857H135.163C135.163 107.646 135.237 107.443 135.386 107.248C135.537 107.05 135.74 106.894 135.995 106.779C136.253 106.665 136.536 106.607 136.843 106.607C137.33 106.607 137.711 106.73 137.987 106.974C138.263 107.217 138.407 107.551 138.417 107.978V109.924C138.417 110.312 138.467 110.62 138.566 110.849V110.912H137.808ZM136.609 110.361C136.835 110.361 137.05 110.303 137.253 110.185C137.456 110.068 137.603 109.916 137.694 109.728V108.861H137.128C136.243 108.861 135.8 109.12 135.8 109.638C135.8 109.865 135.875 110.042 136.026 110.17C136.178 110.297 136.372 110.361 136.609 110.361ZM141.593 107.334C141.484 107.316 141.365 107.306 141.237 107.306C140.763 107.306 140.442 107.508 140.273 107.912V110.912H139.55V106.685H140.253L140.265 107.174C140.502 106.796 140.838 106.607 141.273 106.607C141.413 106.607 141.52 106.625 141.593 106.662V107.334ZM144.722 109.791C144.722 109.596 144.648 109.444 144.499 109.338C144.353 109.228 144.097 109.135 143.73 109.056C143.365 108.978 143.075 108.885 142.859 108.775C142.645 108.666 142.486 108.536 142.382 108.385C142.28 108.234 142.23 108.054 142.23 107.846C142.23 107.499 142.375 107.206 142.667 106.967C142.961 106.727 143.336 106.607 143.792 106.607C144.271 106.607 144.659 106.731 144.956 106.978C145.256 107.226 145.405 107.542 145.405 107.928H144.679C144.679 107.73 144.594 107.559 144.425 107.416C144.258 107.273 144.047 107.201 143.792 107.201C143.529 107.201 143.323 107.258 143.175 107.373C143.026 107.487 142.952 107.637 142.952 107.822C142.952 107.997 143.021 108.128 143.159 108.217C143.297 108.305 143.546 108.39 143.905 108.471C144.267 108.551 144.56 108.648 144.784 108.76C145.008 108.872 145.174 109.007 145.28 109.166C145.39 109.322 145.444 109.513 145.444 109.74C145.444 110.118 145.293 110.421 144.991 110.65C144.689 110.877 144.297 110.99 143.816 110.99C143.477 110.99 143.178 110.93 142.917 110.81C142.657 110.691 142.452 110.524 142.304 110.31C142.158 110.094 142.085 109.861 142.085 109.611H142.808C142.821 109.853 142.917 110.046 143.097 110.189C143.279 110.33 143.519 110.4 143.816 110.4C144.089 110.4 144.308 110.346 144.472 110.236C144.638 110.124 144.722 109.976 144.722 109.791Z" fill="black"/>
<defs>
<filter id="filter0_d" x="0.582397" y="20.4726" width="77.2532" height="100.532" filterUnits="userSpaceOnUse" color-interpolation-filters="sRGB">
<feFlood flood-opacity="0" result="BackgroundImageFix"/>
<feColorMatrix in="SourceAlpha" type="matrix" values="0 0 0 0 0 0 0 0 0 0 0 0 0 0 0 0 0 0 127 0"/>
<feOffset dy="4"/>
<feGaussianBlur stdDeviation="2"/>
<feColorMatrix type="matrix" values="0 0 0 0 0 0 0 0 0 0 0 0 0 0 0 0 0 0 0.25 0"/>
<feBlend mode="normal" in2="BackgroundImageFix" result="effect1_dropShadow"/>
<feBlend mode="normal" in="SourceGraphic" in2="effect1_dropShadow" result="shape"/>
</filter>
<filter id="filter1_d" x="0.582397" y="20.4726" width="77.2532" height="100.532" filterUnits="userSpaceOnUse" color-interpolation-filters="sRGB">
<feFlood flood-opacity="0" result="BackgroundImageFix"/>
<feColorMatrix in="SourceAlpha" type="matrix" values="0 0 0 0 0 0 0 0 0 0 0 0 0 0 0 0 0 0 127 0"/>
<feOffset dy="4"/>
<feGaussianBlur stdDeviation="2"/>
<feColorMatrix type="matrix" values="0 0 0 0 0 0 0 0 0 0 0 0 0 0 0 0 0 0 0.25 0"/>
<feBlend mode="normal" in2="BackgroundImageFix" result="effect1_dropShadow"/>
<feBlend mode="normal" in="SourceGraphic" in2="effect1_dropShadow" result="shape"/>
</filter>
<filter id="filter2_d" x="90.2041" y="20.4726" width="77.2532" height="100.532" filterUnits="userSpaceOnUse" color-interpolation-filters="sRGB">
<feFlood flood-opacity="0" result="BackgroundImageFix"/>
<feColorMatrix in="SourceAlpha" type="matrix" values="0 0 0 0 0 0 0 0 0 0 0 0 0 0 0 0 0 0 127 0"/>
<feOffset dy="4"/>
<feGaussianBlur stdDeviation="2"/>
<feColorMatrix type="matrix" values="0 0 0 0 0 0 0 0 0 0 0 0 0 0 0 0 0 0 0.25 0"/>
<feBlend mode="normal" in2="BackgroundImageFix" result="effect1_dropShadow"/>
<feBlend mode="normal" in="SourceGraphic" in2="effect1_dropShadow" result="shape"/>
</filter>
<filter id="filter3_d" x="179.826" y="20.4726" width="77.2532" height="100.532" filterUnits="userSpaceOnUse" color-interpolation-filters="sRGB">
<feFlood flood-opacity="0" result="BackgroundImageFix"/>
<feColorMatrix in="SourceAlpha" type="matrix" values="0 0 0 0 0 0 0 0 0 0 0 0 0 0 0 0 0 0 127 0"/>
<feOffset dy="4"/>
<feGaussianBlur stdDeviation="2"/>
<feColorMatrix type="matrix" values="0 0 0 0 0 0 0 0 0 0 0 0 0 0 0 0 0 0 0.25 0"/>
<feBlend mode="normal" in2="BackgroundImageFix" result="effect1_dropShadow"/>
<feBlend mode="normal" in="SourceGraphic" in2="effect1_dropShadow" result="shape"/>
</filter>
</defs>
</svg>
