<svg width="30" height="26" viewBox="0 0 30 26" fill="none" xmlns="http://www.w3.org/2000/svg">
<path d="M11.6313 17.5161C11.6313 18.852 10.95 21.0381 9.3375 21.0381C7.725 21.0381 7.04375 18.852 7.04375 17.5161C7.04375 16.1802 7.725 13.9941 9.3375 13.9941C10.95 13.9941 11.6313 16.1802 11.6313 17.5161V17.5161ZM30 14.2881C30 16.3272 29.8 18.4877 28.9062 20.3605C26.5375 25.2569 20.025 25.1418 15.3625 25.1418C10.625 25.1418 3.725 25.3144 1.2625 20.3605C0.35 18.5069 0 16.3272 0 14.2881C0 11.6098 0.86875 9.07859 2.59375 7.02674C2.26875 6.0168 2.1125 4.95572 2.1125 3.90742C2.1125 2.53313 2.41875 1.84279 3.025 0.596344C5.85625 0.596344 7.66875 1.17163 9.825 2.89748C11.6375 2.45643 13.5 2.25828 15.3687 2.25828C17.0562 2.25828 18.7562 2.44364 20.3937 2.84634C22.5187 1.13967 24.3313 0.596344 27.1313 0.596344C27.7438 1.84279 28.0438 2.53313 28.0438 3.90742C28.0438 4.95572 27.8812 5.99762 27.5625 6.98839C29.2812 9.05941 30 11.6098 30 14.2881V14.2881ZM25.9813 17.5161C25.9813 14.71 24.3125 12.2363 21.3875 12.2363C20.2063 12.2363 19.075 12.4536 17.8875 12.6198C16.9563 12.7668 16.025 12.8243 15.0688 12.8243C14.1188 12.8243 13.1875 12.7668 12.25 12.6198C11.0812 12.4536 9.9375 12.2363 8.75 12.2363C5.825 12.2363 4.15625 14.71 4.15625 17.5161C4.15625 23.1283 9.18125 23.9912 13.5562 23.9912H16.5688C20.9625 23.9912 25.9813 23.1347 25.9813 17.5161V17.5161ZM20.8188 13.9941C19.2063 13.9941 18.525 16.1802 18.525 17.5161C18.525 18.852 19.2063 21.0381 20.8188 21.0381C22.4313 21.0381 23.1125 18.852 23.1125 17.5161C23.1125 16.1802 22.4313 13.9941 20.8188 13.9941Z" fill="#B0322B"/>
</svg>
