<svg width="30" height="30" viewBox="0 0 30 30" fill="none" xmlns="http://www.w3.org/2000/svg">
<path d="M27.8571 0.550873H2.13616C0.957589 0.550873 0 1.47772 0 2.6155V27.1226C0 28.2604 0.957589 29.1872 2.13616 29.1872H27.8571C29.0357 29.1872 30 28.2604 30 27.1226V2.6155C30 1.47772 29.0357 0.550873 27.8571 0.550873ZM9.06696 25.0963H4.62054V11.4301H9.07366V25.0963H9.06696ZM6.84375 9.56366C5.41741 9.56366 4.26562 8.45783 4.26562 7.10272C4.26562 5.74761 5.41741 4.64178 6.84375 4.64178C8.26339 4.64178 9.42187 5.74761 9.42187 7.10272C9.42187 8.46422 8.27009 9.56366 6.84375 9.56366V9.56366ZM25.7344 25.0963H21.2879V18.4486C21.2879 16.8634 21.2545 14.8243 18.9777 14.8243C16.6607 14.8243 16.3058 16.5502 16.3058 18.3335V25.0963H11.8594V11.4301H16.125V13.2966H16.1853C16.7812 12.2227 18.2344 11.0914 20.3973 11.0914C24.8973 11.0914 25.7344 13.923 25.7344 17.6048V25.0963V25.0963Z" fill="#B0322B"/>
</svg>
