<svg width="512" height="512" viewBox="0 0 512 512" fill="none" xmlns="http://www.w3.org/2000/svg">
<path fill-rule="evenodd" clip-rule="evenodd" d="M371.546 174.051H132.247V453.763H221.371V466.74L221.5 466.74V450.5V434H145.888V201.533C145.888 196.01 150.365 191.533 155.888 191.533H372.905C378.428 191.533 382.905 196.01 382.905 201.533V391.1H396.546V199.051C396.546 185.243 385.353 174.051 371.546 174.051Z" fill="#222222"/>
<path d="M175.272 234.197H347.374" stroke="#222222" stroke-width="7"/>
<path d="M175.272 277.223H347.374" stroke="#222222" stroke-width="7"/>
<path d="M175.272 320.248H347.374" stroke="#222222" stroke-width="7"/>
<path d="M175.272 363.274H347.374" stroke="#222222" stroke-width="7"/>
<path d="M174.875 154.789C174.875 147.726 180.601 142 187.664 142V142C194.727 142 200.453 147.726 200.453 154.789V163.853V172.916C200.453 179.979 194.727 185.705 187.664 185.705V185.705C180.601 185.705 174.875 179.979 174.875 172.916V154.789Z" fill="#C4C4C4"/>
<path d="M248.197 154.789C248.197 147.726 253.923 142 260.986 142V142C268.049 142 273.775 147.726 273.775 154.789V163.853V172.916C273.775 179.979 268.049 185.705 260.986 185.705V185.705C253.923 185.705 248.197 179.979 248.197 172.916V154.789Z" fill="#C4C4C4"/>
<path d="M321.519 154.789C321.519 147.726 327.245 142 334.308 142V142C341.371 142 347.096 147.726 347.096 154.789V163.853V172.916C347.096 179.979 341.371 185.705 334.308 185.705V185.705C327.245 185.705 321.519 179.979 321.519 172.916V154.789Z" fill="#C4C4C4"/>
<path d="M116 174H157C157 174 134.294 174 134.294 197V305.999V442.388H221.5V467H116V174Z" fill="#5A2419"/>
<path d="M228.332 434.715C228.332 428.504 229.543 422.918 231.965 417.957C234.426 412.996 237.824 409.168 242.16 406.473C246.535 403.777 251.516 402.43 257.102 402.43C265.734 402.43 272.707 405.418 278.02 411.395C283.371 417.371 286.047 425.32 286.047 435.242V436.004C286.047 442.176 284.855 447.723 282.473 452.645C280.129 457.527 276.75 461.336 272.336 464.07C267.961 466.805 262.922 468.172 257.219 468.172C248.625 468.172 241.652 465.184 236.301 459.207C230.988 453.23 228.332 445.32 228.332 435.477V434.715ZM239.23 436.004C239.23 443.035 240.852 448.68 244.094 452.938C247.375 457.195 251.75 459.324 257.219 459.324C262.727 459.324 267.102 457.176 270.344 452.879C273.586 448.543 275.207 442.488 275.207 434.715C275.207 427.762 273.547 422.137 270.227 417.84C266.945 413.504 262.57 411.336 257.102 411.336C251.75 411.336 247.434 413.465 244.152 417.723C240.871 421.98 239.23 428.074 239.23 436.004ZM297.062 434.773C297.062 424.891 299.348 417.039 303.918 411.219C308.488 405.359 314.543 402.43 322.082 402.43C329.816 402.43 335.852 405.164 340.188 410.633L340.715 403.602H350.617V465.477C350.617 473.68 348.176 480.145 343.293 484.871C338.449 489.598 331.926 491.961 323.723 491.961C319.152 491.961 314.68 490.984 310.305 489.031C305.93 487.078 302.59 484.402 300.285 481.004L305.91 474.5C310.559 480.242 316.242 483.113 322.961 483.113C328.234 483.113 332.336 481.629 335.266 478.66C338.234 475.691 339.719 471.512 339.719 466.121V460.672C335.383 465.672 329.465 468.172 321.965 468.172C314.543 468.172 308.527 465.184 303.918 459.207C299.348 453.23 297.062 445.086 297.062 434.773ZM307.961 436.004C307.961 443.152 309.426 448.777 312.355 452.879C315.285 456.941 319.387 458.973 324.66 458.973C331.496 458.973 336.516 455.867 339.719 449.656V420.711C336.398 414.656 331.418 411.629 324.777 411.629C319.504 411.629 315.383 413.68 312.414 417.781C309.445 421.883 307.961 427.957 307.961 436.004ZM403.938 450.184C403.938 447.254 402.824 444.988 400.598 443.387C398.41 441.746 394.562 440.34 389.055 439.168C383.586 437.996 379.23 436.59 375.988 434.949C372.785 433.309 370.402 431.355 368.84 429.09C367.316 426.824 366.555 424.129 366.555 421.004C366.555 415.809 368.742 411.414 373.117 407.82C377.531 404.227 383.156 402.43 389.992 402.43C397.18 402.43 403 404.285 407.453 407.996C411.945 411.707 414.191 416.453 414.191 422.234H403.293C403.293 419.266 402.023 416.707 399.484 414.559C396.984 412.41 393.82 411.336 389.992 411.336C386.047 411.336 382.961 412.195 380.734 413.914C378.508 415.633 377.395 417.879 377.395 420.652C377.395 423.27 378.43 425.242 380.5 426.57C382.57 427.898 386.301 429.168 391.691 430.379C397.121 431.59 401.516 433.035 404.875 434.715C408.234 436.395 410.715 438.426 412.316 440.809C413.957 443.152 414.777 446.023 414.777 449.422C414.777 455.086 412.512 459.637 407.98 463.074C403.449 466.473 397.57 468.172 390.344 468.172C385.266 468.172 380.773 467.273 376.867 465.477C372.961 463.68 369.895 461.18 367.668 457.977C365.48 454.734 364.387 451.238 364.387 447.488H375.227C375.422 451.121 376.867 454.012 379.562 456.16C382.297 458.27 385.891 459.324 390.344 459.324C394.445 459.324 397.727 458.504 400.188 456.863C402.688 455.184 403.938 452.957 403.938 450.184Z" fill="#222222"/>
<path d="M68.7129 78.8008L39.0195 67.166V58.6309L77.3828 75.6113V82.1699L39.0195 99.1953V90.5703L68.7129 78.8008Z" fill="#222222"/>
<path d="M148.398 87.2461C147.59 94.1641 145.029 99.5098 140.717 103.283C136.434 107.027 130.729 108.898 123.601 108.898C115.875 108.898 109.676 106.128 105.004 100.588C100.362 95.0475 98.0408 87.6354 98.0408 78.3516V72.0625C98.0408 65.9831 99.1189 60.6374 101.275 56.0254C103.461 51.4134 106.546 47.8796 110.529 45.4238C114.512 42.9382 119.124 41.6953 124.365 41.6953C131.313 41.6953 136.883 43.6419 141.076 47.5352C145.269 51.3984 147.709 56.7591 148.398 63.6172H139.728C138.98 58.4062 137.347 54.6328 134.832 52.2969C132.346 49.9609 128.857 48.793 124.365 48.793C118.855 48.793 114.527 50.8294 111.383 54.9023C108.268 58.9753 106.711 64.7702 106.711 72.2871V78.6211C106.711 85.7188 108.193 91.3639 111.158 95.5566C114.123 99.7493 118.271 101.846 123.601 101.846C128.393 101.846 132.062 100.768 134.607 98.6113C137.183 96.4251 138.89 92.6367 139.728 87.2461H148.398ZM156.709 83.248C156.709 78.4863 157.637 74.2038 159.494 70.4004C161.381 66.597 163.986 63.6621 167.31 61.5957C170.664 59.5293 174.483 58.4961 178.765 58.4961C185.384 58.4961 190.73 60.7871 194.802 65.3691C198.905 69.9512 200.957 76.0456 200.957 83.6523V84.2363C200.957 88.9681 200.043 93.2207 198.217 96.9941C196.42 100.738 193.829 103.658 190.445 105.754C187.091 107.85 183.228 108.898 178.855 108.898C172.267 108.898 166.921 106.607 162.818 102.025C158.745 97.4434 156.709 91.3789 156.709 83.832V83.248ZM165.064 84.2363C165.064 89.627 166.307 93.9544 168.793 97.2188C171.308 100.483 174.663 102.115 178.855 102.115C183.078 102.115 186.432 100.468 188.918 97.1738C191.403 93.8496 192.646 89.2077 192.646 83.248C192.646 77.9173 191.373 73.6048 188.828 70.3105C186.312 66.9863 182.958 65.3242 178.765 65.3242C174.663 65.3242 171.353 66.9564 168.838 70.2207C166.322 73.485 165.064 78.1569 165.064 84.2363ZM219.24 59.3945L219.51 65.5039C223.223 60.832 228.075 58.4961 234.064 58.4961C244.336 58.4961 249.517 64.291 249.607 75.8809V108H241.297V75.8359C241.267 72.332 240.458 69.7415 238.871 68.0645C237.314 66.3874 234.873 65.5488 231.549 65.5488C228.853 65.5488 226.487 66.2676 224.451 67.7051C222.414 69.1426 220.827 71.0293 219.689 73.3652V108H211.379V59.3945H219.24ZM290.441 95.1074C290.441 92.8613 289.588 91.1243 287.881 89.8965C286.204 88.6387 283.254 87.5605 279.031 86.6621C274.838 85.7637 271.499 84.6855 269.013 83.4277C266.558 82.1699 264.731 80.6725 263.533 78.9355C262.365 77.1986 261.781 75.1322 261.781 72.7363C261.781 68.7533 263.458 65.3841 266.812 62.6289C270.196 59.8737 274.509 58.4961 279.75 58.4961C285.26 58.4961 289.722 59.9186 293.136 62.7637C296.58 65.6087 298.302 69.2474 298.302 73.6797H289.947C289.947 71.4036 288.974 69.4421 287.027 67.7949C285.11 66.1478 282.685 65.3242 279.75 65.3242C276.725 65.3242 274.359 65.9831 272.652 67.3008C270.945 68.6185 270.092 70.3405 270.092 72.4668C270.092 74.4733 270.885 75.9857 272.472 77.0039C274.06 78.0221 276.92 78.9954 281.052 79.9238C285.215 80.8522 288.584 81.9603 291.16 83.248C293.735 84.5358 295.637 86.0931 296.865 87.9199C298.123 89.7168 298.752 91.918 298.752 94.5234C298.752 98.8659 297.015 102.355 293.541 104.99C290.067 107.596 285.56 108.898 280.019 108.898C276.126 108.898 272.682 108.21 269.687 106.832C266.692 105.454 264.342 103.538 262.635 101.082C260.957 98.5964 260.119 95.916 260.119 93.041H268.429C268.579 95.8262 269.687 98.0423 271.754 99.6895C273.85 101.307 276.605 102.115 280.019 102.115C283.164 102.115 285.679 101.486 287.566 100.229C289.483 98.9408 290.441 97.2337 290.441 95.1074ZM307.377 83.248C307.377 78.4863 308.305 74.2038 310.162 70.4004C312.049 66.597 314.654 63.6621 317.978 61.5957C321.332 59.5293 325.151 58.4961 329.433 58.4961C336.052 58.4961 341.398 60.7871 345.47 65.3691C349.573 69.9512 351.625 76.0456 351.625 83.6523V84.2363C351.625 88.9681 350.711 93.2207 348.885 96.9941C347.088 100.738 344.497 103.658 341.113 105.754C337.759 107.85 333.896 108.898 329.523 108.898C322.935 108.898 317.589 106.607 313.486 102.025C309.413 97.4434 307.377 91.3789 307.377 83.832V83.248ZM315.732 84.2363C315.732 89.627 316.975 93.9544 319.461 97.2188C321.976 100.483 325.33 102.115 329.523 102.115C333.746 102.115 337.1 100.468 339.586 97.1738C342.071 93.8496 343.314 89.2077 343.314 83.248C343.314 77.9173 342.041 73.6048 339.496 70.3105C336.98 66.9863 333.626 65.3242 329.433 65.3242C325.33 65.3242 322.021 66.9564 319.506 70.2207C316.99 73.485 315.732 78.1569 315.732 84.2363ZM371.076 108H362.765V39H371.076V108ZM404.588 108.898C397.999 108.898 392.638 106.742 388.506 102.43C384.373 98.0872 382.306 92.2923 382.306 85.0449V83.5176C382.306 78.696 383.22 74.3984 385.047 70.625C386.903 66.8216 389.479 63.8568 392.773 61.7305C396.097 59.5742 399.691 58.4961 403.554 58.4961C409.873 58.4961 414.785 60.5775 418.289 64.7402C421.793 68.903 423.545 74.8626 423.545 82.6191V86.0781H390.617C390.737 90.8698 392.129 94.748 394.795 97.7129C397.49 100.648 400.904 102.115 405.037 102.115C407.972 102.115 410.457 101.516 412.494 100.318C414.53 99.1204 416.312 97.5332 417.84 95.5566L422.916 99.5098C418.843 105.769 412.733 108.898 404.588 108.898ZM403.554 65.3242C400.2 65.3242 397.385 66.5521 395.109 69.0078C392.833 71.4336 391.426 74.8477 390.886 79.25H415.234V78.6211C414.995 74.3984 413.857 71.1341 411.82 68.8281C409.784 66.4922 407.028 65.3242 403.554 65.3242Z" fill="#5A2419"/>
<path d="M468.242 114.783H427.094V108H468.242V114.783Z" fill="#222222"/>
</svg>
