<?xml version="1.0" standalone="no"?>
<!DOCTYPE svg PUBLIC "-//W3C//DTD SVG 20010904//EN"
 "http://www.w3.org/TR/2001/REC-SVG-20010904/DTD/svg10.dtd">
<svg version="1.0" xmlns="http://www.w3.org/2000/svg"
 width="512.000000pt" height="512.000000pt" viewBox="0 0 512.000000 512.000000"
 preserveAspectRatio="xMidYMid meet">
<metadata>
Created by potrace 1.11, written by Peter Selinger 2001-2013
</metadata>
<g transform="translate(0.000000,512.000000) scale(0.100000,-0.100000)"
fill="#000000" stroke="none">
<path d="M0 2560 l0 -2560 2560 0 2560 0 0 2560 0 2560 -2560 0 -2560 0 0
-2560z m1052 2318 c69 -47 91 -93 91 -188 0 -62 -5 -86 -21 -112 -29 -46 -60
-72 -109 -91 -39 -15 -47 -15 -89 -1 -79 27 -144 119 -144 204 0 105 96 218
185 219 29 1 52 -8 87 -31z m473 0 c24 -18 53 -47 65 -65 42 -61 48 -158 15
-223 -21 -40 -77 -88 -120 -103 -107 -38 -225 71 -225 209 0 76 54 163 125
202 40 22 95 14 140 -20z m-926 -18 c66 -54 81 -85 81 -174 0 -84 -11 -116
-57 -157 -73 -66 -112 -76 -180 -44 -151 72 -166 291 -25 385 63 42 120 39
181 -10z m4303 -681 c17 -20 18 -127 18 -1934 0 -1807 -1 -1914 -17 -1934
l-18 -21 -2325 0 c-2324 0 -2324 0 -2345 20 -20 21 -20 23 -20 1934 0 1863 1
1914 19 1935 18 20 29 21 290 23 149 2 1196 2 2326 0 l2055 -2 17 -21z"/>
<path d="M2255 4098 c-3 -7 -4 -799 -3 -1761 l3 -1747 200 -5 c251 -5 2346 -7
2352 -2 6 6 4 3508 -3 3518 -3 5 -527 9 -1275 9 -1006 0 -1271 -3 -1274 -12z
m2493 -72 c9 -5 12 -385 12 -1676 0 -1640 0 -1669 -19 -1680 -22 -11 -509 -14
-634 -4 l-77 7 0 204 c0 177 -2 204 -16 210 -9 3 -19 1 -23 -5 -4 -7 -12 -8
-21 -2 -30 19 -103 11 -134 -13 -28 -22 -30 -29 -34 -112 -3 -49 1 -110 7
-140 11 -46 17 -55 48 -70 34 -16 74 -16 116 0 14 6 17 1 17 -27 0 -19 -5 -39
-12 -46 -18 -18 -661 -17 -676 1 -7 8 -13 71 -14 153 l-3 139 -405 3 c-367 2
-406 4 -417 19 -10 13 -13 332 -13 1513 0 1545 -1 1520 37 1531 25 8 2249 3
2261 -5z m-766 -2997 c5 -8 7 -61 6 -117 -3 -95 -5 -105 -27 -123 -33 -27 -73
-24 -102 7 -22 23 -24 34 -24 121 0 89 2 96 25 115 19 16 34 19 69 15 24 -3
48 -11 53 -18z"/>
<path d="M2960 3979 c-51 -21 -60 -37 -60 -111 0 -62 -2 -69 -22 -78 -41 -16
-77 -54 -113 -119 l-35 -64 2 -1146 3 -1146 46 -68 c36 -53 58 -74 95 -92 l49
-24 703 -1 c683 0 703 1 739 20 21 11 43 20 49 20 12 0 29 22 64 85 52 92 50
40 50 1223 0 606 -4 1110 -8 1120 -5 9 -16 32 -25 50 -9 19 -17 39 -17 46 0
12 -27 41 -75 80 -27 22 -30 31 -35 97 l-5 74 -42 23 -42 23 -31 -28 c-23 -21
-34 -42 -41 -78 -11 -58 -19 -65 -81 -65 -70 0 -78 6 -78 55 0 44 -24 86 -61
106 -39 20 -109 -45 -109 -101 0 -47 -15 -60 -68 -60 -59 0 -78 13 -87 57 -14
76 -54 119 -106 111 -32 -4 -69 -62 -69 -107 0 -50 -14 -61 -76 -61 -61 0 -84
17 -84 60 0 46 -16 74 -53 94 -34 19 -35 19 -66 -4 -36 -25 -51 -56 -51 -105
0 -38 -12 -45 -79 -45 -54 0 -71 12 -71 52 0 37 -23 82 -52 102 -26 18 -25 18
-58 5z m45 -71 c3 -13 5 -72 3 -133 -3 -99 -5 -110 -22 -113 -35 -7 -46 25
-46 128 0 70 4 101 16 118 20 28 42 28 49 0z m659 -3 c12 -17 16 -48 16 -109
0 -98 -11 -136 -39 -136 -32 0 -41 31 -41 136 0 77 4 101 17 116 21 24 28 23
47 -7z m336 -110 c0 -108 -12 -144 -44 -132 -14 5 -16 24 -16 125 0 128 9 155
42 125 15 -13 18 -32 18 -118z m-670 106 c11 -21 14 -181 4 -218 -7 -24 -38
-31 -50 -12 -11 18 -5 221 8 236 15 18 26 16 38 -6z m979 5 c8 -9 11 -52 9
-127 -3 -102 -5 -114 -22 -117 -10 -2 -22 2 -27 10 -10 15 -12 208 -3 232 8
20 28 21 43 2z m-1089 -192 c6 -56 19 -78 62 -100 27 -14 32 -13 63 6 37 23
45 38 45 81 0 58 14 69 84 69 68 0 76 -6 76 -54 0 -33 28 -84 56 -103 22 -14
28 -14 51 -2 34 18 56 53 68 108 l10 46 58 3 c71 4 87 -7 87 -60 0 -53 35 -88
87 -88 58 1 77 21 83 88 l5 57 68 3 c65 3 68 2 77 -24 6 -14 9 -31 8 -38 -6
-25 25 -75 58 -92 31 -17 37 -17 61 -4 29 17 39 32 48 73 6 31 22 35 42 10 75
-95 73 -56 73 -1230 0 -913 -2 -1039 -16 -1095 -19 -74 -47 -115 -109 -157
l-46 -31 -692 0 c-627 0 -695 2 -717 17 -51 33 -93 79 -111 121 -18 42 -19 88
-19 1163 0 877 3 1124 13 1142 19 35 70 87 84 87 7 0 16 -12 19 -27 9 -36 28
-58 64 -73 26 -11 33 -9 64 15 25 19 37 37 41 63 15 89 8 83 83 80 l67 -3 5
-51z"/>
<path d="M3007 3343 c-11 -10 -8 -41 3 -45 5 -1 289 -2 630 0 l620 2 0 25 0
25 -623 0 c-343 0 -627 -3 -630 -7z"/>
<path d="M3000 3055 l0 -25 629 0 c494 0 630 3 633 13 14 37 15 37 -633 37
l-629 0 0 -25z"/>
<path d="M3008 2813 c-6 -7 -8 -20 -4 -28 5 -13 82 -15 631 -15 l625 0 0 25 0
25 -621 2 c-484 2 -623 0 -631 -9z"/>
<path d="M3004 2545 c-4 -8 -4 -22 0 -30 5 -13 83 -15 618 -15 337 0 619 4
626 9 8 5 12 17 10 27 -3 18 -26 19 -626 22 -547 2 -623 0 -628 -13z"/>
<path d="M3002 2268 l3 -23 628 -3 627 -2 0 25 0 25 -631 0 -630 0 3 -22z"/>
<path d="M3004 2015 c-4 -8 -4 -22 0 -30 5 -13 83 -15 620 -15 605 0 615 0
621 20 3 11 3 24 0 30 -4 7 -218 10 -621 10 -537 0 -615 -2 -620 -15z"/>
<path d="M3000 1735 l0 -25 623 2 c614 3 622 3 622 23 0 20 -8 20 -622 23
l-623 2 0 -25z"/>
<path d="M3007 1481 c-2 -10 -1 -24 2 -30 5 -8 177 -10 622 -9 l614 3 0 25 0
25 -616 3 c-598 2 -617 2 -622 -17z"/>
<path d="M4246 1092 c-60 -14 -93 -102 -58 -157 14 -22 32 -33 68 -43 104 -27
99 -24 102 -71 4 -53 -15 -70 -76 -71 -42 0 -72 16 -72 39 0 15 -15 14 -29 -3
-14 -16 -4 -43 24 -66 24 -20 142 -16 166 6 52 47 43 155 -16 183 -16 8 -48
17 -69 20 -53 8 -82 46 -65 84 18 39 96 43 135 6 22 -21 22 -21 33 -1 9 16 6
25 -16 46 -14 14 -33 26 -42 26 -9 0 -25 2 -36 4 -11 2 -33 1 -49 -2z"/>
<path d="M3488 1072 c-29 -30 -40 -74 -41 -167 -1 -97 12 -152 43 -180 26 -24
124 -24 150 0 56 51 51 306 -7 351 -27 20 -124 17 -145 -4z m136 -66 c24 -51
22 -181 -4 -223 -26 -44 -78 -47 -109 -7 -18 23 -21 41 -21 123 0 120 11 141
74 141 40 0 45 -3 60 -34z"/>
<path d="M752 3973 c-30 -12 -45 -67 -45 -163 0 -137 31 -185 108 -166 36 9
67 76 34 76 -3 0 -9 -9 -12 -20 -6 -24 -29 -34 -62 -26 -29 7 -45 55 -45 136
0 81 16 129 45 136 33 8 56 -2 62 -26 5 -17 33 -30 33 -15 0 16 -31 63 -45 69
-19 7 -54 7 -73 -1z"/>
<path d="M1787 3974 c-10 -11 3 -24 24 -24 18 0 19 -8 19 -134 0 -115 3 -137
18 -156 14 -18 25 -22 45 -16 15 3 27 13 27 22 0 11 -6 13 -20 9 -43 -14 -50
7 -50 161 l0 144 -28 0 c-16 0 -32 -3 -35 -6z"/>
<path d="M290 3918 c0 -7 25 -40 55 -73 30 -33 55 -64 55 -68 0 -5 -25 -37
-55 -70 -48 -55 -71 -95 -47 -85 12 5 142 144 142 152 0 10 -133 156 -142 156
-5 0 -8 -6 -8 -12z"/>
<path d="M958 3899 c-35 -20 -49 -139 -25 -209 23 -67 109 -67 133 0 25 70 12
179 -25 207 -19 15 -60 16 -83 2z m72 -29 c11 -7 15 -30 15 -95 0 -91 -7 -105
-52 -105 -32 0 -43 29 -43 109 0 50 4 74 16 85 17 18 42 20 64 6z"/>
<path d="M1140 3773 c0 -82 4 -133 10 -133 6 0 10 41 10 104 0 113 9 136 54
136 40 0 46 -18 46 -132 0 -89 3 -108 15 -108 12 0 15 18 15 105 0 150 -11
167 -107 162 l-43 -2 0 -132z"/>
<path d="M1370 3890 c-23 -23 -26 -68 -7 -92 6 -9 30 -21 52 -28 22 -7 46 -17
53 -23 15 -12 16 -49 0 -65 -17 -17 -73 -15 -88 3 -15 19 -30 19 -30 2 0 -42
84 -62 128 -31 17 12 22 25 22 58 0 51 -18 70 -72 80 -44 8 -64 36 -48 66 13
25 71 27 90 5 10 -12 16 -13 24 -5 17 17 -30 50 -70 50 -21 0 -42 -8 -54 -20z"/>
<path d="M1585 3885 c-23 -22 -25 -32 -25 -108 0 -70 3 -89 21 -111 29 -37 80
-36 109 1 19 25 21 38 18 116 -3 79 -6 91 -27 108 -32 26 -67 24 -96 -6z m92
-35 c7 -14 13 -47 13 -75 0 -64 -18 -99 -52 -103 -39 -5 -58 29 -58 103 0 74
19 108 58 103 16 -2 31 -13 39 -28z"/>
<path d="M2006 3887 c-44 -44 -41 -192 4 -229 12 -10 34 -18 49 -18 32 0 71
25 71 46 0 18 -14 18 -30 -1 -16 -19 -64 -19 -80 0 -7 9 -13 32 -14 53 l-1 37
68 3 c57 2 68 6 63 18 -3 9 -6 29 -6 45 0 63 -78 92 -124 46z m88 -23 c9 -8
16 -24 16 -35 0 -16 -7 -19 -55 -19 -60 0 -67 9 -39 48 18 26 56 29 78 6z"/>
<path d="M2008 3573 c29 -2 74 -2 100 0 26 2 2 3 -53 3 -55 0 -76 -1 -47 -3z"/>
<path d="M793 2904 c-15 -20 -40 -51 -54 -68 -14 -17 -38 -52 -53 -78 -15 -25
-33 -52 -42 -58 -8 -7 -21 -36 -29 -64 -13 -43 -13 -58 -1 -101 13 -52 92
-169 107 -159 7 4 138 190 189 268 8 13 32 45 52 72 21 27 38 56 38 65 0 20
-93 144 -115 153 -38 14 -64 6 -92 -30z"/>
<path d="M1036 2684 c-10 -26 -7 -40 15 -65 12 -13 41 -54 66 -91 24 -37 48
-70 53 -73 5 -3 25 -33 45 -66 19 -33 44 -69 55 -82 12 -12 31 -38 42 -57 12
-19 35 -53 53 -75 17 -22 44 -62 59 -89 15 -26 35 -56 45 -65 9 -9 42 -55 73
-101 32 -47 80 -116 107 -155 28 -38 77 -110 111 -159 l61 -90 -19 -25 c-10
-14 -25 -27 -33 -29 -8 -1 -33 26 -56 60 -24 35 -70 101 -102 148 -33 47 -76
110 -97 140 -21 30 -55 78 -76 106 -21 28 -38 55 -38 59 0 5 -17 29 -38 54
-21 25 -49 64 -62 86 -13 22 -39 58 -57 79 -18 22 -33 44 -33 49 0 6 -19 34
-42 63 -24 29 -58 77 -76 107 -18 31 -42 63 -53 73 -10 9 -19 22 -19 28 -1 17
-37 56 -52 56 -8 0 -31 -27 -53 -61 -21 -33 -50 -76 -64 -94 -14 -19 -38 -54
-54 -79 -27 -44 -27 -45 -10 -74 20 -33 131 -194 194 -282 22 -30 74 -104 115
-165 42 -60 103 -148 136 -195 32 -47 83 -118 111 -159 87 -123 130 -185 179
-258 26 -38 54 -75 63 -83 20 -17 21 -16 120 130 43 63 85 124 95 135 23 28
80 123 80 135 0 14 -45 84 -89 140 -20 24 -40 52 -46 62 -10 18 -111 164 -236
343 -39 55 -83 118 -97 140 -15 22 -47 67 -72 101 -25 33 -53 74 -63 90 -9 16
-42 63 -72 104 -30 41 -73 103 -95 138 -42 62 -63 75 -74 46z"/>
<path d="M1903 1398 c-11 -13 -33 -43 -49 -68 -16 -25 -43 -63 -61 -86 -18
-23 -33 -45 -33 -50 0 -5 -23 -38 -50 -73 -55 -71 -61 -91 -28 -91 12 0 47 -6
77 -14 31 -8 81 -19 111 -24 30 -6 66 -13 79 -18 l24 -7 -7 109 c-4 60 -11
129 -16 154 -5 25 -9 78 -10 118 0 39 -4 72 -8 72 -5 0 -18 -10 -29 -22z"/>
</g>
</svg>
