<svg width="31" height="28" viewBox="0 0 31 28" fill="none" xmlns="http://www.w3.org/2000/svg">
<path d="M27.8684 7.20319C27.8874 7.4939 27.8874 7.78467 27.8874 8.07538C27.8874 16.9424 21.7009 27.1594 10.3938 27.1594C6.91025 27.1594 3.67424 26.0587 0.952148 24.1483C1.44709 24.2106 1.92293 24.2313 2.43691 24.2313C5.31123 24.2313 7.95721 23.1723 10.0702 21.3657C7.36711 21.3033 5.10188 19.3721 4.32141 16.714C4.70215 16.7763 5.08283 16.8178 5.48262 16.8178C6.03463 16.8178 6.5867 16.7348 7.10063 16.5895C4.28338 15.9664 2.17037 13.2669 2.17037 10.0066V9.92358C2.98887 10.422 3.94072 10.7335 4.94953 10.7749C3.29344 9.57048 2.20846 7.51468 2.20846 5.18887C2.20846 3.94293 2.51297 2.8008 3.046 1.80402C6.07266 5.87416 10.6222 8.53216 15.7236 8.82293C15.6285 8.32455 15.5713 7.80545 15.5713 7.28629C15.5713 3.5899 18.3125 0.578857 21.7198 0.578857C23.4901 0.578857 25.0891 1.38873 26.2122 2.69699C27.6018 2.40628 28.9342 1.84557 30.1145 1.07725C29.6576 2.63473 28.6868 3.94299 27.4114 4.77357C28.6488 4.62828 29.848 4.25441 30.952 3.73531C30.1146 5.06428 29.0676 6.2479 27.8684 7.20319V7.20319Z" fill="#B0322B"/>
</svg>
