<svg width="30" height="26" viewBox="0 0 30 26" fill="none" xmlns="http://www.w3.org/2000/svg">
<path d="M28.5317 4.43688C28.2046 2.92516 27.2408 1.73458 26.017 1.33053C23.7987 0.596344 14.9039 0.596344 14.9039 0.596344C14.9039 0.596344 6.00909 0.596344 3.79081 1.33053C2.56701 1.73464 1.60315 2.92516 1.27602 4.43688C0.681641 7.17696 0.681641 12.8939 0.681641 12.8939C0.681641 12.8939 0.681641 18.6108 1.27602 21.3509C1.60315 22.8626 2.56701 24.0036 3.79081 24.4076C6.00909 25.1418 14.9039 25.1418 14.9039 25.1418C14.9039 25.1418 23.7987 25.1418 26.017 24.4076C27.2408 24.0036 28.2046 22.8626 28.5317 21.3509C29.1261 18.6108 29.1261 12.8939 29.1261 12.8939C29.1261 12.8939 29.1261 7.17696 28.5317 4.43688V4.43688ZM11.9948 18.0844V7.70334L19.4291 12.894L11.9948 18.0844V18.0844Z" fill="#B0322B"/>
</svg>
