<svg width="1000" height="420" viewBox="0 0 1000 420" fill="none" xmlns="http://www.w3.org/2000/svg">
<g clip-path="url(#clip0)">
<rect width="1000" height="420" fill="white"/>
<path d="M444 0H0V420H444V0Z" fill="white" stroke="#373737" stroke-width="2"/>
<path d="M384.8 131.444H59.2C55.1131 131.444 51.8 134.578 51.8 138.444V346.362C51.8 350.228 55.1131 353.362 59.2 353.362H384.8C388.887 353.362 392.2 350.228 392.2 346.362V138.444C392.2 134.578 388.887 131.444 384.8 131.444Z" stroke="#373737"/>
<path fill-rule="evenodd" clip-rule="evenodd" d="M166.924 389.785H220.551H223.103H276.73L264.287 383.311L257.836 352.769H222.053H221.602H185.819L179.368 383.311L166.924 389.785Z" fill="#373737"/>
<path d="M51.8 138.444C51.8 134.578 55.1131 131.444 59.2 131.444H384.8C388.886 131.444 392.2 134.578 392.2 138.444V327.312H51.8V138.444Z" stroke="#373737"/>
<path d="M378.529 149.861H65.4712V318.494H378.529V149.861Z" fill="#3EC6FF"/>
<path fill-rule="evenodd" clip-rule="evenodd" d="M269.796 203.775C269.796 202.015 268.324 200.589 266.509 200.589H177.73C175.914 200.589 174.443 202.015 174.443 203.775V265.642C174.443 267.402 175.914 268.828 177.73 268.828H266.509C268.324 268.828 269.796 267.402 269.796 265.642V203.775Z" stroke="white" stroke-width="2"/>
<path fill-rule="evenodd" clip-rule="evenodd" d="M199.167 233.122C203.942 233.122 207.815 229.373 207.815 224.75C207.815 220.125 203.942 216.378 199.167 216.378C194.391 216.378 190.52 220.125 190.52 224.75C190.52 229.373 194.391 233.122 199.167 233.122Z" stroke="white" stroke-width="2"/>
<path d="M195.118 268.828L223.761 229.76L235.603 245.233L250.834 222.043L269.796 248.743" stroke="white" stroke-width="2"/>
<path fill-rule="evenodd" clip-rule="evenodd" d="M222.725 140.264C223.926 140.264 224.899 139.343 224.899 138.207C224.899 137.071 223.926 136.151 222.725 136.151C221.525 136.151 220.551 137.071 220.551 138.207C220.551 139.343 221.525 140.264 222.725 140.264Z" fill="#373737"/>
<path fill-rule="evenodd" clip-rule="evenodd" d="M131.556 84H312.444V91.7778H131.556V84Z" fill="#373737"/>
<path fill-rule="evenodd" clip-rule="evenodd" d="M131.556 68.4444H312.444V76.2222H131.556V68.4444Z" fill="#373737"/>
<path d="M328.889 40.4444H116.756V52.8889H328.889V40.4444Z" fill="#CACACA"/>
<path d="M1000 0H590V420H1000V0Z" fill="white" stroke="#373737" stroke-width="2"/>
<path d="M833.525 85.1833V105.251H833.277H832.518V106.029V106.029V106.029V106.029V106.029V106.03V106.03V106.03V106.031V106.031V106.032V106.032V106.033V106.033V106.034V106.035V106.035V106.036V106.037V106.038V106.039V106.04V106.041V106.042V106.043V106.044V106.045V106.046V106.048V106.049V106.05V106.052V106.053V106.054V106.056V106.057V106.059V106.061V106.062V106.064V106.066V106.067V106.069V106.071V106.073V106.075V106.077V106.079V106.081V106.083V106.085V106.087V106.089V106.092V106.094V106.096V106.099V106.101V106.103V106.106V106.108V106.111V106.113V106.116V106.119V106.121V106.124V106.127V106.13V106.133V106.136V106.138V106.141V106.144V106.147V106.15V106.154V106.157V106.16V106.163V106.166V106.17V106.173V106.176V106.18V106.183V106.187V106.19V106.194V106.197V106.201V106.204V106.208V106.212V106.215V106.219V106.223V106.227V106.231V106.235V106.239V106.243V106.247V106.251V106.255V106.259V106.263V106.267V106.272V106.276V106.28V106.285V106.289V106.293V106.298V106.302V106.307V106.311V106.316V106.32V106.325V106.33V106.334V106.339V106.344V106.349V106.354V106.359V106.363V106.368V106.373V106.378V106.383V106.388V106.393V106.399V106.404V106.409V106.414V106.419V106.425V106.43V106.435V106.441V106.446V106.452V106.457V106.463V106.468V106.474V106.479V106.485V106.491V106.496V106.502V106.508V106.513V106.519V106.525V106.531V106.537V106.543V106.549V106.555V106.561V106.567V106.573V106.579V106.585V106.591V106.597V106.604V106.61V106.616V106.622V106.629V106.635V106.641V106.648V106.654V106.661V106.667V106.674V106.68V106.687V106.694V106.7V106.707V106.713V106.72V106.727V106.734V106.74V106.747V106.754V106.761V106.768V106.775V106.782V106.789V106.796V106.803V106.81V106.817V106.824V106.831V106.838V106.846V106.853V106.86V106.867V106.875V106.882V106.889V106.897V106.904V106.911V106.919V106.926V106.934V106.941V106.949V106.957V106.964V106.972V106.979V106.987V106.995V107.002V107.01V107.018V107.026V107.034V107.041V107.049V107.057V107.065V107.073V107.081V107.089V107.097V107.105V107.113V107.121V107.129V107.137V107.145V107.153V107.162V107.17V107.178V107.186V107.194V107.203V107.211V107.219V107.228V107.236V107.244V107.253V107.261V107.27V107.278V107.287V107.295V107.304V107.312V107.321V107.33V107.338V107.347V107.355V107.364V107.373V107.382V107.39V107.399V107.408V107.417V107.425V107.434V107.443V107.452V107.461V107.47V107.479V107.488V107.497V107.506V107.515V107.524V107.533V107.542V107.551V107.56V107.569V107.578V107.587V107.597V107.606V107.615V107.624V107.634V107.643V107.652V107.661V107.671V107.68V107.689V107.699V107.708V107.718V107.727V107.737V107.746V107.755V107.765V107.774V107.784V107.793V107.803V107.813V107.822V107.832V107.841V107.851V107.861V107.87V107.88V107.89V107.899V107.909V107.919V107.929V107.938V107.948V107.958V107.968V107.978V107.987V107.997V108.007V108.017V108.027V108.037V108.047V108.057V108.067V108.077V108.087V108.097V108.107V108.117V108.127V108.137V108.147V108.157V108.167V108.177V108.187V108.197V108.208V108.218V108.228V108.238V108.248V108.258V108.269V108.279V108.289V108.299V108.31V108.32V108.33V108.34V108.351V108.361V108.371V108.382V108.392V108.402V108.413V108.423V108.434V108.444V108.454V108.465V108.475V108.486V108.496V108.507V108.517V108.528V108.538V108.549V108.559V108.57V108.58V108.591V108.601V108.612V108.623V108.633V108.644V108.654V108.665V108.676V108.686V108.697V108.707V108.718V108.729V108.74V108.75V108.761V108.772V108.782V108.793V108.804V108.815V108.825V108.836V108.847V108.858V108.868V108.879V108.89V108.901V108.911V108.922V108.933V108.944V108.955V108.966V108.976V108.987V108.998V109.009V109.02V109.031V109.042V109.053V109.063V109.074V109.085V109.096V109.107V109.118V109.129V109.14V109.151V109.162V109.173V109.183V109.194V109.205V109.216V109.227V109.238V109.249V109.26V109.271V109.282V109.293V109.304V109.315V109.326V109.337V109.348V109.359V109.37V109.381V109.392V109.403V109.414V109.425V109.436V109.447V109.459V109.47V109.481V109.492V109.503V109.514V109.525V109.536V109.547V109.558V109.569V109.58V109.591V109.602V109.613V109.624V109.636V109.647V109.658V109.669V109.68V109.691V109.702V109.713V109.724V109.735V109.746V109.757V109.769V109.78V109.791V109.802V109.813V109.827V109.842V109.856V109.87V109.885V109.899V109.913V109.927V109.942V109.956V109.97V109.984V109.999V110.013V110.027V110.041V110.055V110.069V110.083V110.098V110.112V110.126V110.14V110.154V110.168V110.182V110.196V110.21V110.224V110.238V110.252V110.266V110.279V110.293V110.307V110.321V110.335V110.349V110.362V110.376V110.39V110.404V110.418V110.431V110.445V110.459V110.472V110.486V110.5V110.513V110.527V110.54V110.554V110.568V110.581V110.595V110.608V110.622V110.635V110.649V110.662V110.675V110.689V110.702V110.716V110.729V110.742V110.756V110.769V110.782V110.796V110.809V110.822V110.835V110.848V110.862V110.875V110.888V110.901V110.914V110.927V110.94V110.953V110.966V110.979V110.992V111.005V111.018V111.031V111.044V111.057V111.07V111.083V111.096V111.108V111.121V111.134V111.147V111.16V111.172V111.185V111.198V111.21V111.223V111.236V111.248V111.261V111.273V111.286V111.299V111.311V111.323V111.336V111.349V111.361V111.373V111.386V111.398V111.41V111.423V111.435V111.447V111.46V111.472V111.484V111.496V111.509V111.521V111.533V111.545V111.557V111.569V111.581V111.593V111.605V111.617V111.629V111.641V111.653V111.665V111.677V111.689V111.701V111.713V111.724V111.736V111.748V111.76V111.771V111.783V111.795V111.806V111.818V111.83V111.841V111.853V111.864V111.876V111.887V111.899V111.91V111.922V111.933V111.944V111.956V111.967V111.978V111.99V112.001V112.012V112.023V112.035V112.046V112.057V112.068V112.079V112.09V112.101V112.112V112.123V112.134V112.145V112.156V112.167V112.178V112.189V112.2V112.21V112.221V112.232V112.243V112.254V112.264V112.275V112.285V112.296V112.307V112.317V112.328V112.338V112.349V112.359V112.37V112.38V112.391V112.401V112.411V112.422V112.432V112.442V112.452V112.463V112.473V112.483V112.493V112.503V112.513V112.523V112.533V112.543V112.553V112.563V112.573V112.583V112.593V112.603V112.613V112.623V112.632V112.642V112.652V112.662V112.671V112.681V112.69V112.7V112.71V112.719V112.729V112.738V112.748V112.757V112.766V112.776V112.785V112.794V112.804V112.813V112.822V112.831V112.84V112.85V112.859V112.868V112.877V112.886V112.895V112.904V112.913V112.922V112.931V112.94V112.948V112.957V112.966V112.975V112.984V112.992V113.001V113.01V113.018V113.027V113.035V113.044V113.052V113.061V113.069V113.078V113.086V113.094V113.103V113.111V113.119V113.127V113.136V113.144V113.152V113.16V113.168V113.176V113.184V113.192V113.2V113.208V113.216V113.224V113.232V113.239V113.247V113.255V113.263V113.27V113.278V113.286V113.293V113.301V113.308V113.316V113.323V113.331V113.338V113.346V113.353V113.36V113.367V113.375V113.382V113.389V113.396V113.404V113.411V113.418V113.425V113.432V113.439V113.446V113.453V113.459V113.466V113.473V113.48V113.486V113.493V113.5V113.507V113.513V113.52V113.526V113.533V113.539V113.546V113.552V113.558V113.565V113.571V113.577V113.584V113.59V113.596V113.602V113.608V113.614V113.621V113.627V113.633V113.639V113.645V113.65V113.656V113.662V113.668V113.674V113.679V113.685V113.691V113.696V113.702V113.707V113.713V113.718V113.724V113.729V113.735V113.74V113.745V113.75V113.756V113.761V113.766V113.771V113.776V113.781V113.786V113.791V113.796V113.801V113.806V113.811V113.816V113.82V113.825V113.83V113.835V113.839V113.844V113.848V113.853V113.857V113.862V113.866V113.871V113.875V113.879V113.884V113.888V113.892V113.896V113.9V113.904V113.908V113.913V113.916V113.92V113.924V113.928V113.932V113.936V113.94V113.943V113.947V113.951V113.954V113.958V113.961V113.965V113.968V113.972V113.975V113.978V113.982V113.985V113.988V113.991V113.995V113.998V114.001V114.004V114.007V114.01V114.013V114.016V114.018V114.021V114.024V114.027V114.03V114.032V114.035V114.037V114.04V114.042V114.045V114.047V114.05V114.052V114.054V114.057V114.059V114.061V114.063V114.065V114.067V114.069V114.071V114.073V114.075V114.077V114.079V114.081V114.082V114.084V114.086V114.088V114.089V114.091V114.092V114.094V114.095V114.096V114.098V114.099V114.1V114.102V114.103V114.104V114.105V114.106V114.107V114.108V114.109V114.11V114.111V114.112V114.112V114.113V114.114V114.114V114.115V114.116V114.116V114.117V114.117V114.117V114.118V114.118V114.118V114.119V114.119V114.119V114.119V114.897H833.277H833.525V131.906H833.122H832.363V132.683V137.431V143.166V143.944H833.122H833.525V157.166H833.277H832.518V157.943V169.566V170.344H833.277H833.525V337.8C833.525 350.121 843.096 360.111 854.931 360.111H949.833C961.685 360.111 971.239 350.109 971.239 337.8V85.1833C971.239 72.8617 961.668 62.8727 949.833 62.8727H946.307V62.3589V61.5812H945.547H928.174H927.415V62.3589V62.8727H859.142C853.24 62.8727 846.862 65.3562 841.957 69.3484C837.055 73.339 833.525 78.9255 833.525 85.1833Z" stroke="#373737" stroke-linecap="square"/>
<path fill-rule="evenodd" clip-rule="evenodd" d="M903.07 352.156C910.669 352.156 916.828 345.73 916.828 337.803C916.828 329.876 910.669 323.45 903.07 323.45C895.471 323.45 889.312 329.876 889.312 337.803C889.312 345.73 895.471 352.156 903.07 352.156Z" fill="#373737"/>
<path d="M960.85 103.84H843.913V316.273H960.85V103.84Z" fill="#3EC6FF"/>
<path fill-rule="evenodd" clip-rule="evenodd" d="M931.94 189.226C931.94 188.046 931.052 187.091 929.955 187.091H876.329C875.232 187.091 874.344 188.046 874.344 189.226V230.68C874.344 231.859 875.232 232.814 876.329 232.814H929.955C931.052 232.814 931.94 231.859 931.94 230.68V189.226Z" stroke="white"/>
<path fill-rule="evenodd" clip-rule="evenodd" d="M889.279 208.891C892.162 208.891 894.501 206.379 894.501 203.28C894.501 200.183 892.162 197.671 889.279 197.671C886.394 197.671 884.055 200.183 884.055 203.28C884.055 206.379 886.394 208.891 889.279 208.891Z" stroke="white"/>
<path d="M886.832 232.815L904.133 206.638L911.287 217.006L920.487 201.468L931.94 219.357" stroke="white"/>
<path fill-rule="evenodd" clip-rule="evenodd" d="M902.382 86.6165C904.282 86.6165 905.822 85.0099 905.822 83.0281C905.822 81.0463 904.282 79.4397 902.382 79.4397C900.482 79.4397 898.943 81.0463 898.943 83.0281C898.943 85.0099 900.482 86.6165 902.382 86.6165Z" fill="#CACACA"/>
<path d="M737.296 228.667H634.037C625.65 228.667 618.852 235.631 618.852 244.222C618.852 252.813 625.65 259.778 634.037 259.778H737.296C745.683 259.778 752.481 252.813 752.481 244.222C752.481 235.631 745.683 228.667 737.296 228.667Z" fill="#3EC6FF"/>
<path fill-rule="evenodd" clip-rule="evenodd" d="M618.852 205.333H750.963V213.111H618.852V205.333Z" fill="#373737"/>
<path fill-rule="evenodd" clip-rule="evenodd" d="M618.852 189.778H750.963V197.556H618.852V189.778Z" fill="#373737"/>
<path d="M773.741 161.778H618.852V174.222H773.741V161.778Z" fill="#CACACA"/>
<rect x="431" y="1" width="15" height="418" fill="white"/>
<rect x="588" y="1" width="15" height="418" fill="white"/>
<g filter="url(#filter0_b)">
<path d="M280 364L280 70L728.973 70L280 364Z" fill="url(#paint0_linear)" fill-opacity="0.8"/>
</g>
<path d="M384.451 97.3594V169.869C384.402 179.928 381.229 188.155 374.93 194.552C368.68 200.948 360.184 204.537 349.441 205.318L345.706 205.465C334.036 205.465 324.734 202.315 317.801 196.017C310.867 189.718 307.352 181.051 307.254 170.016V97.3594H321.17V169.576C321.17 177.291 323.294 183.297 327.542 187.594C331.79 191.842 337.845 193.966 345.706 193.966C353.665 193.966 359.744 191.842 363.943 187.594C368.191 183.346 370.315 177.364 370.315 169.649V97.3594H384.451ZM441.434 138.229L466.995 97.3594H483.548L449.856 150.24L484.354 204H467.654L441.434 162.398L415.066 204H398.44L433.011 150.24L399.246 97.3594H415.726L441.434 138.229Z" fill="white"/>
<g filter="url(#filter1_b)">
<path d="M728.5 69.5V363.5H279.527L728.5 69.5Z" fill="url(#paint1_linear)" fill-opacity="0.9"/>
</g>
<path d="M656.451 226.359V298.869C656.402 308.928 653.229 317.155 646.93 323.552C640.68 329.948 632.184 333.537 621.441 334.318L617.706 334.465C606.036 334.465 596.734 331.315 589.801 325.017C582.867 318.718 579.352 310.051 579.254 299.016V226.359H593.17V298.576C593.17 306.291 595.294 312.297 599.542 316.594C603.79 320.842 609.845 322.966 617.706 322.966C625.665 322.966 631.744 320.842 635.943 316.594C640.191 312.346 642.315 306.364 642.315 298.649V226.359H656.451ZM693.731 333H679.669V226.359H693.731V333Z" fill="white"/>
<line x1="441" y1="0.5" x2="596" y2="0.5" stroke="black"/>
<line x1="439" y1="419.5" x2="594" y2="419.5" stroke="black"/>
</g>
<defs>
<filter id="filter0_b" x="276" y="66" width="456.973" height="302" filterUnits="userSpaceOnUse" color-interpolation-filters="sRGB">
<feFlood flood-opacity="0" result="BackgroundImageFix"/>
<feGaussianBlur in="BackgroundImage" stdDeviation="2"/>
<feComposite in2="SourceAlpha" operator="in" result="effect1_backgroundBlur"/>
<feBlend mode="normal" in="SourceGraphic" in2="effect1_backgroundBlur" result="shape"/>
</filter>
<filter id="filter1_b" x="275.527" y="65.5" width="456.973" height="302" filterUnits="userSpaceOnUse" color-interpolation-filters="sRGB">
<feFlood flood-opacity="0" result="BackgroundImageFix"/>
<feGaussianBlur in="BackgroundImage" stdDeviation="2"/>
<feComposite in2="SourceAlpha" operator="in" result="effect1_backgroundBlur"/>
<feBlend mode="normal" in="SourceGraphic" in2="effect1_backgroundBlur" result="shape"/>
</filter>
<linearGradient id="paint0_linear" x1="695" y1="408.5" x2="280" y2="70" gradientUnits="userSpaceOnUse">
<stop stop-opacity="0.63"/>
<stop offset="0.697917" stop-color="#1DA8E2" stop-opacity="0.85739"/>
<stop offset="1" stop-color="#3EC6FF"/>
</linearGradient>
<linearGradient id="paint1_linear" x1="729" y1="364" x2="449.5" y2="54.5" gradientUnits="userSpaceOnUse">
<stop/>
<stop offset="1" stop-color="#0D5A73" stop-opacity="0.7"/>
</linearGradient>
<clipPath id="clip0">
<rect width="1000" height="420" fill="white"/>
</clipPath>
</defs>
</svg>
