<svg width="800" height="400" viewBox="0 0 800 400" fill="none" xmlns="http://www.w3.org/2000/svg">
<rect width="800" height="400" fill="#262626"/>
<rect x="528" y="50" width="200" height="300" fill="#6F6F6F"/>
<path d="M84.3574 39.6465H78.3457V50H74.9531V24.4062H83.4258C86.3086 24.4062 88.5234 25.0625 90.0703 26.375C91.6289 27.6875 92.4082 29.5977 92.4082 32.1055C92.4082 33.6992 91.9746 35.0879 91.1074 36.2715C90.252 37.4551 89.0566 38.3398 87.5215 38.9258L93.5332 49.7891V50H89.9121L84.3574 39.6465ZM78.3457 36.8867H83.5312C85.207 36.8867 86.5371 36.4531 87.5215 35.5859C88.5176 34.7188 89.0156 33.5586 89.0156 32.1055C89.0156 30.5234 88.541 29.3105 87.5918 28.4668C86.6543 27.623 85.2949 27.1953 83.5137 27.1836H78.3457V36.8867ZM104.537 50.3516C101.959 50.3516 99.8613 49.5078 98.2441 47.8203C96.627 46.1211 95.8184 43.8535 95.8184 41.0176V40.4199C95.8184 38.5332 96.1758 36.8516 96.8906 35.375C97.6172 33.8867 98.625 32.7266 99.9141 31.8945C101.215 31.0508 102.621 30.6289 104.133 30.6289C106.605 30.6289 108.527 31.4434 109.898 33.0723C111.27 34.7012 111.955 37.0332 111.955 40.0684V41.4219H99.0703C99.1172 43.2969 99.6621 44.8145 100.705 45.9746C101.76 47.123 103.096 47.6973 104.713 47.6973C105.861 47.6973 106.834 47.4629 107.631 46.9941C108.428 46.5254 109.125 45.9043 109.723 45.1309L111.709 46.6777C110.115 49.127 107.725 50.3516 104.537 50.3516ZM104.133 33.3008C102.82 33.3008 101.719 33.7812 100.828 34.7422C99.9375 35.6914 99.3867 37.0273 99.1758 38.75H108.703V38.5039C108.609 36.8516 108.164 35.5742 107.367 34.6719C106.57 33.7578 105.492 33.3008 104.133 33.3008ZM127.477 50C127.289 49.625 127.137 48.957 127.02 47.9961C125.508 49.5664 123.703 50.3516 121.605 50.3516C119.73 50.3516 118.189 49.8242 116.982 48.7695C115.787 47.7031 115.189 46.3555 115.189 44.7266C115.189 42.7461 115.939 41.2109 117.439 40.1211C118.951 39.0195 121.072 38.4688 123.803 38.4688H126.967V36.9746C126.967 35.8379 126.627 34.9355 125.947 34.2676C125.268 33.5879 124.266 33.248 122.941 33.248C121.781 33.248 120.809 33.541 120.023 34.127C119.238 34.7129 118.846 35.4219 118.846 36.2539H115.576C115.576 35.3047 115.91 34.3906 116.578 33.5117C117.258 32.6211 118.172 31.918 119.32 31.4023C120.48 30.8867 121.752 30.6289 123.135 30.6289C125.326 30.6289 127.043 31.1797 128.285 32.2812C129.527 33.3711 130.172 34.877 130.219 36.7988V45.5527C130.219 47.2988 130.441 48.6875 130.887 49.7188V50H127.477ZM122.08 47.5215C123.1 47.5215 124.066 47.2578 124.98 46.7305C125.895 46.2031 126.557 45.5176 126.967 44.6738V40.7715H124.418C120.434 40.7715 118.441 41.9375 118.441 44.2695C118.441 45.2891 118.781 46.0859 119.461 46.6602C120.141 47.2344 121.014 47.5215 122.08 47.5215ZM142.945 47.6973C144.105 47.6973 145.119 47.3457 145.986 46.6426C146.854 45.9395 147.334 45.0605 147.428 44.0059H150.504C150.445 45.0957 150.07 46.1328 149.379 47.1172C148.688 48.1016 147.762 48.8867 146.602 49.4727C145.453 50.0586 144.234 50.3516 142.945 50.3516C140.355 50.3516 138.293 49.4902 136.758 47.7676C135.234 46.0332 134.473 43.666 134.473 40.666V40.1211C134.473 38.2695 134.812 36.623 135.492 35.1816C136.172 33.7402 137.145 32.6211 138.41 31.8242C139.688 31.0273 141.193 30.6289 142.928 30.6289C145.061 30.6289 146.83 31.2676 148.236 32.5449C149.654 33.8223 150.41 35.4805 150.504 37.5195H147.428C147.334 36.2891 146.865 35.2812 146.021 34.4961C145.189 33.6992 144.158 33.3008 142.928 33.3008C141.275 33.3008 139.992 33.8984 139.078 35.0938C138.176 36.2773 137.725 37.9941 137.725 40.2441V40.8594C137.725 43.0508 138.176 44.7383 139.078 45.9219C139.98 47.1055 141.27 47.6973 142.945 47.6973ZM158.572 26.375V30.9805H162.123V33.4941H158.572V45.2891C158.572 46.0508 158.73 46.625 159.047 47.0117C159.363 47.3867 159.902 47.5742 160.664 47.5742C161.039 47.5742 161.555 47.5039 162.211 47.3633V50C161.355 50.2344 160.523 50.3516 159.715 50.3516C158.262 50.3516 157.166 49.9121 156.428 49.0332C155.689 48.1543 155.32 46.9062 155.32 45.2891V33.4941H151.857V30.9805H155.32V26.375H158.572ZM194.203 41.8789C193.887 44.5859 192.885 46.6777 191.197 48.1543C189.521 49.6191 187.289 50.3516 184.5 50.3516C181.477 50.3516 179.051 49.2676 177.223 47.0996C175.406 44.9316 174.498 42.0312 174.498 38.3984V35.9375C174.498 33.5586 174.92 31.4668 175.764 29.6621C176.619 27.8574 177.826 26.4746 179.385 25.5137C180.943 24.541 182.748 24.0547 184.799 24.0547C187.518 24.0547 189.697 24.8164 191.338 26.3398C192.979 27.8516 193.934 29.9492 194.203 32.6328H190.811C190.518 30.5938 189.879 29.1172 188.895 28.2031C187.922 27.2891 186.557 26.832 184.799 26.832C182.643 26.832 180.949 27.6289 179.719 29.2227C178.5 30.8164 177.891 33.084 177.891 36.0254V38.5039C177.891 41.2812 178.471 43.4902 179.631 45.1309C180.791 46.7715 182.414 47.5918 184.5 47.5918C186.375 47.5918 187.811 47.1699 188.807 46.3262C189.814 45.4707 190.482 43.9883 190.811 41.8789H194.203ZM197.455 40.3145C197.455 38.4512 197.818 36.7754 198.545 35.2871C199.283 33.7988 200.303 32.6504 201.604 31.8418C202.916 31.0332 204.41 30.6289 206.086 30.6289C208.676 30.6289 210.768 31.5254 212.361 33.3184C213.967 35.1113 214.77 37.4961 214.77 40.4727V40.7012C214.77 42.5527 214.412 44.2168 213.697 45.6934C212.994 47.1582 211.98 48.3008 210.656 49.1211C209.344 49.9414 207.832 50.3516 206.121 50.3516C203.543 50.3516 201.451 49.4551 199.846 47.6621C198.252 45.8691 197.455 43.4961 197.455 40.543V40.3145ZM200.725 40.7012C200.725 42.8105 201.211 44.5039 202.184 45.7812C203.168 47.0586 204.48 47.6973 206.121 47.6973C207.773 47.6973 209.086 47.0527 210.059 45.7637C211.031 44.4629 211.518 42.6465 211.518 40.3145C211.518 38.2285 211.02 36.541 210.023 35.252C209.039 33.9512 207.727 33.3008 206.086 33.3008C204.48 33.3008 203.186 33.9395 202.201 35.2168C201.217 36.4941 200.725 38.3223 200.725 40.7012ZM221.906 30.9805L221.994 33.0898C223.389 31.4492 225.27 30.6289 227.637 30.6289C230.297 30.6289 232.107 31.6484 233.068 33.6875C233.701 32.7734 234.521 32.0352 235.529 31.4727C236.549 30.9102 237.75 30.6289 239.133 30.6289C243.305 30.6289 245.426 32.8379 245.496 37.2559V50H242.244V37.4492C242.244 36.0898 241.934 35.0762 241.312 34.4082C240.691 33.7285 239.648 33.3887 238.184 33.3887C236.977 33.3887 235.975 33.752 235.178 34.4785C234.381 35.1934 233.918 36.1602 233.789 37.3789V50H230.52V37.5371C230.52 34.7715 229.166 33.3887 226.459 33.3887C224.326 33.3887 222.867 34.2969 222.082 36.1133V50H218.83V30.9805H221.906ZM266.484 40.7012C266.484 43.5957 265.822 45.9277 264.498 47.6973C263.174 49.4668 261.381 50.3516 259.119 50.3516C256.811 50.3516 254.994 49.6191 253.67 48.1543V57.3125H250.418V30.9805H253.389L253.547 33.0898C254.871 31.4492 256.711 30.6289 259.066 30.6289C261.352 30.6289 263.156 31.4902 264.48 33.2129C265.816 34.9355 266.484 37.332 266.484 40.4023V40.7012ZM263.232 40.332C263.232 38.1875 262.775 36.4941 261.861 35.252C260.947 34.0098 259.693 33.3887 258.1 33.3887C256.131 33.3887 254.654 34.2617 253.67 36.0078V45.0957C254.643 46.8301 256.131 47.6973 258.135 47.6973C259.693 47.6973 260.93 47.082 261.844 45.8516C262.77 44.6094 263.232 42.7695 263.232 40.332ZM269.771 40.3145C269.771 38.4512 270.135 36.7754 270.861 35.2871C271.6 33.7988 272.619 32.6504 273.92 31.8418C275.232 31.0332 276.727 30.6289 278.402 30.6289C280.992 30.6289 283.084 31.5254 284.678 33.3184C286.283 35.1113 287.086 37.4961 287.086 40.4727V40.7012C287.086 42.5527 286.729 44.2168 286.014 45.6934C285.311 47.1582 284.297 48.3008 282.973 49.1211C281.66 49.9414 280.148 50.3516 278.438 50.3516C275.859 50.3516 273.768 49.4551 272.162 47.6621C270.568 45.8691 269.771 43.4961 269.771 40.543V40.3145ZM273.041 40.7012C273.041 42.8105 273.527 44.5039 274.5 45.7812C275.484 47.0586 276.797 47.6973 278.438 47.6973C280.09 47.6973 281.402 47.0527 282.375 45.7637C283.348 44.4629 283.834 42.6465 283.834 40.3145C283.834 38.2285 283.336 36.541 282.34 35.252C281.355 33.9512 280.043 33.3008 278.402 33.3008C276.797 33.3008 275.502 33.9395 274.518 35.2168C273.533 36.4941 273.041 38.3223 273.041 40.7012ZM294.24 30.9805L294.346 33.3711C295.799 31.543 297.697 30.6289 300.041 30.6289C304.061 30.6289 306.088 32.8965 306.123 37.4316V50H302.871V37.4141C302.859 36.043 302.543 35.0293 301.922 34.373C301.312 33.7168 300.357 33.3887 299.057 33.3887C298.002 33.3887 297.076 33.6699 296.279 34.2324C295.482 34.7949 294.861 35.5332 294.416 36.4473V50H291.164V30.9805H294.24ZM318.92 50.3516C316.342 50.3516 314.244 49.5078 312.627 47.8203C311.01 46.1211 310.201 43.8535 310.201 41.0176V40.4199C310.201 38.5332 310.559 36.8516 311.273 35.375C312 33.8867 313.008 32.7266 314.297 31.8945C315.598 31.0508 317.004 30.6289 318.516 30.6289C320.988 30.6289 322.91 31.4434 324.281 33.0723C325.652 34.7012 326.338 37.0332 326.338 40.0684V41.4219H313.453C313.5 43.2969 314.045 44.8145 315.088 45.9746C316.143 47.123 317.479 47.6973 319.096 47.6973C320.244 47.6973 321.217 47.4629 322.014 46.9941C322.811 46.5254 323.508 45.9043 324.105 45.1309L326.092 46.6777C324.498 49.127 322.107 50.3516 318.92 50.3516ZM318.516 33.3008C317.203 33.3008 316.102 33.7812 315.211 34.7422C314.32 35.6914 313.77 37.0273 313.559 38.75H323.086V38.5039C322.992 36.8516 322.547 35.5742 321.75 34.6719C320.953 33.7578 319.875 33.3008 318.516 33.3008ZM333.193 30.9805L333.299 33.3711C334.752 31.543 336.65 30.6289 338.994 30.6289C343.014 30.6289 345.041 32.8965 345.076 37.4316V50H341.824V37.4141C341.812 36.043 341.496 35.0293 340.875 34.373C340.266 33.7168 339.311 33.3887 338.01 33.3887C336.955 33.3887 336.029 33.6699 335.232 34.2324C334.436 34.7949 333.814 35.5332 333.369 36.4473V50H330.117V30.9805H333.193ZM354.393 26.375V30.9805H357.943V33.4941H354.393V45.2891C354.393 46.0508 354.551 46.625 354.867 47.0117C355.184 47.3867 355.723 47.5742 356.484 47.5742C356.859 47.5742 357.375 47.5039 358.031 47.3633V50C357.176 50.2344 356.344 50.3516 355.535 50.3516C354.082 50.3516 352.986 49.9121 352.248 49.0332C351.51 48.1543 351.141 46.9062 351.141 45.2891V33.4941H347.678V30.9805H351.141V26.375H354.393ZM372.832 44.9551C372.832 44.0762 372.498 43.3965 371.83 42.916C371.174 42.4238 370.02 42.002 368.367 41.6504C366.727 41.2988 365.42 40.877 364.447 40.3848C363.486 39.8926 362.771 39.3066 362.303 38.627C361.846 37.9473 361.617 37.1387 361.617 36.2012C361.617 34.6426 362.273 33.3242 363.586 32.2461C364.91 31.168 366.598 30.6289 368.648 30.6289C370.805 30.6289 372.551 31.1855 373.887 32.2988C375.234 33.4121 375.908 34.8359 375.908 36.5703H372.639C372.639 35.6797 372.258 34.9121 371.496 34.2676C370.746 33.623 369.797 33.3008 368.648 33.3008C367.465 33.3008 366.539 33.5586 365.871 34.0742C365.203 34.5898 364.869 35.2637 364.869 36.0957C364.869 36.8809 365.18 37.4727 365.801 37.8711C366.422 38.2695 367.541 38.6504 369.158 39.0137C370.787 39.377 372.105 39.8105 373.113 40.3145C374.121 40.8184 374.865 41.4277 375.346 42.1426C375.838 42.8457 376.084 43.707 376.084 44.7266C376.084 46.4258 375.404 47.791 374.045 48.8223C372.686 49.8418 370.922 50.3516 368.754 50.3516C367.23 50.3516 365.883 50.082 364.711 49.543C363.539 49.0039 362.619 48.2539 361.951 47.293C361.295 46.3203 360.967 45.2715 360.967 44.1465H364.219C364.277 45.2363 364.711 46.1035 365.52 46.748C366.34 47.3809 367.418 47.6973 368.754 47.6973C369.984 47.6973 370.969 47.4512 371.707 46.959C372.457 46.4551 372.832 45.7871 372.832 44.9551Z" fill="white"/>
<line x1="71.9964" y1="67.0484" x2="378.003" y2="67.0484" stroke="white" stroke-width="2"/>
<line y1="-2.5" x2="100.005" y2="-2.5" transform="matrix(1 0.000292087 0.00631739 0.99998 91.747 123.492)" stroke="#FFE600" stroke-width="5"/>
<line y1="-2.5" x2="100.005" y2="-2.5" transform="matrix(1 0.000292087 0.00631739 0.99998 92.2479 174.49)" stroke="#FFE600" stroke-width="5"/>
<line y1="-2.5" x2="100.005" y2="-2.5" transform="matrix(1 0.000292087 0.00631739 0.99998 91.914 140.491)" stroke="#FFE600" stroke-width="5"/>
<line y1="-2.5" x2="100.005" y2="-2.5" transform="matrix(1 0.000292087 0.00631739 0.99998 92.0809 157.491)" stroke="#FFE600" stroke-width="5"/>
<line y1="-2.5" x2="75.0068" y2="-2.5" transform="matrix(0.999909 0.0134832 -0.00262754 0.999997 545 197)" stroke="#FFE600" stroke-width="5"/>
<line y1="-2.5" x2="75.0068" y2="-2.5" transform="matrix(0.999909 0.0134832 -0.00262754 0.999997 545 248)" stroke="#FFE600" stroke-width="5"/>
<line y1="-2.5" x2="75.0068" y2="-2.5" transform="matrix(0.999909 0.0134832 -0.00262754 0.999997 545 214)" stroke="#FFE600" stroke-width="5"/>
<line y1="-2.5" x2="75.0068" y2="-2.5" transform="matrix(0.999909 0.0134832 -0.00262754 0.999997 545 231)" stroke="#FFE600" stroke-width="5"/>
<line y1="-2.5" x2="75.0068" y2="-2.5" transform="matrix(0.999909 0.0134832 -0.00262754 0.999997 635 198)" stroke="#FFE600" stroke-width="5"/>
<line y1="-2.5" x2="75.0068" y2="-2.5" transform="matrix(0.999909 0.0134832 -0.00262754 0.999997 635 249)" stroke="#FFE600" stroke-width="5"/>
<line y1="-2.5" x2="75.0068" y2="-2.5" transform="matrix(0.999909 0.0134832 -0.00262754 0.999997 635 215)" stroke="#FFE600" stroke-width="5"/>
<line y1="-2.5" x2="75.0068" y2="-2.5" transform="matrix(0.999909 0.0134832 -0.00262754 0.999997 635 232)" stroke="#FFE600" stroke-width="5"/>
<rect x="214" y="110" width="150" height="75" fill="#FF00B8"/>
<rect x="545" y="60" width="165" height="79" fill="#FF00B8"/>
<circle cx="138.5" cy="276.5" r="41.5" fill="#7000FF"/>
<circle cx="582.5" cy="164.5" r="18.5" fill="#7000FF"/>
<circle cx="672.5" cy="164.5" r="18.5" fill="#7000FF"/>
<g filter="url(#filter0_d)">
<rect x="539" y="271" width="50" height="63" fill="white"/>
</g>
<g filter="url(#filter1_d)">
<rect x="249" y="226" width="80" height="100" fill="white"/>
</g>
<path d="M142.6 130.416V158.64H147.88V162H132.904V158.64H138.472V135.312L132.232 137.712L131.032 134.64L141.784 130.416H142.6Z" fill="white"/>
<path d="M293.128 285.016V266.872L281.656 285.016H293.128ZM278.008 284.968L293.128 261.4H296.488V285.016H300.52V288.04H296.488V295H293.128V288.04H278.008V284.968Z" fill="black"/>
<path d="M129.832 263C132.392 261.944 135.192 261.416 138.232 261.416C141.272 261.416 143.48 262.168 144.856 263.672C146.264 265.176 146.968 267.128 146.968 269.528C146.968 273.048 145.576 275.448 142.792 276.728V276.968C144.616 277.544 145.928 278.408 146.728 279.56C147.56 280.712 147.976 282.296 147.976 284.312C147.976 290.424 144.616 293.48 137.896 293.48C134.792 293.48 132.088 292.984 129.784 291.992L130.936 289.016C133.72 289.656 135.912 289.976 137.512 289.976C139.144 289.976 140.376 289.864 141.208 289.64C142.072 289.384 142.664 289 142.984 288.488C143.336 287.944 143.544 287.48 143.608 287.096C143.672 286.68 143.704 286.088 143.704 285.32C143.704 284.52 143.672 283.88 143.608 283.4C143.544 282.888 143.4 282.28 143.176 281.576C142.728 280.2 141.56 279.448 139.672 279.32L133.768 278.888V275.912L139.048 275.48C140.808 275.352 141.88 274.584 142.264 273.176C142.584 272.152 142.744 271.112 142.744 270.056C142.744 268.968 142.696 268.2 142.6 267.752C142.504 267.272 142.296 266.792 141.976 266.312C141.4 265.32 140.072 264.824 137.992 264.824C135.912 264.824 133.496 265.24 130.744 266.072L129.832 263Z" fill="white"/>
<path d="M288.712 130.416C291.592 130.416 293.848 131.12 295.48 132.528C297.112 133.904 297.928 136.032 297.928 138.912C297.928 141.76 296.632 144.672 294.04 147.648L284.536 158.64H297.928V162H279.88V158.352L290.872 145.632C291.896 144.448 292.616 143.344 293.032 142.32C293.48 141.264 293.704 139.936 293.704 138.336C293.704 136.736 293.304 135.584 292.504 134.88C291.736 134.176 290.344 133.824 288.328 133.824C286.312 133.824 283.944 134.24 281.224 135.072L280.312 132C283.032 130.944 285.832 130.416 288.712 130.416Z" fill="white"/>
<circle cx="563.5" cy="285.5" r="12.5" fill="#7000FF"/>
<line y1="-2.5" x2="30.0033" y2="-2.5" transform="matrix(0.999869 0.0162015 -0.00218659 0.999998 549 305)" stroke="#FFE600" stroke-width="5"/>
<line y1="-2.5" x2="30.0033" y2="-2.5" transform="matrix(0.999869 0.0162015 -0.00218659 0.999998 549 329.514)" stroke="#FFE600" stroke-width="5"/>
<line y1="-2.5" x2="30.0033" y2="-2.5" transform="matrix(0.999869 0.0162015 -0.00218659 0.999998 549 313.171)" stroke="#FFE600" stroke-width="5"/>
<line y1="-2.5" x2="30.0033" y2="-2.5" transform="matrix(0.999869 0.0162015 -0.00218659 0.999998 549 321.343)" stroke="#FFE600" stroke-width="5"/>
<g filter="url(#filter2_d)">
<rect x="666" y="271" width="50" height="63" fill="white"/>
</g>
<circle cx="690.5" cy="285.5" r="12.5" fill="#7000FF"/>
<line y1="-2.5" x2="30.0033" y2="-2.5" transform="matrix(0.999869 0.0162015 -0.00218659 0.999998 676 305)" stroke="#FFE600" stroke-width="5"/>
<line y1="-2.5" x2="30.0033" y2="-2.5" transform="matrix(0.999869 0.0162015 -0.00218659 0.999998 676 329.514)" stroke="#FFE600" stroke-width="5"/>
<line y1="-2.5" x2="30.0033" y2="-2.5" transform="matrix(0.999869 0.0162015 -0.00218659 0.999998 676 313.171)" stroke="#FFE600" stroke-width="5"/>
<line y1="-2.5" x2="30.0033" y2="-2.5" transform="matrix(0.999869 0.0162015 -0.00218659 0.999998 676 321.343)" stroke="#FFE600" stroke-width="5"/>
<g filter="url(#filter3_d)">
<rect x="604" y="271" width="50" height="63" fill="white"/>
</g>
<circle cx="628.5" cy="285.5" r="12.5" fill="#7000FF"/>
<line y1="-2.5" x2="30.0033" y2="-2.5" transform="matrix(0.999869 0.0162015 -0.00218659 0.999998 614 305)" stroke="#FFE600" stroke-width="5"/>
<line y1="-2.5" x2="30.0033" y2="-2.5" transform="matrix(0.999869 0.0162015 -0.00218659 0.999998 614 329.514)" stroke="#FFE600" stroke-width="5"/>
<line y1="-2.5" x2="30.0033" y2="-2.5" transform="matrix(0.999869 0.0162015 -0.00218659 0.999998 614 313.171)" stroke="#FFE600" stroke-width="5"/>
<line y1="-2.5" x2="30.0033" y2="-2.5" transform="matrix(0.999869 0.0162015 -0.00218659 0.999998 614 321.343)" stroke="#FFE600" stroke-width="5"/>
<line x1="400" y1="213.5" x2="502" y2="213.5" stroke="white" stroke-width="5"/>
<path d="M475 242L506 213L475 184" stroke="white" stroke-width="5"/>
<defs>
<filter id="filter0_d" x="535" y="271" width="58" height="71" filterUnits="userSpaceOnUse" color-interpolation-filters="sRGB">
<feFlood flood-opacity="0" result="BackgroundImageFix"/>
<feColorMatrix in="SourceAlpha" type="matrix" values="0 0 0 0 0 0 0 0 0 0 0 0 0 0 0 0 0 0 127 0"/>
<feOffset dy="4"/>
<feGaussianBlur stdDeviation="2"/>
<feColorMatrix type="matrix" values="0 0 0 0 0 0 0 0 0 0 0 0 0 0 0 0 0 0 0.25 0"/>
<feBlend mode="normal" in2="BackgroundImageFix" result="effect1_dropShadow"/>
<feBlend mode="normal" in="SourceGraphic" in2="effect1_dropShadow" result="shape"/>
</filter>
<filter id="filter1_d" x="245" y="226" width="88" height="108" filterUnits="userSpaceOnUse" color-interpolation-filters="sRGB">
<feFlood flood-opacity="0" result="BackgroundImageFix"/>
<feColorMatrix in="SourceAlpha" type="matrix" values="0 0 0 0 0 0 0 0 0 0 0 0 0 0 0 0 0 0 127 0"/>
<feOffset dy="4"/>
<feGaussianBlur stdDeviation="2"/>
<feColorMatrix type="matrix" values="0 0 0 0 0 0 0 0 0 0 0 0 0 0 0 0 0 0 0.25 0"/>
<feBlend mode="normal" in2="BackgroundImageFix" result="effect1_dropShadow"/>
<feBlend mode="normal" in="SourceGraphic" in2="effect1_dropShadow" result="shape"/>
</filter>
<filter id="filter2_d" x="662" y="271" width="58" height="71" filterUnits="userSpaceOnUse" color-interpolation-filters="sRGB">
<feFlood flood-opacity="0" result="BackgroundImageFix"/>
<feColorMatrix in="SourceAlpha" type="matrix" values="0 0 0 0 0 0 0 0 0 0 0 0 0 0 0 0 0 0 127 0"/>
<feOffset dy="4"/>
<feGaussianBlur stdDeviation="2"/>
<feColorMatrix type="matrix" values="0 0 0 0 0 0 0 0 0 0 0 0 0 0 0 0 0 0 0.25 0"/>
<feBlend mode="normal" in2="BackgroundImageFix" result="effect1_dropShadow"/>
<feBlend mode="normal" in="SourceGraphic" in2="effect1_dropShadow" result="shape"/>
</filter>
<filter id="filter3_d" x="600" y="271" width="58" height="71" filterUnits="userSpaceOnUse" color-interpolation-filters="sRGB">
<feFlood flood-opacity="0" result="BackgroundImageFix"/>
<feColorMatrix in="SourceAlpha" type="matrix" values="0 0 0 0 0 0 0 0 0 0 0 0 0 0 0 0 0 0 127 0"/>
<feOffset dy="4"/>
<feGaussianBlur stdDeviation="2"/>
<feColorMatrix type="matrix" values="0 0 0 0 0 0 0 0 0 0 0 0 0 0 0 0 0 0 0.25 0"/>
<feBlend mode="normal" in2="BackgroundImageFix" result="effect1_dropShadow"/>
<feBlend mode="normal" in="SourceGraphic" in2="effect1_dropShadow" result="shape"/>
</filter>
</defs>
</svg>
